<?xml version="1.0" encoding="UTF-8"?>
<!DOCTYPE svg PUBLIC "-//W3C//DTD SVG 1.1//EN" "http://www.w3.org/Graphics/SVG/1.1/DTD/svg11.dtd">
<svg xmlns="http://www.w3.org/2000/svg" version="1.1" width="512px" height="512px" style="shape-rendering:geometricPrecision; text-rendering:geometricPrecision; image-rendering:optimizeQuality; fill-rule:evenodd; clip-rule:evenodd" xmlns:xlink="http://www.w3.org/1999/xlink">
<g><path style="opacity:0.967" fill="#000000" d="M 511.5,190.5 C 511.5,192.167 511.5,193.833 511.5,195.5C 502.836,197.833 494.169,200.166 485.5,202.5C 493.343,213.529 497.01,225.863 496.5,239.5C 496.9,256.233 493.067,271.9 485,286.5C 482.5,290.333 479.333,293.5 475.5,296C 479.217,297.18 482.884,298.513 486.5,300C 489.37,303.815 489.036,307.315 485.5,310.5C 480.294,313.603 474.96,316.436 469.5,319C 465.242,323.348 462.408,328.514 461,334.5C 458.341,345.443 458.008,356.443 460,367.5C 471.197,370.678 482.031,374.844 492.5,380C 498.255,384.404 497.588,387.404 490.5,389C 398.348,411.246 306.182,433.413 214,455.5C 150.387,435.407 86.8865,414.907 23.5,394C 16.2816,389.782 10.7816,383.948 7,376.5C 3.54112,367.98 1.04112,359.313 -0.5,350.5C -0.5,341.167 -0.5,331.833 -0.5,322.5C 1.42107,312.258 5.75441,303.092 12.5,295C 8.19196,293.673 3.85862,292.507 -0.5,291.5C -0.5,289.833 -0.5,288.167 -0.5,286.5C 10.5906,279.688 22.5906,275.022 35.5,272.5C 37.6339,258.534 36.4673,244.867 32,231.5C 29.9249,227.421 27.0916,223.921 23.5,221C 19.4189,219.529 15.4189,217.862 11.5,216C 5.11123,211.405 5.11123,207.071 11.5,203C 18.1667,201 24.8333,199 31.5,197C 20.6841,184.227 15.1841,169.394 15,152.5C 12.8195,135.897 16.1528,120.563 25,106.5C 29.7714,101.064 35.6047,97.2306 42.5,95C 135.125,81.7203 227.792,68.7203 320.5,56C 323.833,55.3333 327.167,55.3333 330.5,56C 387.571,73.1351 444.571,90.4684 501.5,108C 505.173,112.417 504.506,116.417 499.5,120C 483.794,124.558 475.627,135.058 475,151.5C 474.427,159.849 474.593,168.182 475.5,176.5C 488.382,179.014 500.382,183.681 511.5,190.5 Z M 42.5,116.5 C 45.5184,116.335 48.5184,116.502 51.5,117C 111.203,136.401 170.87,155.901 230.5,175.5C 230.833,177.167 231.167,178.833 231.5,180.5C 230.533,198.822 229.866,217.155 229.5,235.5C 168.438,218.981 107.438,202.147 46.5,185C 40.8515,181.213 37.0182,176.046 35,169.5C 30.613,154.79 30.613,140.124 35,125.5C 36.6416,121.7 39.1416,118.7 42.5,116.5 Z M 467.5,129.5 C 468.239,129.369 468.906,129.536 469.5,130C 463.22,146.265 461.887,162.932 465.5,180C 390.58,198.605 315.747,217.438 241,236.5C 240.86,218.833 241.193,201.166 242,183.5C 242.226,180.905 242.726,178.405 243.5,176C 318.364,160.795 393.03,145.295 467.5,129.5 Z M 459.5,212.5 C 465.386,211.343 470.219,213.01 474,217.5C 481.308,235.913 480.975,254.247 473,272.5C 470.833,276 468,278.833 464.5,281C 403.519,297.995 342.519,314.828 281.5,331.5C 281.135,312.987 280.468,294.487 279.5,276C 279.833,274.5 280.167,273 280.5,271.5C 340.337,251.998 400.004,232.332 459.5,212.5 Z M 41.5,226.5 C 41.7352,225.903 42.2352,225.57 43,225.5C 118.088,241.284 193.255,256.618 268.5,271.5C 269.458,291.485 270.125,311.485 270.5,331.5C 195.761,313.482 121.094,295.149 46.5,276.5C 48.4914,261.326 47.6581,246.326 44,231.5C 43.2432,229.685 42.4098,228.019 41.5,226.5 Z M 27.5,308.5 C 30.5184,308.335 33.5184,308.502 36.5,309C 95.8333,328.333 155.167,347.667 214.5,367C 215.255,387.12 214.922,407.286 213.5,427.5C 152.086,410.646 90.7523,393.48 29.5,376C 21.9091,369.254 17.7424,360.754 17,350.5C 15.6472,338.594 16.6472,326.927 20,315.5C 21.7424,312.254 24.2424,309.921 27.5,308.5 Z M 450.5,321.5 C 451.675,321.281 452.675,321.614 453.5,322.5C 451.378,327.655 449.878,332.988 449,338.5C 448.257,349.86 448.423,361.193 449.5,372.5C 374.537,390.991 299.537,409.324 224.5,427.5C 225.116,407.594 226.116,387.76 227.5,368C 241.833,365 256.167,362 270.5,359C 275.167,359 279.833,359 284.5,359C 292.881,356.488 301.214,353.821 309.5,351C 356.697,341.462 403.697,331.628 450.5,321.5 Z"/></g>
</svg>
