<?xml version="1.0" encoding="UTF-8"?>
<!DOCTYPE svg PUBLIC "-//W3C//DTD SVG 1.1//EN" "http://www.w3.org/Graphics/SVG/1.1/DTD/svg11.dtd">
<svg xmlns="http://www.w3.org/2000/svg" version="1.1" width="512px" height="512px" style="shape-rendering:geometricPrecision; text-rendering:geometricPrecision; image-rendering:optimizeQuality; fill-rule:evenodd; clip-rule:evenodd" xmlns:xlink="http://www.w3.org/1999/xlink">
<g><path style="opacity:0.943" fill="#000000" d="M 511.5,123.5 C 511.5,126.167 511.5,128.833 511.5,131.5C 510.354,133.475 508.687,134.975 506.5,136C 485.503,136.5 464.503,136.667 443.5,136.5C 443.5,141.833 443.5,147.167 443.5,152.5C 471.693,147.694 483.026,159.36 477.5,187.5C 477.333,195.167 477.167,202.833 477,210.5C 474.833,215.333 471.333,218.833 466.5,221C 445.5,221.667 424.5,221.667 403.5,221C 400.464,219.482 397.464,217.982 394.5,216.5C 388.914,218.796 383.247,220.796 377.5,222.5C 393.559,274.512 409.726,326.512 426,378.5C 428.29,391.201 423.124,398.701 410.5,401C 404.167,401.667 397.833,401.667 391.5,401C 385.876,400.44 381.376,397.94 378,393.5C 359.722,344.609 341.722,295.609 324,246.5C 323.612,245.572 322.945,244.905 322,244.5C 313.445,247.528 304.945,250.694 296.5,254C 293.372,259.755 290.372,265.588 287.5,271.5C 293.472,272.33 299.472,272.83 305.5,273C 314.208,275.44 320.041,280.94 323,289.5C 324.622,316.459 324.956,343.459 324,370.5C 321.603,381.897 314.77,389.063 303.5,392C 271.5,392.667 239.5,392.667 207.5,392C 196.23,389.063 189.397,381.897 187,370.5C 186.044,343.459 186.378,316.459 188,289.5C 190.959,280.94 196.792,275.44 205.5,273C 211.528,272.83 217.528,272.33 223.5,271.5C 220.628,265.588 217.628,259.755 214.5,254C 206.055,250.694 197.555,247.528 189,244.5C 188.055,244.905 187.388,245.572 187,246.5C 169.278,295.609 151.278,344.609 133,393.5C 129.587,397.956 125.087,400.456 119.5,401C 111.445,401.822 103.445,401.488 95.5,400C 86.2818,395.7 82.7818,388.533 85,378.5C 100.965,326.939 117.131,275.439 133.5,224C 128.045,220.862 122.211,218.362 116,216.5C 113.262,218.12 110.428,219.62 107.5,221C 86.5,221.667 65.5,221.667 44.5,221C 39.6667,218.833 36.1667,215.333 34,210.5C 33.3333,195.167 33.3333,179.833 34,164.5C 35.963,158.269 40.1296,154.436 46.5,153C 53.4921,152.5 60.4921,152.334 67.5,152.5C 67.5,147.167 67.5,141.833 67.5,136.5C 46.4974,136.667 25.4974,136.5 4.5,136C 2.31305,134.975 0.646381,133.475 -0.5,131.5C -0.5,128.833 -0.5,126.167 -0.5,123.5C 0.646381,121.525 2.31305,120.025 4.5,119C 25.4974,118.5 46.4974,118.333 67.5,118.5C 69.7512,110.18 74.7512,108.013 82.5,112C 83.627,113.753 84.627,115.587 85.5,117.5C 106.159,118.333 126.825,118.833 147.5,119C 153.659,122.417 154.992,127.25 151.5,133.5C 150.335,134.584 149.002,135.417 147.5,136C 126.836,136.5 106.169,136.667 85.5,136.5C 85.5,141.833 85.5,147.167 85.5,152.5C 92.175,152.334 98.8417,152.5 105.5,153C 110.211,154.018 113.878,156.518 116.5,160.5C 141.493,161.666 166.493,161.833 191.5,161C 207.741,128.13 234.074,114.464 270.5,120C 293.494,125.657 309.827,139.323 319.5,161C 344.507,161.833 369.507,161.666 394.5,160.5C 396.356,157.81 398.689,155.644 401.5,154C 409.429,152.637 417.429,152.137 425.5,152.5C 425.5,147.167 425.5,141.833 425.5,136.5C 404.831,136.667 384.164,136.5 363.5,136C 357.341,132.583 356.008,127.75 359.5,121.5C 360.665,120.416 361.998,119.583 363.5,119C 384.175,118.833 404.841,118.333 425.5,117.5C 428.062,110.812 432.729,108.646 439.5,111C 442.024,112.883 443.358,115.383 443.5,118.5C 464.503,118.333 485.503,118.5 506.5,119C 508.687,120.025 510.354,121.525 511.5,123.5 Z M 248.5,136.5 C 277.026,135.535 295.859,148.535 305,175.5C 306.579,177.041 308.413,178.208 310.5,179C 337.498,179.5 364.498,179.667 391.5,179.5C 391.5,185.833 391.5,192.167 391.5,198.5C 357.752,211.029 324.085,223.862 290.5,237C 267.167,237.667 243.833,237.667 220.5,237C 186.915,223.862 153.248,211.029 119.5,198.5C 119.5,192.167 119.5,185.833 119.5,179.5C 146.502,179.667 173.502,179.5 200.5,179C 202.587,178.208 204.421,177.041 206,175.5C 212.766,154.226 226.933,141.226 248.5,136.5 Z M 51.5,170.5 C 68.1667,170.5 84.8333,170.5 101.5,170.5C 101.5,181.5 101.5,192.5 101.5,203.5C 84.8333,203.5 68.1667,203.5 51.5,203.5C 51.5,192.5 51.5,181.5 51.5,170.5 Z M 409.5,170.5 C 426.167,170.5 442.833,170.5 459.5,170.5C 459.5,181.5 459.5,192.5 459.5,203.5C 442.833,203.5 426.167,203.5 409.5,203.5C 409.5,192.5 409.5,181.5 409.5,170.5 Z M 150.5,229.5 C 156.141,231.651 161.808,233.817 167.5,236C 169.18,236.347 170.18,237.347 170.5,239C 153.025,287.094 135.358,335.094 117.5,383C 112.467,383.829 107.467,383.662 102.5,382.5C 118.908,331.609 134.908,280.609 150.5,229.5 Z M 359.5,229.5 C 375.998,280.33 392.331,331.33 408.5,382.5C 403.533,383.662 398.533,383.829 393.5,383C 375.543,334.965 357.877,286.799 340.5,238.5C 346.571,234.922 352.905,231.922 359.5,229.5 Z M 236.5,255.5 C 249.184,255.168 261.851,255.501 274.5,256.5C 271.961,261.745 269.294,266.912 266.5,272C 259.167,272.667 251.833,272.667 244.5,272C 241.422,266.677 238.755,261.177 236.5,255.5 Z M 209.5,290.5 C 240.921,290.015 272.254,290.515 303.5,292C 304.46,293.419 305.293,294.919 306,296.5C 306.971,321.23 306.638,345.896 305,370.5C 303.786,372.049 302.286,373.215 300.5,374C 269.747,374.984 239.081,374.651 208.5,373C 206.513,371.681 205.346,369.848 205,367.5C 204.333,343.833 204.333,320.167 205,296.5C 205.804,293.854 207.304,291.854 209.5,290.5 Z M 252.5,324.5 C 261.56,324.046 264.727,328.046 262,336.5C 256.513,342.133 251.846,341.466 248,334.5C 247.077,330.017 248.577,326.683 252.5,324.5 Z"/></g>
<g><path style="opacity:0.933" fill="#000000" d="M 248.5,306.5 C 270.989,304.825 281.822,315.158 281,337.5C 276.641,352.932 266.474,359.765 250.5,358C 234.754,353.349 227.921,342.849 230,326.5C 232.587,316.417 238.753,309.75 248.5,306.5 Z M 252.5,324.5 C 248.577,326.683 247.077,330.017 248,334.5C 251.846,341.466 256.513,342.133 262,336.5C 264.727,328.046 261.56,324.046 252.5,324.5 Z"/></g>
</svg>
