<?xml version="1.0" encoding="UTF-8"?>
<!DOCTYPE svg PUBLIC "-//W3C//DTD SVG 1.1//EN" "http://www.w3.org/Graphics/SVG/1.1/DTD/svg11.dtd">
<svg xmlns="http://www.w3.org/2000/svg" version="1.1" width="512px" height="512px" style="shape-rendering:geometricPrecision; text-rendering:geometricPrecision; image-rendering:optimizeQuality; fill-rule:evenodd; clip-rule:evenodd" xmlns:xlink="http://www.w3.org/1999/xlink">
<g><path style="opacity:0.949" fill="#000000" d="M 282.5,-0.5 C 289.5,-0.5 296.5,-0.5 303.5,-0.5C 328.073,6.07248 343.739,21.7391 350.5,46.5C 376.923,41.8141 398.423,49.8141 415,70.5C 428.433,93.1217 427.433,115.122 412,136.5C 398.652,153.095 382.486,166.262 363.5,176C 384.882,176.912 405.549,181.245 425.5,189C 458.311,204.097 469.477,228.931 459,263.5C 449.872,281.621 435.539,293.621 416,299.5C 419.749,323.924 412.582,344.424 394.5,361C 367.135,378.338 341.635,375.838 318,353.5C 326.725,393.976 327.391,434.643 320,475.5C 317.772,485.411 314.772,495.078 311,504.5C 310.033,507.621 308.2,509.954 305.5,511.5C 290.167,511.5 274.833,511.5 259.5,511.5C 255.495,509.47 253.495,506.137 253.5,501.5C 263.6,456.034 268.434,410.034 268,363.5C 251.314,395.066 226.147,404.566 192.5,392C 183.809,387.645 176.643,381.479 171,373.5C 166.473,365.779 162.473,357.779 159,349.5C 139.327,353.099 121.493,348.933 105.5,337C 82.2883,312.459 80.455,286.292 100,258.5C 113.448,242.199 129.615,229.365 148.5,220C 122.227,220.265 97.5603,214.265 74.5,202C 49.6028,184.974 42.1028,162.141 52,133.5C 61.1043,115.407 75.4376,103.407 95,97.5C 90.9714,70.8984 99.4714,49.3984 120.5,33C 138.49,22.5336 156.824,21.8669 175.5,31C 193.279,42.1119 207.779,56.6119 219,74.5C 222.333,80.5 225.667,86.5 229,92.5C 229.547,68.6394 235.547,46.3061 247,25.5C 255.617,12.2906 267.45,3.62392 282.5,-0.5 Z M 289.5,19.5 C 307.807,19.4034 320.64,27.7367 328,44.5C 330.449,50.6297 332.116,56.963 333,63.5C 334.935,67.8019 338.268,69.8019 343,69.5C 348.752,68.7487 354.418,67.7487 360,66.5C 384.733,65.9067 399.233,77.7401 403.5,102C 400.656,115.846 393.989,127.513 383.5,137C 366.29,151.183 347.29,162.516 326.5,171C 306.621,178.071 286.621,184.737 266.5,191C 263.278,195.051 262.611,199.551 264.5,204.5C 257.367,204.63 253.367,208.296 252.5,215.5C 261.276,251.43 263.443,287.763 259,324.5C 256.784,339.161 251.451,352.494 243,364.5C 231.267,377.158 217.434,379.992 201.5,373C 187.661,363.5 179.827,350.333 178,333.5C 176.387,329.106 173.22,326.772 168.5,326.5C 152.952,331.454 137.952,330.287 123.5,323C 105.91,309.121 103.077,292.621 115,273.5C 124.947,260.887 136.781,250.387 150.5,242C 178.843,226.329 208.843,214.996 240.5,208C 248.041,204.709 250.041,199.376 246.5,192C 253.587,192.239 257.587,188.906 258.5,182C 251.158,150.906 248.325,119.406 250,87.5C 251.046,67.9646 256.713,49.9646 267,33.5C 272.757,25.8791 280.257,21.2124 289.5,19.5 Z M 143.5,45.5 C 155.984,44.4124 166.984,47.9124 176.5,56C 196.448,75.3671 211.282,98.2005 221,124.5C 228.689,145.065 234.855,166.065 239.5,187.5C 198.777,199.54 157.444,202.373 115.5,196C 100.262,193.489 87.0954,186.989 76,176.5C 62.8511,152.603 68.3511,134.103 92.5,121C 98.5409,118.24 104.874,116.573 111.5,116C 116.209,114.083 118.542,110.583 118.5,105.5C 114.616,92.4128 114.782,79.4128 119,66.5C 124.312,56.0111 132.479,49.0111 143.5,45.5 Z M 335.5,198.5 C 359.88,196.844 383.88,199.011 407.5,205C 420.559,209.079 431.059,216.579 439,227.5C 446.158,252.845 437.158,269.845 412,278.5C 407.199,279.794 402.366,280.96 397.5,282C 393.981,284.371 392.314,287.705 392.5,292C 393.873,298.941 394.873,305.941 395.5,313C 394.157,339.016 380.657,351.85 355,351.5C 342.5,347.341 331.834,340.341 323,330.5C 307.386,310.615 295.386,288.615 287,264.5C 280.81,246.565 275.643,228.398 271.5,210C 292.714,204.744 314.047,200.911 335.5,198.5 Z M 287.5,322.5 C 301.756,364.292 306.922,407.292 303,451.5C 301.11,465.055 298.277,478.389 294.5,491.5C 288.5,491.5 282.5,491.5 276.5,491.5C 288.531,435.703 292.198,379.37 287.5,322.5 Z"/></g>
</svg>
