<svg version="1.1" id="Layer_1" xmlns="http://www.w3.org/2000/svg" xmlns:xlink="http://www.w3.org/1999/xlink" x="0px" y="0px"
	 width="100%" viewBox="0 0 512 512" enable-background="new 0 0 512 512" xml:space="preserve">
<path fill="#000000" opacity="1.000000" stroke="none" 
	d="
M176.468658,513.000000 
	C171.711716,503.969910 172.793594,501.289124 182.079300,498.647400 
	C184.169708,498.052704 184.456711,496.782654 184.667084,494.999664 
	C185.795349,485.437317 185.958176,475.796661 186.450272,466.212280 
	C187.428726,447.154846 188.478531,428.101776 189.684174,409.058350 
	C190.173492,401.329651 187.096161,394.397156 185.106064,387.278290 
	C179.887344,368.610107 174.163452,350.083435 168.700928,331.482758 
	C168.080963,329.371704 167.231155,327.509033 165.856094,325.752136 
	C156.823212,314.210754 152.685150,300.983215 152.670029,286.410645 
	C152.645508,262.748383 152.341751,239.080154 152.780457,215.426025 
	C153.035233,201.689316 149.280869,188.501663 148.563080,174.938782 
	C148.417297,172.184174 146.221466,171.574387 143.919052,171.394333 
	C120.489487,169.562317 108.242950,154.642380 102.464798,134.394226 
	C101.602547,131.372681 102.546486,130.096222 105.004837,128.990097 
	C114.962265,124.509758 125.128098,121.279671 136.273071,123.315102 
	C136.830750,123.416954 137.485306,122.988457 138.656906,122.639435 
	C132.163330,119.100601 126.096031,115.950623 120.178261,112.541092 
	C98.224152,99.892143 82.004242,81.689964 70.756210,59.280949 
	C62.745567,43.321636 57.788193,26.279198 57.613865,8.142235 
	C57.590237,5.684275 58.063023,3.554518 59.847359,1.357028 
	C63.030594,1.000000 66.061188,1.000000 69.672661,1.364416 
	C73.042381,6.867057 72.546593,12.633511 73.512184,18.134903 
	C78.804588,48.288296 93.385208,72.961678 118.417152,92.757408 
	C117.564545,90.603851 117.244293,89.514969 116.726822,88.529655 
	C108.330040,72.541519 106.892036,55.310040 107.698151,37.702141 
	C107.887421,33.568020 109.418999,30.201965 114.210663,29.688313 
	C119.098694,29.164326 122.098938,31.237940 122.996246,36.362511 
	C123.535568,39.442623 123.513100,42.682678 123.303871,45.821575 
	C122.418533,59.103661 124.868050,71.565933 131.588715,83.177376 
	C136.568161,91.780502 142.867035,99.026108 152.014847,104.892662 
	C150.473724,94.224556 150.393677,84.310890 150.738129,74.404587 
	C150.944580,68.467270 153.819580,65.572746 158.703369,65.662827 
	C163.461761,65.750595 166.250259,68.994728 166.316086,74.763199 
	C166.395935,81.760468 166.257721,88.760704 166.374908,95.756958 
	C166.534241,105.269341 175.051147,114.410904 184.175247,115.699272 
	C198.284836,117.691620 208.320602,106.503586 208.626862,93.740387 
	C208.782700,87.245811 208.616760,80.744156 208.674942,74.246407 
	C208.729523,68.151810 210.870880,65.679985 215.916046,65.689606 
	C220.979019,65.699257 223.292679,68.250122 223.327744,74.145218 
	C223.386887,84.091827 223.343964,94.039040 223.343964,103.962219 
	C224.408295,104.272713 225.030487,103.650970 225.672302,103.165428 
	C239.096817,93.009285 247.321716,79.645912 250.673126,63.149734 
	C252.353470,54.878819 251.297028,46.562183 251.651505,38.273300 
	C251.920868,31.974691 255.433914,28.716591 261.147339,29.755531 
	C266.125122,30.660698 266.986511,34.669342 267.299744,38.773979 
	C267.807404,45.425858 266.741058,52.025822 266.426178,58.650982 
	C266.107056,65.365013 264.821503,71.788918 262.408386,78.016609 
	C260.738068,82.327301 258.988586,86.607315 256.751343,92.211426 
	C259.072144,90.293709 260.191254,89.318176 261.364594,88.412941 
	C262.676361,87.400848 264.165710,86.587730 265.357727,85.456200 
	C284.241241,67.530968 296.149872,45.863823 300.822754,20.152500 
	C301.987579,13.743214 300.877228,6.775599 305.000000,1.000000 
	C308.030609,1.000000 311.061188,1.000000 314.545898,1.000000 
	C319.373413,7.565607 317.056793,14.622836 316.031464,21.349075 
	C312.531982,44.306023 303.416046,65.015366 288.757385,82.970055 
	C274.026245,101.013542 255.876587,114.685127 233.736603,122.642151 
	C233.168137,122.846466 232.680359,123.275375 232.196381,123.874252 
	C244.781799,120.728088 256.441101,123.740936 267.955475,128.479813 
	C271.519501,129.946609 272.340881,132.108734 271.176270,135.395813 
	C264.591156,153.982376 254.977158,169.214294 229.815186,171.354477 
	C227.100937,171.585327 225.918030,172.805298 225.271027,175.594238 
	C220.472733,196.277420 228.069504,213.859100 239.754364,229.828323 
	C244.549622,236.381821 252.640778,239.612854 261.283752,239.628464 
	C281.283478,239.664581 301.283325,239.643341 321.283112,239.648041 
	C322.782959,239.648392 324.290710,239.574844 325.781281,239.698517 
	C331.122406,240.141708 334.424683,243.307846 334.187592,247.667114 
	C333.953247,251.974960 330.898804,254.350143 325.420502,254.356674 
	C304.254059,254.381912 283.077881,253.981430 261.923920,254.498367 
	C241.442139,254.998886 224.178619,241.058701 217.591095,223.398697 
	C216.559448,220.632996 215.922531,217.682404 213.830307,214.851685 
	C200.645432,228.911469 184.893951,228.840820 168.341492,222.771301 
	C166.849258,224.661255 167.378845,226.564270 167.374390,228.322388 
	C167.328796,246.322083 167.014481,264.330170 167.459518,282.318970 
	C167.773453,295.008026 169.430618,307.571564 179.144424,317.272461 
	C184.068451,322.189941 189.057297,327.017120 196.232727,329.948669 
	C195.291687,324.346375 193.277267,319.537201 189.617035,315.813080 
	C179.899948,305.926453 174.693115,294.438934 175.621918,280.402588 
	C175.819595,277.415405 175.590302,274.402405 175.681503,271.405090 
	C175.817551,266.934235 178.500137,263.984924 182.516418,263.734711 
	C186.431107,263.490814 190.015060,266.803070 190.258713,271.254517 
	C190.477036,275.243103 190.376266,279.252441 190.329605,283.251587 
	C190.254456,289.692383 192.009674,295.891571 196.626831,300.067322 
	C205.202881,307.823547 208.631943,318.261047 213.024460,328.219421 
	C221.189468,346.730560 228.971252,365.410370 237.081757,383.945923 
	C246.265259,404.933685 255.620560,425.846344 264.927734,446.779816 
	C271.942078,462.556244 279.011353,478.308289 286.026642,494.084320 
	C287.791687,498.053558 290.547516,499.632568 295.079285,498.014648 
	C294.294495,492.678192 291.655487,488.051300 289.583435,483.267914 
	C282.395599,466.674408 274.830566,450.241638 267.824921,433.572937 
	C263.817139,424.037170 262.980469,413.717377 261.428864,403.542999 
	C260.236023,395.721039 262.696381,390.011902 266.970337,383.886261 
	C277.303040,369.076874 280.322052,352.703156 275.453094,335.094635 
	C274.217865,330.627380 273.463318,325.913391 277.547363,322.638916 
	C281.791138,319.236420 286.543701,320.242584 291.145050,322.573181 
	C305.122986,329.652954 320.034485,332.502625 335.614380,333.909149 
	C351.653961,335.357147 366.535675,332.635559 381.222717,326.701019 
	C389.193848,323.480103 395.497589,326.660461 396.552399,336.085602 
	C398.133453,350.212677 400.311005,364.333862 409.123413,376.408600 
	C412.796906,381.441956 418.401154,384.284149 421.936798,389.525330 
	C427.122040,397.211884 430.345551,405.263397 430.341797,414.566223 
	C430.331146,440.899292 430.333618,467.232391 430.376434,493.565399 
	C430.379974,495.740448 429.585938,498.595428 433.384644,498.604797 
	C436.984222,498.613708 436.638824,495.998627 436.641785,493.670197 
	C436.661163,478.337036 436.651733,463.003845 436.668182,447.670685 
	C436.680481,436.188934 439.077026,424.946136 440.146759,413.568848 
	C440.781799,406.814758 441.837830,400.101166 442.603180,393.357880 
	C442.808105,391.552551 442.693390,389.843719 440.964386,388.434357 
	C431.877380,381.027527 428.719452,371.102356 427.375244,359.690796 
	C426.281616,350.406372 430.315063,342.863159 432.868500,334.830383 
	C436.750488,322.618011 439.445526,310.334717 436.840149,297.650482 
	C432.315399,275.621643 418.411835,262.074432 396.934113,256.528381 
	C386.775848,253.905304 376.186554,254.288788 365.717377,254.372650 
	C359.008667,254.426407 356.613342,252.475800 356.678314,247.297485 
	C356.737244,242.599915 360.112091,239.650436 365.795135,239.659439 
	C380.178223,239.682190 394.670410,238.501236 408.186096,243.683502 
	C410.173279,241.884903 409.601257,240.109131 409.620575,238.523376 
	C409.691681,232.690948 409.684998,226.856903 409.640656,221.023972 
	C409.610382,217.042496 410.035400,213.527863 414.250214,211.389725 
	C419.158630,208.899796 423.712524,209.344269 427.655487,212.737808 
	C443.123779,226.050797 452.344757,242.507034 452.328796,263.412323 
	C452.320129,274.745544 451.422882,286.169250 452.540070,297.391541 
	C454.389923,315.973877 450.003357,333.211700 443.841858,350.315216 
	C440.434753,359.772858 442.422516,368.851318 449.647369,374.936768 
	C458.307617,382.231262 457.968384,391.029938 457.064606,400.292542 
	C455.795837,413.296082 453.705597,426.218750 452.396057,439.219208 
	C449.953827,463.463928 452.050323,487.803772 451.121155,512.544312 
	C436.645782,513.000000 422.291534,513.000000 407.358490,512.633423 
	C403.819031,503.545197 404.656311,501.618408 413.129333,498.671875 
	C414.855469,498.071564 415.611664,497.204041 415.612579,495.510925 
	C415.617981,485.623505 415.615234,475.736115 415.615234,465.848694 
	C411.503815,476.378265 408.245056,487.027588 405.369141,497.779358 
	C404.029846,502.786560 401.342316,507.539673 402.000000,513.000000 
	C387.979095,513.000000 373.958221,513.000000 359.285736,512.660767 
	C354.239502,504.694397 357.102051,498.965088 365.637482,498.726654 
	C368.824860,498.637634 370.107544,497.679352 370.962097,494.391510 
	C376.175598,474.333130 381.725403,454.361938 387.189148,434.368835 
	C389.215393,426.954193 391.467072,419.584534 386.750000,412.278351 
	C384.384491,408.614441 381.842224,404.971802 378.322235,402.510895 
	C369.924072,396.639709 366.193268,387.774017 362.456573,378.917694 
	C361.260132,376.081940 360.182007,374.872345 356.777008,375.271179 
	C336.031097,377.701050 315.379791,376.750031 295.012024,372.101868 
	C291.011200,371.188812 289.487976,372.373444 288.389679,375.713867 
	C286.249390,382.223511 283.375488,388.436584 279.089172,393.772614 
	C276.525696,396.963898 275.917908,400.339020 276.460449,404.027527 
	C277.109344,408.439240 278.056091,412.814636 279.039032,417.168457 
	C283.323181,436.144745 293.718506,452.640350 300.823273,470.477386 
	C306.525818,484.793976 313.605865,498.539490 319.000000,513.000000 
	C300.979095,513.000000 282.958221,513.000000 264.301544,512.656372 
	C259.323090,505.299622 260.863953,501.632965 270.790771,497.420837 
	C258.062836,469.004272 245.342712,440.605194 232.622589,412.206116 
	C232.320862,412.314484 232.019135,412.422852 231.717407,412.531250 
	C227.811600,446.020813 223.905792,479.510406 220.000000,513.000000 
	C205.645767,513.000000 191.291550,513.000000 176.468658,513.000000 
M160.650787,150.270325 
	C162.075699,161.507339 163.500610,172.744354 165.027847,184.788376 
	C179.637802,174.712906 193.866272,174.412430 207.869141,184.249710 
	C209.014648,182.680267 209.543610,181.358734 209.647842,179.796326 
	C210.210037,171.369446 211.373398,163.014038 212.519516,154.647827 
	C214.477554,140.355103 208.075394,130.387039 192.113632,131.340286 
	C187.798309,131.597992 183.454330,131.370270 179.123535,131.376373 
	C167.745361,131.392410 161.009033,137.915009 160.650787,150.270325 
M189.471603,348.266083 
	C193.415634,361.619385 197.476944,374.939728 201.243637,388.342865 
	C202.669800,393.417664 205.750183,398.388031 204.940857,403.678253 
	C203.803696,411.111542 204.278717,418.569122 203.591446,426.006683 
	C202.142899,441.682739 202.444733,457.516846 201.126312,473.210297 
	C200.541367,480.172974 200.987427,487.163452 199.954361,494.061462 
	C199.635269,496.192261 198.997757,498.157104 202.003662,498.557251 
	C204.339523,498.868164 206.366959,498.586700 206.758484,495.598816 
	C207.337997,491.176178 208.135742,486.779053 208.611084,482.346466 
	C210.376373,465.884735 211.698410,449.367157 213.847580,432.957092 
	C216.246292,414.641449 217.810791,396.395691 215.744476,377.923096 
	C214.221725,364.309692 202.705444,349.704437 189.201721,345.195862 
	C189.281219,346.015686 189.360718,346.835510 189.471603,348.266083 
M378.135315,344.337463 
	C349.507446,353.472565 321.325745,349.623688 293.435669,341.073303 
	C291.667084,343.652435 292.392181,346.221710 292.363953,348.637848 
	C292.273651,356.372437 292.364288,356.221283 299.995911,357.702881 
	C308.290009,359.313110 316.664764,360.017517 325.040649,360.968384 
	C344.320435,363.156952 362.625458,359.817352 380.656494,353.485718 
	C384.362793,352.184296 382.558563,349.452881 382.585052,347.240204 
	C382.613495,344.860596 381.614258,343.343353 378.135315,344.337463 
M389.340332,485.528595 
	C388.735657,489.779083 385.473175,493.710114 387.088318,498.447876 
	C390.143219,498.009521 389.823303,495.826996 390.229187,494.449066 
	C397.767212,468.858978 404.852631,443.129211 412.827118,417.677551 
	C415.590607,408.857422 413.126678,402.317352 407.301514,396.585571 
	C398.832947,388.252838 390.854004,379.718719 387.504303,367.675842 
	C385.291687,368.322784 383.550659,368.763428 381.855804,369.339752 
	C376.036194,371.318756 375.768188,371.999146 378.273468,377.444031 
	C380.810303,382.957550 384.097656,387.994873 388.989227,391.604858 
	C392.261444,394.019745 395.094391,396.729889 397.269073,400.073090 
	C403.102081,409.040283 407.063629,418.609314 404.230957,429.536438 
	C399.453217,447.966980 394.384979,466.322235 389.340332,485.528595 
M187.421997,192.348618 
	C180.463776,192.065674 176.007736,195.781967 172.709442,201.452713 
	C171.613174,203.337509 171.966751,204.718384 173.409546,206.292053 
	C179.522552,212.959595 193.869965,213.141754 200.046722,206.638107 
	C201.805038,204.786758 202.248459,202.917007 200.838425,200.867828 
	C197.770889,196.409790 194.243423,192.528412 187.421997,192.348618 
M230.232880,141.964035 
	C226.392410,146.276749 229.224442,151.467438 227.454544,156.177826 
	C239.022369,156.105988 250.780243,147.431885 251.664948,139.344742 
	C244.410934,136.922653 237.528748,137.864334 230.232880,141.964035 
M124.842072,145.695023 
	C129.984619,152.096558 136.760300,155.339294 144.795227,156.237503 
	C146.952087,148.508713 145.973434,143.704147 141.788681,141.008240 
	C136.275909,137.456787 125.562546,137.119675 121.652573,140.503922 
	C122.544197,142.040741 123.454773,143.610245 124.842072,145.695023 
M434.178070,247.237717 
	C432.196930,241.883942 429.452271,237.041031 424.587036,232.085999 
	C424.415588,242.987335 421.426422,253.348114 433.269257,258.991394 
	C434.759827,259.701660 435.787323,261.383636 437.133331,262.718475 
	C436.833832,257.497101 436.224335,252.626022 434.178070,247.237717 
z"/>
</svg>