<?xml version="1.0" encoding="UTF-8"?>
<!DOCTYPE svg PUBLIC "-//W3C//DTD SVG 1.1//EN" "http://www.w3.org/Graphics/SVG/1.1/DTD/svg11.dtd">
<svg xmlns="http://www.w3.org/2000/svg" version="1.1" width="512px" height="512px" style="shape-rendering:geometricPrecision; text-rendering:geometricPrecision; image-rendering:optimizeQuality; fill-rule:evenodd; clip-rule:evenodd" xmlns:xlink="http://www.w3.org/1999/xlink">
<g><path style="opacity:0.942" fill="#000000" d="M 246.5,7.5 C 256.822,6.16915 266.489,8.00248 275.5,13C 305.09,35.3787 334.59,57.8787 364,80.5C 381.333,61.1667 398.667,41.8333 416,22.5C 427.547,8.65246 442.047,4.15246 459.5,9C 479.354,17.8734 487.188,33.0401 483,54.5C 481.607,58.2857 479.941,61.9523 478,65.5C 458.097,84.7399 437.597,103.24 416.5,121C 440.881,140.383 465.548,159.383 490.5,178C 503.86,188.935 506.693,202.102 499,217.5C 491.662,226.56 482.162,230.227 470.5,228.5C 470.667,319.167 470.5,409.834 470,500.5C 468.681,502.487 466.848,503.654 464.5,504C 325.167,504.667 185.833,504.667 46.5,504C 44.6711,503.727 43.1711,502.893 42,501.5C 40.5051,410.248 40.0051,318.915 40.5,227.5C 21.2511,229.247 10.2511,220.58 7.5,201.5C 7.6544,191.691 11.6544,183.858 19.5,178C 30.3333,169.833 41.1667,161.667 52,153.5C 52.5,122.835 52.6666,92.1685 52.5,61.5C 48.0638,61.7899 43.7305,61.2899 39.5,60C 38.2986,59.0975 37.4652,57.9308 37,56.5C 36.3333,42.1667 36.3333,27.8333 37,13.5C 37.8333,12 39,10.8333 40.5,10C 76.1667,9.33333 111.833,9.33333 147.5,10C 148.333,10.8333 149.167,11.6667 150,12.5C 151.615,26.7646 151.948,41.0979 151,55.5C 148.371,60.5639 144.204,62.5639 138.5,61.5C 138.169,69.5277 138.502,77.5277 139.5,85.5C 169.976,62.1912 200.31,38.6912 230.5,15C 235.542,11.6426 240.876,9.14258 246.5,7.5 Z M 250.5,23.5 C 256.189,23.0891 261.522,24.2558 266.5,27C 294.833,48.6667 323.167,70.3333 351.5,92C 352.451,92.7175 352.617,93.5509 352,94.5C 348.283,98.7616 344.45,102.928 340.5,107C 339.092,107.315 337.759,106.982 336.5,106C 310.833,86.3333 285.167,66.6667 259.5,47C 256.833,46.3333 254.167,46.3333 251.5,47C 180.833,101.333 110.167,155.667 39.5,210C 28.5514,212.941 23.7181,208.774 25,197.5C 26.7932,194.705 28.9598,192.205 31.5,190C 44.2424,180.25 57.2424,170.916 70.5,162C 127.903,115.934 185.903,70.6006 244.5,26C 246.723,25.4338 248.723,24.6005 250.5,23.5 Z M 443.5,23.5 C 457.548,23.3885 465.548,30.2219 467.5,44C 467.595,49.0488 466.095,53.5488 463,57.5C 416.202,98.6291 369.702,140.129 323.5,182C 321.945,183.289 320.279,183.956 318.5,184C 315.286,179.118 311.119,175.285 306,172.5C 305.333,171.833 305.333,171.167 306,170.5C 347.074,126.096 387.408,81.0962 427,35.5C 431.334,29.6326 436.834,25.6326 443.5,23.5 Z M 52.5,25.5 C 79.8333,25.5 107.167,25.5 134.5,25.5C 134.5,31.8333 134.5,38.1667 134.5,44.5C 107.167,44.5 79.8333,44.5 52.5,44.5C 52.5,38.1667 52.5,31.8333 52.5,25.5 Z M 69.5,62.5 C 86.8333,62.5 104.167,62.5 121.5,62.5C 121.667,74.8378 121.5,87.1712 121,99.5C 104,112.833 87,126.167 70,139.5C 69.5,113.835 69.3334,88.1688 69.5,62.5 Z M 254.5,65.5 C 279.286,83.7386 303.953,102.239 328.5,121C 314.833,136 301.167,151 287.5,166C 261.742,166.791 245.576,179.624 239,204.5C 236.645,212.061 234.811,219.727 233.5,227.5C 193.832,227.333 154.165,227.5 114.5,228C 102.559,231.608 95.0586,239.441 92,251.5C 91.5,276.498 91.3334,301.498 91.5,326.5C 86.1563,326.334 80.8229,326.501 75.5,327C 73.3333,327.833 71.8333,329.333 71,331.5C 70.3333,365.833 70.3333,400.167 71,434.5C 71.7845,436.286 72.9512,437.786 74.5,439C 83.8274,439.5 93.1607,439.666 102.5,439.5C 102.333,450.172 102.5,460.839 103,471.5C 104.214,473.049 105.714,474.215 107.5,475C 121.5,475.667 135.5,475.667 149.5,475C 150.931,474.535 152.097,473.701 153,472.5C 154.454,461.603 154.954,450.603 154.5,439.5C 173.833,439.5 193.167,439.5 212.5,439.5C 212.046,450.603 212.546,461.603 214,472.5C 214.903,473.701 216.069,474.535 217.5,475C 231.5,475.667 245.5,475.667 259.5,475C 260.931,474.535 262.097,473.701 263,472.5C 264.454,461.603 264.954,450.603 264.5,439.5C 273.839,439.666 283.173,439.5 292.5,439C 294.815,437.891 296.315,436.057 297,433.5C 297.667,399.833 297.667,366.167 297,332.5C 296.315,329.943 294.815,328.109 292.5,327C 287.511,326.501 282.511,326.334 277.5,326.5C 277.333,302.498 277.5,278.498 278,254.5C 284.02,252.272 290.187,250.439 296.5,249C 317.199,240.134 327.199,224.3 326.5,201.5C 342.851,186.648 359.351,171.981 376,157.5C 401.819,178.075 427.819,198.408 454,218.5C 454.5,308.166 454.667,397.833 454.5,487.5C 321.833,487.5 189.167,487.5 56.5,487.5C 56.3333,397.499 56.5,307.499 57,217.5C 123.019,166.97 188.852,116.303 254.5,65.5 Z M 402.5,133.5 C 403.552,133.351 404.552,133.517 405.5,134C 429.653,152.909 453.986,171.576 478.5,190C 481.372,192.537 483.872,195.37 486,198.5C 487.531,206.11 484.531,210.776 477,212.5C 474.679,212.091 472.513,211.257 470.5,210C 443.833,189.333 417.167,168.667 390.5,148C 389.549,147.282 389.383,146.449 390,145.5C 394.669,141.997 398.836,137.997 402.5,133.5 Z M 192.5,154.5 C 195.268,157.842 197.934,161.342 200.5,165C 203.167,166.333 205.833,167.667 208.5,169C 206.099,171.062 203.433,172.729 200.5,174C 198.045,177.078 195.711,180.244 193.5,183.5C 191.301,180.282 188.967,177.116 186.5,174C 183.567,172.729 180.901,171.062 178.5,169C 186.083,166.918 190.75,162.084 192.5,154.5 Z M 282.5,182.5 C 306.401,186.637 313.901,199.971 305,222.5C 301.574,227.306 297.074,230.806 291.5,233C 276.506,236.562 261.839,241.062 247.5,246.5C 248.727,227.967 253.56,210.3 262,193.5C 267.587,187.293 274.421,183.626 282.5,182.5 Z M 361.5,242.5 C 372.415,242.18 383.248,242.513 394,243.5C 402.5,264.5 411,285.5 419.5,306.5C 391.506,307.667 363.506,307.833 335.5,307C 344.585,285.663 353.252,264.163 361.5,242.5 Z M 118.5,243.5 C 155.5,243.5 192.5,243.5 229.5,243.5C 227.946,250.428 227.446,257.428 228,264.5C 230.707,268.035 234.207,269.202 238.5,268C 245.932,264.468 253.599,261.634 261.5,259.5C 261.5,281.833 261.5,304.167 261.5,326.5C 243.011,321.991 235.677,328.991 239.5,347.5C 202.167,347.5 164.833,347.5 127.5,347.5C 127.666,341.824 127.499,336.157 127,330.5C 125.833,329.333 124.667,328.167 123.5,327C 118.177,326.501 112.844,326.334 107.5,326.5C 107.333,303.164 107.5,279.831 108,256.5C 109.496,250.509 112.996,246.175 118.5,243.5 Z M 180.5,284.5 C 183.373,289.867 187.706,293.7 193.5,296C 191.33,297.586 188.996,298.92 186.5,300C 184.789,302.589 182.955,305.089 181,307.5C 179.92,305.004 178.586,302.67 177,300.5C 174.417,299.126 171.917,297.626 169.5,296C 175.416,294.252 179.083,290.419 180.5,284.5 Z M 370.5,324.5 C 375.833,324.5 381.167,324.5 386.5,324.5C 386.5,360.167 386.5,395.833 386.5,431.5C 381.167,431.5 375.833,431.5 370.5,431.5C 370.5,395.833 370.5,360.167 370.5,324.5 Z M 86.5,342.5 C 94.8333,342.5 103.167,342.5 111.5,342.5C 111.333,359.503 111.5,376.503 112,393.5C 112.465,394.931 113.299,396.097 114.5,397C 137.581,398.157 160.748,398.657 184,398.5C 207.252,398.657 230.419,398.157 253.5,397C 254.126,396.25 254.626,395.416 255,394.5C 255.5,377.17 255.667,359.837 255.5,342.5C 263.833,342.5 272.167,342.5 280.5,342.5C 280.5,369.5 280.5,396.5 280.5,423.5C 215.833,423.5 151.167,423.5 86.5,423.5C 86.5,396.5 86.5,369.5 86.5,342.5 Z M 127.5,363.5 C 164.833,363.5 202.167,363.5 239.5,363.5C 239.5,369.833 239.5,376.167 239.5,382.5C 202.167,382.5 164.833,382.5 127.5,382.5C 127.5,376.167 127.5,369.833 127.5,363.5 Z M 118.5,439.5 C 124.833,439.5 131.167,439.5 137.5,439.5C 137.5,446.167 137.5,452.833 137.5,459.5C 131.167,459.5 124.833,459.5 118.5,459.5C 118.5,452.833 118.5,446.167 118.5,439.5 Z M 228.5,439.5 C 235.167,439.5 241.833,439.5 248.5,439.5C 248.5,446.167 248.5,452.833 248.5,459.5C 241.833,459.5 235.167,459.5 228.5,459.5C 228.5,452.833 228.5,446.167 228.5,439.5 Z M 346.5,448.5 C 367.5,448.5 388.5,448.5 409.5,448.5C 409.5,452.5 409.5,456.5 409.5,460.5C 388.5,460.5 367.5,460.5 346.5,460.5C 346.5,456.5 346.5,452.5 346.5,448.5 Z"/></g>
<g><path style="opacity:0.927" fill="#000000" d="M 190.5,128.5 C 193.32,128.248 195.986,128.748 198.5,130C 203.045,136.921 207.212,144.088 211,151.5C 218.076,154.953 224.909,158.787 231.5,163C 235.5,167.333 235.5,171.667 231.5,176C 224.833,179.667 218.167,183.333 211.5,187C 207.54,193.752 203.707,200.586 200,207.5C 195.667,211.5 191.333,211.5 187,207.5C 183.333,200.833 179.667,194.167 176,187.5C 169.248,183.54 162.414,179.707 155.5,176C 151.323,171.046 151.657,166.38 156.5,162C 163.75,158.461 170.583,154.294 177,149.5C 180,143.833 183,138.167 186,132.5C 187.397,130.93 188.897,129.596 190.5,128.5 Z M 192.5,154.5 C 190.75,162.084 186.083,166.918 178.5,169C 180.901,171.062 183.567,172.729 186.5,174C 188.967,177.116 191.301,180.282 193.5,183.5C 195.711,180.244 198.045,177.078 200.5,174C 203.433,172.729 206.099,171.062 208.5,169C 205.833,167.667 203.167,166.333 200.5,165C 197.934,161.342 195.268,157.842 192.5,154.5 Z"/></g>
<g><path style="opacity:0.932" fill="#000000" d="M 353.5,225.5 C 369.837,225.333 386.17,225.5 402.5,226C 403.5,226.833 404.5,227.667 405.5,228.5C 417.276,256.386 428.776,284.386 440,312.5C 441.478,321.376 437.645,325.376 428.5,324.5C 428.667,346.503 428.5,368.503 428,390.5C 424.931,396.549 420.431,397.882 414.5,394.5C 413.416,393.335 412.583,392.002 412,390.5C 411.5,368.503 411.333,346.503 411.5,324.5C 408.5,324.5 405.5,324.5 402.5,324.5C 402.5,360.167 402.5,395.833 402.5,431.5C 419.902,429.568 427.569,437.235 425.5,454.5C 425.333,458.833 425.167,463.167 425,467.5C 422.794,473.192 418.627,476.359 412.5,477C 389.5,477.667 366.5,477.667 343.5,477C 337.428,476.377 333.261,473.21 331,467.5C 330.333,458.833 330.333,450.167 331,441.5C 332.442,437.725 334.942,434.892 338.5,433C 343.434,431.84 348.434,431.34 353.5,431.5C 353.5,395.833 353.5,360.167 353.5,324.5C 342.495,324.667 331.495,324.5 320.5,324C 316.969,322.471 314.969,319.804 314.5,316C 325.801,287.101 337.301,258.267 349,229.5C 350.397,227.93 351.897,226.596 353.5,225.5 Z M 361.5,242.5 C 353.252,264.163 344.585,285.663 335.5,307C 363.506,307.833 391.506,307.667 419.5,306.5C 411,285.5 402.5,264.5 394,243.5C 383.248,242.513 372.415,242.18 361.5,242.5 Z M 370.5,324.5 C 370.5,360.167 370.5,395.833 370.5,431.5C 375.833,431.5 381.167,431.5 386.5,431.5C 386.5,395.833 386.5,360.167 386.5,324.5C 381.167,324.5 375.833,324.5 370.5,324.5 Z M 346.5,448.5 C 346.5,452.5 346.5,456.5 346.5,460.5C 367.5,460.5 388.5,460.5 409.5,460.5C 409.5,456.5 409.5,452.5 409.5,448.5C 388.5,448.5 367.5,448.5 346.5,448.5 Z"/></g>
<g><path style="opacity:0.929" fill="#000000" d="M 177.5,258.5 C 180.187,258.336 182.854,258.503 185.5,259C 190.294,265.417 194.461,272.25 198,279.5C 203.913,282.54 209.747,285.706 215.5,289C 218.803,292.795 219.303,296.962 217,301.5C 211.081,305.544 204.914,309.211 198.5,312.5C 194.667,318.833 190.833,325.167 187,331.5C 183.284,333.934 179.451,334.101 175.5,332C 171.873,325.915 168.373,319.748 165,313.5C 158.747,309.289 152.247,305.455 145.5,302C 142.633,297.409 142.966,293.076 146.5,289C 153.577,286.049 160.077,282.215 166,277.5C 168.667,272.167 171.333,266.833 174,261.5C 175.145,260.364 176.312,259.364 177.5,258.5 Z M 180.5,284.5 C 179.083,290.419 175.416,294.252 169.5,296C 171.917,297.626 174.417,299.126 177,300.5C 178.586,302.67 179.92,305.004 181,307.5C 182.955,305.089 184.789,302.589 186.5,300C 188.996,298.92 191.33,297.586 193.5,296C 187.706,293.7 183.373,289.867 180.5,284.5 Z"/></g>
</svg>
