<?xml version="1.0" encoding="UTF-8"?>
<!DOCTYPE svg PUBLIC "-//W3C//DTD SVG 1.1//EN" "http://www.w3.org/Graphics/SVG/1.1/DTD/svg11.dtd">
<svg xmlns="http://www.w3.org/2000/svg" version="1.1" width="512px" height="512px" style="shape-rendering:geometricPrecision; text-rendering:geometricPrecision; image-rendering:optimizeQuality; fill-rule:evenodd; clip-rule:evenodd" xmlns:xlink="http://www.w3.org/1999/xlink">
<g><path style="opacity:0.927" fill="#000000" d="M -0.5,353.5 C -0.5,342.5 -0.5,331.5 -0.5,320.5C 1.2843,310.782 3.7843,301.115 7,291.5C 25.197,241.243 43.197,190.909 61,140.5C 75.1823,105.824 100.682,84.9908 137.5,78C 213.145,76.361 288.812,76.0276 364.5,77C 409.039,82.1897 438.539,106.023 453,148.5C 463.464,177.392 473.631,206.392 483.5,235.5C 482.572,241.967 478.905,244.467 472.5,243C 471.069,242.535 469.903,241.701 469,240.5C 456.393,205.346 443.393,170.346 430,135.5C 415.294,110.479 393.461,96.3127 364.5,93C 291.833,92.3333 219.167,92.3333 146.5,93C 117.539,96.3127 95.7059,110.479 81,135.5C 60.0761,191.271 39.7427,247.271 20,303.5C 16.7605,314.604 14.9271,325.937 14.5,337.5C 15.7935,349.913 17.2935,362.246 19,374.5C 17.4714,377.516 14.9714,378.849 11.5,378.5C 8.67532,378.881 6.50866,377.881 5,375.5C 2.57683,368.188 0.743492,360.855 -0.5,353.5 Z M 133.5,128.5 C 139.167,128.5 144.833,128.5 150.5,128.5C 145.167,151.833 154.167,160.833 177.5,155.5C 177.5,161.167 177.5,166.833 177.5,172.5C 169.721,172.068 162.054,172.568 154.5,174C 153.333,175.167 152.167,176.333 151,177.5C 150.5,184.826 150.334,192.159 150.5,199.5C 144.833,199.5 139.167,199.5 133.5,199.5C 133.666,193.158 133.5,186.825 133,180.5C 132.573,176.473 130.406,173.973 126.5,173C 119.508,172.5 112.508,172.334 105.5,172.5C 105.5,166.833 105.5,161.167 105.5,155.5C 128.635,160.698 137.968,151.698 133.5,128.5 Z M 251.5,141.5 C 260.077,140.038 265.91,143.371 269,151.5C 270.028,157.951 267.861,163.118 262.5,167C 251.185,170.51 244.185,166.51 241.5,155C 242.399,148.613 245.732,144.113 251.5,141.5 Z"/></g>
<g><path style="opacity:0.936" fill="#000000" d="M 126.5,112.5 C 136.506,112.334 146.506,112.5 156.5,113C 160.275,114.442 163.108,116.942 165,120.5C 165.5,126.825 165.666,133.158 165.5,139.5C 186.071,135.25 195.404,143.417 193.5,164C 195.404,184.583 186.071,192.75 165.5,188.5C 170.09,208.729 162.257,217.729 142,215.5C 121.218,218.212 113.052,209.212 117.5,188.5C 97.2032,192.55 87.8699,184.383 89.5,164C 87.6145,143.397 96.9478,135.231 117.5,139.5C 117.334,133.491 117.501,127.491 118,121.5C 119.688,117.315 122.521,114.315 126.5,112.5 Z M 133.5,128.5 C 137.968,151.698 128.635,160.698 105.5,155.5C 105.5,161.167 105.5,166.833 105.5,172.5C 112.508,172.334 119.508,172.5 126.5,173C 130.406,173.973 132.573,176.473 133,180.5C 133.5,186.825 133.666,193.158 133.5,199.5C 139.167,199.5 144.833,199.5 150.5,199.5C 150.334,192.159 150.5,184.826 151,177.5C 152.167,176.333 153.333,175.167 154.5,174C 162.054,172.568 169.721,172.068 177.5,172.5C 177.5,166.833 177.5,161.167 177.5,155.5C 154.167,160.833 145.167,151.833 150.5,128.5C 144.833,128.5 139.167,128.5 133.5,128.5 Z"/></g>
<g><path style="opacity:0.913" fill="#000000" d="M 363.5,124.5 C 376.769,122.603 382.602,128.27 381,141.5C 377.834,148.006 372.667,150.506 365.5,149C 357.808,146.118 354.974,140.618 357,132.5C 358.305,129.039 360.471,126.372 363.5,124.5 Z"/></g>
<g><path style="opacity:0.926" fill="#000000" d="M 248.5,125.5 C 265.571,123.277 277.405,129.943 284,145.5C 288.267,162.796 282.434,175.296 266.5,183C 240.975,187.797 227.475,177.297 226,151.5C 228.385,138.289 235.885,129.622 248.5,125.5 Z M 251.5,141.5 C 245.732,144.113 242.399,148.613 241.5,155C 244.185,166.51 251.185,170.51 262.5,167C 267.861,163.118 270.028,157.951 269,151.5C 265.91,143.371 260.077,140.038 251.5,141.5 Z"/></g>
<g><path style="opacity:0.911" fill="#000000" d="M 337.5,151.5 C 351.203,150.914 356.369,157.247 353,170.5C 347.569,177.035 341.069,178.201 333.5,174C 331.951,172.786 330.785,171.286 330,169.5C 327.425,161.168 329.925,155.168 337.5,151.5 Z"/></g>
<g><path style="opacity:0.911" fill="#000000" d="M 391.5,151.5 C 405.052,150.54 410.552,156.54 408,169.5C 404.155,175.667 398.655,177.834 391.5,176C 383.991,171.809 381.824,165.643 385,157.5C 387.063,155.266 389.229,153.266 391.5,151.5 Z"/></g>
<g><path style="opacity:0.913" fill="#000000" d="M 365.5,178.5 C 379.913,179.085 384.413,186.085 379,199.5C 377.786,201.049 376.286,202.215 374.5,203C 361.22,205.387 355.387,199.887 357,186.5C 359.098,182.897 361.932,180.23 365.5,178.5 Z"/></g>
<g><path style="opacity:0.925" fill="#000000" d="M 194.5,208.5 C 226.494,206.147 244.494,220.814 248.5,252.5C 245.908,279.592 231.074,294.592 204,297.5C 196.374,297.424 189.207,295.591 182.5,292C 178.405,284.73 180.239,279.896 188,277.5C 204.782,285.056 218.449,281.389 229,266.5C 235.711,250.843 232.211,238.009 218.5,228C 200.274,220.076 186.441,224.909 177,242.5C 176.044,249.196 175.044,255.862 174,262.5C 169.014,267.895 164.348,267.562 160,261.5C 157.287,234.411 168.787,216.744 194.5,208.5 Z"/></g>
<g><path style="opacity:0.926" fill="#000000" d="M 306.5,208.5 C 331.961,205.638 349.461,215.972 359,239.5C 363.863,259.578 358.363,276.078 342.5,289C 319.124,302.525 298.29,299.358 280,279.5C 268.4,260.919 268.733,242.585 281,224.5C 287.907,216.472 296.407,211.138 306.5,208.5 Z M 314.5,223.5 C 337.739,226.561 347.239,239.561 343,262.5C 334.247,279.865 320.747,285.031 302.5,278C 286.505,266.684 283.338,252.518 293,235.5C 298.74,228.718 305.907,224.718 314.5,223.5 Z"/></g>
<g><path style="opacity:0.925" fill="#000000" d="M 511.5,321.5 C 511.5,332.167 511.5,342.833 511.5,353.5C 507.854,377.464 498.687,399.131 484,418.5C 462.02,437.847 438.853,439.347 414.5,423C 409.742,418.633 405.575,413.8 402,408.5C 385.667,385.5 369.333,362.5 353,339.5C 348.714,333.276 342.881,329.443 335.5,328C 280.788,327.017 226.122,327.35 171.5,329C 166.142,331.354 161.642,334.854 158,339.5C 139.667,365.167 121.333,390.833 103,416.5C 83.7641,435.733 61.9308,439.233 37.5,427C 29.6362,422.102 23.4696,415.602 19,407.5C 16.2028,396.964 20.0361,393.13 30.5,396C 33.9255,400.848 37.5922,405.515 41.5,410C 59.254,422.361 75.754,420.861 91,405.5C 109.333,379.833 127.667,354.167 146,328.5C 153.081,319.542 162.247,314.042 173.5,312C 228.167,311.333 282.833,311.333 337.5,312C 348.753,314.042 357.919,319.542 365,328.5C 384.394,356.562 404.561,384.062 425.5,411C 444.224,422.689 460.724,420.189 475,403.5C 493.213,376.772 499.546,347.439 494,315.5C 489.605,299.98 484.605,284.647 479,269.5C 478.902,260.623 483.069,257.789 491.5,261C 501.082,280.244 507.748,300.411 511.5,321.5 Z"/></g>
</svg>
