<?xml version="1.0" encoding="UTF-8"?>
<!DOCTYPE svg PUBLIC "-//W3C//DTD SVG 1.1//EN" "http://www.w3.org/Graphics/SVG/1.1/DTD/svg11.dtd">
<svg xmlns="http://www.w3.org/2000/svg" version="1.1" width="512px" height="512px" style="shape-rendering:geometricPrecision; text-rendering:geometricPrecision; image-rendering:optimizeQuality; fill-rule:evenodd; clip-rule:evenodd" xmlns:xlink="http://www.w3.org/1999/xlink">
<g><path style="opacity:0.991" fill="#000000" d="M 117.5,-0.5 C 129.5,-0.5 141.5,-0.5 153.5,-0.5C 163.326,2.4884 170.159,8.82173 174,18.5C 175.446,32.0934 175.946,45.76 175.5,59.5C 225.501,59.3333 275.501,59.5 325.5,60C 331.864,64.3396 333.031,69.8396 329,76.5C 328.097,77.7014 326.931,78.5348 325.5,79C 305.503,79.5 285.503,79.6666 265.5,79.5C 265.5,143.833 265.5,208.167 265.5,272.5C 328.833,272.5 392.167,272.5 455.5,272.5C 455.667,211.499 455.5,150.499 455,89.5C 454.5,83.6667 451.333,80.5 445.5,80C 431.739,79.9649 418.073,79.2982 404.5,78C 399.167,72.3333 399.167,66.6667 404.5,61C 420.741,59.3637 437.075,59.0304 453.5,60C 464.667,63.1667 471.833,70.3333 475,81.5C 475.667,165.5 475.667,249.5 475,333.5C 471.833,344.667 464.667,351.833 453.5,355C 410.835,355.5 368.168,355.667 325.5,355.5C 327.184,366.427 325.017,376.427 319,385.5C 312.624,392.271 304.791,395.605 295.5,395.5C 295.667,432.502 295.5,469.502 295,506.5C 293.634,508.362 292.134,510.028 290.5,511.5C 267.167,511.5 243.833,511.5 220.5,511.5C 218.866,510.028 217.366,508.362 216,506.5C 215.5,498.173 215.334,489.84 215.5,481.5C 181.833,481.5 148.167,481.5 114.5,481.5C 110.134,497.199 100.134,507.199 84.5,511.5C 69.8333,511.5 55.1667,511.5 40.5,511.5C 38.8657,510.028 37.3657,508.362 36,506.5C 35.3333,483.167 35.3333,459.833 36,436.5C 37.1667,434.667 38.6667,433.167 40.5,432C 55.1667,431.333 69.8333,431.333 84.5,432C 100.315,435.982 110.315,445.816 114.5,461.5C 148.167,461.5 181.833,461.5 215.5,461.5C 215.5,439.5 215.5,417.5 215.5,395.5C 200.505,395.086 190.672,387.753 186,373.5C 185.501,367.509 185.334,361.509 185.5,355.5C 142.832,355.667 100.165,355.5 57.5,355C 46.3333,351.833 39.1667,344.667 36,333.5C 35.3333,249.5 35.3333,165.5 36,81.5C 38.6699,71.4974 44.8366,64.664 54.5,61C 68.0934,59.5542 81.76,59.0542 95.5,59.5C 95.0542,45.76 95.5542,32.0934 97,18.5C 100.841,8.82173 107.674,2.4884 117.5,-0.5 Z M 125.5,19.5 C 132.175,19.3337 138.842,19.5004 145.5,20C 151.333,20.5 154.5,23.6667 155,29.5C 155.5,39.4944 155.666,49.4944 155.5,59.5C 142.167,59.5 128.833,59.5 115.5,59.5C 115.334,49.4944 115.5,39.4944 116,29.5C 116.679,23.6569 119.846,20.3236 125.5,19.5 Z M 65.5,79.5 C 125.5,79.5 185.5,79.5 245.5,79.5C 245.333,148.834 245.5,218.167 246,287.5C 247.167,289.333 248.667,290.833 250.5,292C 318.833,292.5 387.166,292.667 455.5,292.5C 455.667,303.505 455.5,314.505 455,325.5C 454.167,331 451,334.167 445.5,335C 318.833,335.667 192.167,335.667 65.5,335C 59.6667,334.5 56.5,331.333 56,325.5C 55.3333,246.833 55.3333,168.167 56,89.5C 56.679,83.6569 59.8457,80.3236 65.5,79.5 Z M 115.5,142.5 C 138.833,142.5 162.167,142.5 185.5,142.5C 185.5,155.833 185.5,169.167 185.5,182.5C 162.167,182.5 138.833,182.5 115.5,182.5C 115.5,169.167 115.5,155.833 115.5,142.5 Z M 352.5,143.5 C 373.477,141.007 387.31,149.674 394,169.5C 396.984,190.495 388.484,204.328 368.5,211C 347.788,213.566 333.955,205.066 327,185.5C 324.227,164.478 332.727,150.478 352.5,143.5 Z M 205.5,355.5 C 238.833,355.5 272.167,355.5 305.5,355.5C 305.725,360.248 305.225,364.915 304,369.5C 302.833,371.333 301.333,372.833 299.5,374C 284.885,375.133 270.218,375.633 255.5,375.5C 240.782,375.633 226.115,375.133 211.5,374C 209.333,373.167 207.833,371.667 207,369.5C 205.775,364.915 205.275,360.248 205.5,355.5 Z M 235.5,395.5 C 248.833,395.5 262.167,395.5 275.5,395.5C 275.5,427.5 275.5,459.5 275.5,491.5C 262.167,491.5 248.833,491.5 235.5,491.5C 235.5,459.5 235.5,427.5 235.5,395.5 Z M 55.5,451.5 C 62.175,451.334 68.8417,451.5 75.5,452C 90.3262,454.137 96.4928,462.637 94,477.5C 90.8041,486.019 84.6374,490.519 75.5,491C 68.8417,491.5 62.175,491.666 55.5,491.5C 55.5,478.167 55.5,464.833 55.5,451.5 Z"/></g>
<g><path style="opacity:0.897" fill="#000000" d="M 361.5,59.5 C 370.125,57.6337 375.125,60.9671 376.5,69.5C 375.125,78.1951 370.125,81.3618 361.5,79C 355.975,76.0812 354.142,71.5812 356,65.5C 357.36,62.9774 359.193,60.9774 361.5,59.5 Z"/></g>
<g><path style="opacity:0.995" fill="#000000" d="M 100.5,122.5 C 133.835,122.333 167.168,122.5 200.5,123C 202.333,124.167 203.833,125.667 205,127.5C 205.667,150.833 205.667,174.167 205,197.5C 203.833,199.333 202.333,200.833 200.5,202C 167.167,202.667 133.833,202.667 100.5,202C 98.6667,200.833 97.1667,199.333 96,197.5C 95.3333,174.167 95.3333,150.833 96,127.5C 97.3657,125.638 98.8657,123.972 100.5,122.5 Z M 115.5,142.5 C 115.5,155.833 115.5,169.167 115.5,182.5C 138.833,182.5 162.167,182.5 185.5,182.5C 185.5,169.167 185.5,155.833 185.5,142.5C 162.167,142.5 138.833,142.5 115.5,142.5 Z"/></g>
<g><path style="opacity:0.945" fill="#000000" d="M 349.5,122.5 C 383.629,119.163 405.462,133.829 415,166.5C 418.628,195.417 407.462,216.251 381.5,229C 348.812,238.732 324.645,228.565 309,198.5C 299.268,165.812 309.435,141.645 339.5,126C 342.98,124.897 346.313,123.731 349.5,122.5 Z M 352.5,143.5 C 332.727,150.478 324.227,164.478 327,185.5C 333.955,205.066 347.788,213.566 368.5,211C 388.484,204.328 396.984,190.495 394,169.5C 387.31,149.674 373.477,141.007 352.5,143.5 Z"/></g>
<g><path style="opacity:0.908" fill="#000000" d="M 100.5,242.5 C 112.324,240.824 117.158,245.824 115,257.5C 111.345,262.275 106.512,263.775 100.5,262C 95.7255,258.345 94.2255,253.512 96,247.5C 97.3657,245.638 98.8657,243.972 100.5,242.5 Z"/></g>
<g><path style="opacity:0.976" fill="#000000" d="M 140.5,242.5 C 160.503,242.333 180.503,242.5 200.5,243C 205.275,246.655 206.775,251.488 205,257.5C 203.833,259.333 202.333,260.833 200.5,262C 180.5,262.667 160.5,262.667 140.5,262C 135.725,258.345 134.225,253.512 136,247.5C 137.366,245.638 138.866,243.972 140.5,242.5 Z"/></g>
</svg>
