<?xml version="1.0" encoding="UTF-8"?>
<!DOCTYPE svg PUBLIC "-//W3C//DTD SVG 1.1//EN" "http://www.w3.org/Graphics/SVG/1.1/DTD/svg11.dtd">
<svg xmlns="http://www.w3.org/2000/svg" version="1.1" width="512px" height="512px" style="shape-rendering:geometricPrecision; text-rendering:geometricPrecision; image-rendering:optimizeQuality; fill-rule:evenodd; clip-rule:evenodd" xmlns:xlink="http://www.w3.org/1999/xlink">
<g><path style="opacity:0.959" fill="#000000" d="M 511.5,269.5 C 511.5,309.167 511.5,348.833 511.5,388.5C 510.576,393.318 507.909,396.985 503.5,399.5C 502.667,432.495 502.167,465.495 502,498.5C 501.285,504.215 498.118,507.715 492.5,509C 334.5,509.667 176.5,509.667 18.5,509C 12.8816,507.715 9.71497,504.215 9,498.5C 8.50002,465.502 8.33335,432.502 8.5,399.5C 4.6392,398.74 1.6392,396.74 -0.5,393.5C -0.5,310.167 -0.5,226.833 -0.5,143.5C 8.73784,81.232 42.4045,37.732 100.5,13C 166.79,-9.67609 225.79,2.32391 277.5,49C 287.086,59.0169 295.586,69.8502 303,81.5C 311.878,98.5896 320.212,115.923 328,133.5C 338.897,148.201 353.064,158.367 370.5,164C 386.448,166.929 402.448,169.595 418.5,172C 469.616,185.61 500.616,218.11 511.5,269.5 Z M 150.5,25.5 C 209.704,23.8445 254.538,48.1778 285,98.5C 291.743,113.651 298.743,128.651 306,143.5C 319.982,164.811 339.149,179.311 363.5,187C 379.408,190.191 395.408,192.858 411.5,195C 461.236,208.562 486.902,241.062 488.5,292.5C 487.611,320.492 487.278,348.492 487.5,376.5C 332.5,376.5 177.5,376.5 22.5,376.5C 22.3333,302.166 22.5,227.833 23,153.5C 28.3356,97.8424 56.5023,58.6757 107.5,36C 121.547,30.7373 135.881,27.2373 150.5,25.5 Z M 32.5,400.5 C 38.8333,400.5 45.1667,400.5 51.5,400.5C 51.3334,417.17 51.5001,433.837 52,450.5C 54.9603,460.419 61.1269,463.252 70.5,459C 72.6166,457.269 74.1166,455.102 75,452.5C 75.4999,435.17 75.6666,417.837 75.5,400.5C 79.1667,400.5 82.8333,400.5 86.5,400.5C 86.3334,418.503 86.5001,436.503 87,454.5C 94.6223,463.957 101.956,463.623 109,453.5C 109.5,435.836 109.667,418.17 109.5,400.5C 113.167,400.5 116.833,400.5 120.5,400.5C 120.333,417.837 120.5,435.17 121,452.5C 122.854,457.684 126.52,460.684 132,461.5C 138.742,460.8 142.742,457.133 144,450.5C 144.5,433.837 144.667,417.17 144.5,400.5C 154.833,400.5 165.167,400.5 175.5,400.5C 175.333,418.17 175.5,435.836 176,453.5C 183.044,463.623 190.378,463.957 198,454.5C 198.5,436.503 198.667,418.503 198.5,400.5C 202.167,400.5 205.833,400.5 209.5,400.5C 209.333,417.837 209.5,435.17 210,452.5C 214.69,461.295 221.19,463.128 229.5,458C 231.604,455.958 232.771,453.458 233,450.5C 233.5,433.837 233.667,417.17 233.5,400.5C 245.5,400.5 257.5,400.5 269.5,400.5C 269.333,417.837 269.5,435.17 270,452.5C 274.69,461.295 281.19,463.128 289.5,458C 291.604,455.958 292.771,453.458 293,450.5C 293.5,433.837 293.667,417.17 293.5,400.5C 296.833,400.5 300.167,400.5 303.5,400.5C 303.333,417.17 303.5,433.837 304,450.5C 306.96,460.419 313.127,463.252 322.5,459C 324.617,457.269 326.117,455.102 327,452.5C 327.5,435.17 327.667,417.837 327.5,400.5C 331.167,400.5 334.833,400.5 338.5,400.5C 338.333,418.503 338.5,436.503 339,454.5C 346.622,463.957 353.956,463.623 361,453.5C 361.5,435.836 361.667,418.17 361.5,400.5C 372.833,400.5 384.167,400.5 395.5,400.5C 395.333,417.17 395.5,433.837 396,450.5C 398.96,460.419 405.127,463.252 414.5,459C 416.81,457.363 418.31,455.196 419,452.5C 419.5,435.17 419.667,417.837 419.5,400.5C 423.167,400.5 426.833,400.5 430.5,400.5C 430.333,418.17 430.5,435.836 431,453.5C 434.742,460.37 440.242,462.537 447.5,460C 449.917,458.337 451.75,456.171 453,453.5C 453.5,435.836 453.667,418.17 453.5,400.5C 461.833,400.5 470.167,400.5 478.5,400.5C 478.5,428.833 478.5,457.167 478.5,485.5C 329.833,485.5 181.167,485.5 32.5,485.5C 32.5,457.167 32.5,428.833 32.5,400.5 Z"/></g>
</svg>
