<?xml version="1.0" encoding="UTF-8"?>
<!DOCTYPE svg PUBLIC "-//W3C//DTD SVG 1.1//EN" "http://www.w3.org/Graphics/SVG/1.1/DTD/svg11.dtd">
<svg xmlns="http://www.w3.org/2000/svg" version="1.1" width="512px" height="512px" style="shape-rendering:geometricPrecision; text-rendering:geometricPrecision; image-rendering:optimizeQuality; fill-rule:evenodd; clip-rule:evenodd" xmlns:xlink="http://www.w3.org/1999/xlink">
<g><path style="opacity:0.924" fill="#000000" d="M 168.5,-0.5 C 181.5,-0.5 194.5,-0.5 207.5,-0.5C 281.15,10.402 333.317,49.7353 364,117.5C 369.821,133.284 373.987,149.451 376.5,166C 375.228,172.642 371.228,175.309 364.5,174C 363.333,172.833 362.167,171.667 361,170.5C 350.873,102.392 314.373,54.559 251.5,27C 186.932,4.36599 127.932,14.366 74.5,57C 40.551,87.7245 20.3844,125.891 14,171.5C 8.40789,175.872 3.57456,175.206 -0.5,169.5C -0.5,167.5 -0.5,165.5 -0.5,163.5C 13.5205,83.6359 59.1872,31.1359 136.5,6C 147.212,3.35804 157.879,1.19137 168.5,-0.5 Z"/></g>
<g><path style="opacity:0.927" fill="#000000" d="M 179.5,31.5 C 238.471,30.619 284.971,53.9523 319,101.5C 346.631,146.26 351.964,193.593 335,243.5C 307.382,308.256 258.216,342.256 187.5,345.5C 119.933,342.392 71.7658,310.392 43,249.5C 21.1296,189.919 29.7963,135.252 69,85.5C 98.6862,52.882 135.52,34.882 179.5,31.5 Z M 178.5,47.5 C 231.026,46.3487 272.859,66.682 304,108.5C 330.822,149.933 335.822,193.933 319,240.5C 299.33,285.164 265.83,313.664 218.5,326C 157.132,336.666 107.965,317.166 71,267.5C 41.3398,219.27 39.3398,169.937 65,119.5C 90.8436,76.6584 128.677,52.6584 178.5,47.5 Z M 190.5,74.5 C 227.765,108.261 264.598,142.594 301,177.5C 301.611,181.088 300.111,182.254 296.5,181C 264.5,150.667 232.5,120.333 200.5,90C 197.875,87.5398 194.875,85.7064 191.5,84.5C 189.459,85.2357 187.459,86.0691 185.5,87C 152.167,118.333 118.833,149.667 85.5,181C 82.2826,181.824 80.7826,180.657 81,177.5C 117.396,142.934 153.896,108.601 190.5,74.5 Z M 190.5,104.5 C 214.744,125.904 238.577,147.904 262,170.5C 262.5,205.165 262.667,239.832 262.5,274.5C 249.5,274.5 236.5,274.5 223.5,274.5C 223.97,243.117 223.47,211.784 222,180.5C 220.749,177.619 218.583,175.786 215.5,175C 199.167,174.333 182.833,174.333 166.5,175C 163.244,176.587 161.077,179.087 160,182.5C 159.5,213.165 159.333,243.832 159.5,274.5C 146.167,274.5 132.833,274.5 119.5,274.5C 119.333,239.832 119.5,205.165 120,170.5C 143.669,148.6 167.169,126.6 190.5,104.5 Z M 175.5,190.5 C 186.167,190.5 196.833,190.5 207.5,190.5C 207.5,218.5 207.5,246.5 207.5,274.5C 196.833,274.5 186.167,274.5 175.5,274.5C 175.5,246.5 175.5,218.5 175.5,190.5 Z"/></g>
<g><path style="opacity:0.93" fill="#000000" d="M 190.5,58.5 C 195.183,58.9388 199.516,60.4388 203.5,63C 235.167,92.6667 266.833,122.333 298.5,152C 304.699,157.864 310.532,164.031 316,170.5C 319.478,191.022 310.978,199.522 290.5,196C 286.084,193.588 282.251,190.422 279,186.5C 278.667,218.167 278.333,249.833 278,281.5C 276.64,284.735 274.473,287.235 271.5,289C 218.892,290.653 166.225,290.987 113.5,290C 109,288.167 105.833,285 104,280.5C 103.667,249.167 103.333,217.833 103,186.5C 93.1588,199.118 81.8255,200.784 69,191.5C 63,183.167 63,174.833 69,166.5C 105.865,131.3 143.032,96.4668 180.5,62C 183.776,60.3077 187.109,59.141 190.5,58.5 Z M 190.5,74.5 C 153.896,108.601 117.396,142.934 81,177.5C 80.7826,180.657 82.2826,181.824 85.5,181C 118.833,149.667 152.167,118.333 185.5,87C 187.459,86.0691 189.459,85.2357 191.5,84.5C 194.875,85.7064 197.875,87.5398 200.5,90C 232.5,120.333 264.5,150.667 296.5,181C 300.111,182.254 301.611,181.088 301,177.5C 264.598,142.594 227.765,108.261 190.5,74.5 Z M 190.5,104.5 C 167.169,126.6 143.669,148.6 120,170.5C 119.5,205.165 119.333,239.832 119.5,274.5C 132.833,274.5 146.167,274.5 159.5,274.5C 159.333,243.832 159.5,213.165 160,182.5C 161.077,179.087 163.244,176.587 166.5,175C 182.833,174.333 199.167,174.333 215.5,175C 218.583,175.786 220.749,177.619 222,180.5C 223.47,211.784 223.97,243.117 223.5,274.5C 236.5,274.5 249.5,274.5 262.5,274.5C 262.667,239.832 262.5,205.165 262,170.5C 238.577,147.904 214.744,125.904 190.5,104.5 Z M 175.5,190.5 C 175.5,218.5 175.5,246.5 175.5,274.5C 186.167,274.5 196.833,274.5 207.5,274.5C 207.5,246.5 207.5,218.5 207.5,190.5C 196.833,190.5 186.167,190.5 175.5,190.5 Z"/></g>
<g><path style="opacity:0.925" fill="#000000" d="M 511.5,460.5 C 511.5,463.167 511.5,465.833 511.5,468.5C 510.184,473.689 507.684,478.356 504,482.5C 496.5,490 489,497.5 481.5,505C 478.067,507.711 474.4,509.877 470.5,511.5C 466.167,511.5 461.833,511.5 457.5,511.5C 453.6,509.877 449.933,507.711 446.5,505C 407.667,466.167 368.833,427.333 330,388.5C 322.57,379.965 320.57,370.298 324,359.5C 317.5,353 311,346.5 304.5,340C 303.5,339.333 302.5,339.333 301.5,340C 250.436,376.729 194.436,386.729 133.5,370C 69.6667,348.833 27.1667,306.333 6,242.5C 3.33218,233.328 1.49884,223.994 0.5,214.5C -0.265857,208.672 2.23414,205.672 8,205.5C 10.2605,205.439 12.2605,206.106 14,207.5C 26.0256,278.513 65.5256,327.013 132.5,353C 195.328,371.534 251.995,360.201 302.5,319C 335.242,289.358 354.742,252.524 361,208.5C 365.333,204.5 369.667,204.5 374,208.5C 374.985,210.366 375.485,212.366 375.5,214.5C 370.989,247.674 358.655,277.507 338.5,304C 345.667,311.167 352.833,318.333 360,325.5C 368.612,322.231 376.779,323.064 384.5,328C 425.333,368.833 466.167,409.667 507,450.5C 508.83,453.815 510.33,457.149 511.5,460.5 Z M 327.5,316.5 C 334.298,322.797 340.965,329.297 347.5,336C 343.652,340.016 339.652,343.849 335.5,347.5C 328.833,341.5 322.5,335.167 316.5,328.5C 320.189,324.48 323.855,320.48 327.5,316.5 Z M 366.5,339.5 C 368.857,339.337 371.19,339.503 373.5,340C 413.667,380.167 453.833,420.333 494,460.5C 496,463.167 496,465.833 494,468.5C 485.833,478 477,486.833 467.5,495C 463.793,495.996 460.459,495.33 457.5,493C 418.667,454.167 379.833,415.333 341,376.5C 338.367,373.332 338.033,369.998 340,366.5C 349.036,357.632 357.869,348.632 366.5,339.5 Z"/></g>
</svg>
