<?xml version="1.0" encoding="UTF-8"?>
<!DOCTYPE svg PUBLIC "-//W3C//DTD SVG 1.1//EN" "http://www.w3.org/Graphics/SVG/1.1/DTD/svg11.dtd">
<svg xmlns="http://www.w3.org/2000/svg" version="1.1" width="512px" height="512px" style="shape-rendering:geometricPrecision; text-rendering:geometricPrecision; image-rendering:optimizeQuality; fill-rule:evenodd; clip-rule:evenodd" xmlns:xlink="http://www.w3.org/1999/xlink">
<g><path style="opacity:0.928" fill="#000000" d="M 511.5,345.5 C 511.5,356.833 511.5,368.167 511.5,379.5C 503.866,424.311 477.866,452.478 433.5,464C 431.56,480.774 422.226,489.941 405.5,491.5C 392.748,491.417 384.082,485.417 379.5,473.5C 364.845,472.667 350.178,472.167 335.5,472C 305.71,471.22 277.71,463.887 251.5,450C 221.173,429.857 206.173,401.357 206.5,364.5C 162.119,371.224 118.119,369.391 74.5,359C 64.0032,355.75 54.0032,351.417 44.5,346C 39.1667,341.333 39.1667,336.667 44.5,332C 47.1667,331.333 49.8333,331.333 52.5,332C 78.2316,345.015 105.565,351.682 134.5,352C 158.7,353.309 182.7,351.809 206.5,347.5C 213.986,295.224 240.32,255.724 285.5,229C 270.099,172.265 233.765,137.265 176.5,124C 120.071,115.914 74.5707,134.414 40,179.5C 15.8591,214.874 9.52578,253.207 21,294.5C 24.5,301.5 28,308.5 31.5,315.5C 27.6862,324.943 22.1862,325.943 15,318.5C 6.92585,305.103 1.75919,290.77 -0.5,275.5C -0.5,263.833 -0.5,252.167 -0.5,240.5C 8.06067,185.535 37.0607,145.368 86.5,120C 116.792,106.321 148.292,102.487 181,108.5C 181.833,108.167 182.667,107.833 183.5,107.5C 217.714,43.052 271.381,14.2187 344.5,21C 379.087,26.5421 408.587,41.7088 433,66.5C 437.607,76.4506 434.44,80.9506 423.5,80C 384.391,40.4149 337.725,27.4149 283.5,41C 245.323,52.9158 217.323,76.7491 199.5,112.5C 251.655,131.652 284.989,167.985 299.5,221.5C 347.412,204.086 393.745,207.253 438.5,231C 450.026,218.439 456.526,203.606 458,186.5C 460.068,165.976 457.734,145.976 451,126.5C 447.344,118.028 443.844,109.528 440.5,101C 441.393,93.8413 445.393,91.5079 452.5,94C 467.75,117.656 475.084,143.656 474.5,172C 475.73,198.126 468.063,221.126 451.5,241C 485.346,267.856 505.346,302.689 511.5,345.5 Z M 343.5,226.5 C 400.437,222.72 444.604,244.387 476,291.5C 496.726,326.243 501.059,362.91 489,401.5C 477.314,424.943 458.814,440.276 433.5,447.5C 431.625,439.165 432.459,431.165 436,423.5C 441.555,418.945 447.388,414.779 453.5,411C 457.578,407.458 458.745,403.291 457,398.5C 455.221,396.236 452.887,394.903 450,394.5C 440,399.34 431,405.673 423,413.5C 420.806,416.554 419.139,419.888 418,423.5C 416.753,438.121 416.086,452.788 416,467.5C 412.562,474.8 407.062,476.967 399.5,474C 397.622,472.457 396.122,470.624 395,468.5C 395.138,457.619 393.805,446.953 391,436.5C 385.268,425.213 376.102,418.713 363.5,417C 343.272,417.161 323.272,415.161 303.5,411C 290.331,408.335 279.164,402.168 270,392.5C 263.68,380.601 261.346,367.934 263,354.5C 270.259,306.241 297.759,277.074 345.5,267C 386.816,263.246 418.983,278.413 442,312.5C 452.808,331.4 457.474,351.733 456,373.5C 460.58,381.067 465.58,381.401 471,374.5C 473.957,319.847 450.791,281.014 401.5,258C 352.438,241.392 309.938,251.558 274,288.5C 250.763,316.557 242.429,348.557 249,384.5C 254.22,402.056 265.387,414.223 282.5,421C 296.346,426.378 310.679,429.711 325.5,431C 339.204,431.787 352.87,432.787 366.5,434C 375.056,438.939 379.056,446.439 378.5,456.5C 348.788,458.191 319.455,455.691 290.5,449C 242.046,435.612 219.546,403.779 223,353.5C 229.181,296.95 258.348,257.45 310.5,235C 321.356,231.07 332.356,228.236 343.5,226.5 Z"/></g>
</svg>
