<?xml version="1.0" encoding="UTF-8"?>
<!DOCTYPE svg PUBLIC "-//W3C//DTD SVG 1.1//EN" "http://www.w3.org/Graphics/SVG/1.1/DTD/svg11.dtd">
<svg xmlns="http://www.w3.org/2000/svg" version="1.1" width="512px" height="512px" style="shape-rendering:geometricPrecision; text-rendering:geometricPrecision; image-rendering:optimizeQuality; fill-rule:evenodd; clip-rule:evenodd" xmlns:xlink="http://www.w3.org/1999/xlink">
<g><path style="opacity:0.939" fill="#000000" d="M 292.5,-0.5 C 296.5,-0.5 300.5,-0.5 304.5,-0.5C 307.495,1.09757 310.329,3.09757 313,5.5C 337.333,40.5 361.667,75.5 386,110.5C 391.32,111.739 396.487,113.572 401.5,116C 420.667,135.167 439.833,154.333 459,173.5C 463.213,179.983 463.546,186.65 460,193.5C 446.529,207.971 432.696,222.138 418.5,236C 422.162,245.675 428.162,253.675 436.5,260C 449.681,268.427 463.348,276.093 477.5,283C 488.505,289.005 498.005,296.839 506,306.5C 508.349,310.741 510.182,315.075 511.5,319.5C 511.5,325.833 511.5,332.167 511.5,338.5C 505.371,353.52 495.705,366.02 482.5,376C 461.977,388.354 442.81,386.521 425,370.5C 414.821,356.822 406.155,342.156 399,326.5C 393.05,314.551 384.884,304.384 374.5,296C 370.797,293.467 366.797,292.134 362.5,292C 352.667,301.833 342.833,311.667 333,321.5C 332.667,371.833 332.333,422.167 332,472.5C 328.128,482.037 321.294,488.537 311.5,492C 290.844,499.83 269.511,504.83 247.5,507C 230.704,508.79 214.038,510.29 197.5,511.5C 179.5,511.5 161.5,511.5 143.5,511.5C 110.526,510.259 77.8598,505.759 45.5,498C 35.1806,495.005 25.5139,490.671 16.5,485C 12.5417,481.579 9.70836,477.412 8,472.5C 7.66667,399.5 7.33333,326.5 7,253.5C 3.45237,250.808 0.952369,247.475 -0.5,243.5C -0.5,228.5 -0.5,213.5 -0.5,198.5C 2.59223,192.906 6.92557,188.406 12.5,185C 33.1402,175.422 54.8069,169.422 77.5,167C 94.8013,164.837 112.135,163.003 129.5,161.5C 139.716,150.116 150.716,139.616 162.5,130C 166.5,129.333 170.5,129.333 174.5,130C 182.159,133.999 189.825,137.665 197.5,141C 192.937,133.373 188.77,125.54 185,117.5C 183.967,112.106 184.967,107.106 188,102.5C 222.423,67.5756 257.256,33.2423 292.5,-0.5 Z M 298.5,17.5 C 323.304,52.487 347.97,87.6537 372.5,123C 331.986,163.68 291.32,204.18 250.5,244.5C 215.5,220 180.5,195.5 145.5,171C 153.348,162.985 161.348,155.152 169.5,147.5C 186.583,157.374 203.917,166.707 221.5,175.5C 228.842,174.155 231.675,169.822 230,162.5C 221.15,146.323 212.317,130.157 203.5,114C 214.958,101.541 226.791,89.3745 239,77.5C 257.833,99.6667 276.667,121.833 295.5,144C 302.821,146.506 307.487,144.006 309.5,136.5C 308.964,134.058 308.131,131.725 307,129.5C 288.645,107.98 270.479,86.313 252.5,64.5C 267.855,48.8126 283.188,33.1459 298.5,17.5 Z M 389.5,131.5 C 408.095,148.427 426.095,166.094 443.5,184.5C 400.167,228.5 356.5,272.167 312.5,315.5C 294.5,298.167 276.833,280.5 259.5,262.5C 302.854,218.812 346.188,175.146 389.5,131.5 Z M 117.5,180.5 C 121.514,180.334 125.514,180.501 129.5,181C 135.138,186.15 141.138,190.817 147.5,195C 113.15,196.101 79.1504,200.101 45.5,207C 40.3107,208.422 35.1441,209.922 30,211.5C 25.2693,209.887 21.1026,207.387 17.5,204C 20.228,201.608 23.228,199.608 26.5,198C 43.6517,191.636 61.3184,187.302 79.5,185C 92.308,183.422 104.975,181.922 117.5,180.5 Z M 133.5,213.5 C 147.171,213.333 160.837,213.5 174.5,214C 181.672,218.419 188.672,223.085 195.5,228C 152.899,230.654 110.565,228.321 68.5,221C 90.2212,217.643 111.888,215.143 133.5,213.5 Z M 17.5,226.5 C 44.3108,236.192 71.9775,242.026 100.5,244C 140.471,247.684 180.471,248.35 220.5,246C 226.833,250.333 233.167,254.667 239.5,259C 185.475,265.333 131.475,264.667 77.5,257C 57.5769,254.818 38.5769,249.485 20.5,241C 19.6667,240.167 18.8333,239.333 18,238.5C 17.5012,234.514 17.3345,230.514 17.5,226.5 Z M 403.5,250.5 C 413.35,264.838 426.017,276.338 441.5,285C 456.477,291.483 470.477,299.483 483.5,309C 493.211,316.805 496.045,326.638 492,338.5C 486.252,347.584 479.085,355.417 470.5,362C 460.105,367.938 450.105,367.271 440.5,360C 436.667,354.833 432.833,349.667 429,344.5C 421.428,329.017 413.094,314.017 404,299.5C 396.895,290.225 388.395,282.559 378.5,276.5C 386.855,267.813 395.188,259.146 403.5,250.5 Z M 25.5,263.5 C 57.7365,273.317 90.7365,278.817 124.5,280C 139.488,280.848 154.488,281.348 169.5,281.5C 195.888,280.997 222.221,279.831 248.5,278C 266.5,296 284.5,314 302.5,332C 306.298,333.783 310.298,334.616 314.5,334.5C 314.667,379.168 314.5,423.835 314,468.5C 307.489,474.007 299.989,477.84 291.5,480C 260.653,487.773 229.32,492.106 197.5,493C 152.806,495.128 108.472,492.128 64.5,484C 52.2054,481.791 40.5387,477.791 29.5,472C 28,471.167 26.8333,470 26,468.5C 25.5,400.167 25.3333,331.834 25.5,263.5 Z M 169.5,328.5 C 178.739,350.359 187.905,372.359 197,394.5C 203.841,410.963 200.675,425.13 187.5,437C 171.927,445.814 158.093,443.647 146,430.5C 139.113,420.203 137.78,409.203 142,397.5C 151.271,374.516 160.438,351.516 169.5,328.5 Z"/></g>
<g><path style="opacity:0.921" fill="#000000" d="M 386.5,157.5 C 397.565,156.39 401.398,161.057 398,171.5C 375.167,194.333 352.333,217.167 329.5,240C 317.489,242.986 313.322,238.486 317,226.5C 340.062,203.271 363.228,180.271 386.5,157.5 Z"/></g>
<g><path style="opacity:0.896" fill="#000000" d="M 297.5,247.5 C 306.671,247.175 310.171,251.509 308,260.5C 305.537,263.965 302.704,267.131 299.5,270C 291.807,273.319 286.807,270.986 284.5,263C 286.894,256.114 291.227,250.948 297.5,247.5 Z"/></g>
<g><path style="opacity:0.899" fill="#000000" d="M 49.5,288.5 C 57.6941,289.523 61.0274,294.189 59.5,302.5C 60.3359,313.17 55.6693,317.003 45.5,314C 42.0898,310.954 40.7565,307.121 41.5,302.5C 40.2915,295.348 42.9582,290.682 49.5,288.5 Z"/></g>
<g><path style="opacity:0.934" fill="#000000" d="M 164.5,309.5 C 172.103,308.105 178.603,310.105 184,315.5C 196.456,343.742 207.79,372.409 218,401.5C 221.147,427.045 211.314,445.545 188.5,457C 166.428,464.575 147.595,459.742 132,442.5C 120.843,426.422 118.51,409.089 125,390.5C 135.285,364.97 145.952,339.636 157,314.5C 159.479,312.686 161.979,311.019 164.5,309.5 Z M 169.5,328.5 C 160.438,351.516 151.271,374.516 142,397.5C 137.78,409.203 139.113,420.203 146,430.5C 158.093,443.647 171.927,445.814 187.5,437C 200.675,425.13 203.841,410.963 197,394.5C 187.905,372.359 178.739,350.359 169.5,328.5 Z"/></g>
<g><path style="opacity:0.938" fill="#000000" d="M 47.5,331.5 C 52.3836,330.861 56.217,332.527 59,336.5C 59.6667,376.167 59.6667,415.833 59,455.5C 52.8818,462.423 47.2152,462.09 42,454.5C 41.3333,415.5 41.3333,376.5 42,337.5C 43.3597,334.977 45.193,332.977 47.5,331.5 Z"/></g>
</svg>
