<?xml version="1.0" encoding="UTF-8"?>
<!DOCTYPE svg PUBLIC "-//W3C//DTD SVG 1.1//EN" "http://www.w3.org/Graphics/SVG/1.1/DTD/svg11.dtd">
<svg xmlns="http://www.w3.org/2000/svg" version="1.1" width="512px" height="512px" style="shape-rendering:geometricPrecision; text-rendering:geometricPrecision; image-rendering:optimizeQuality; fill-rule:evenodd; clip-rule:evenodd" xmlns:xlink="http://www.w3.org/1999/xlink">
<g><path style="opacity:0.944" fill="#000000" d="M 78.5,-0.5 C 193.5,-0.5 308.5,-0.5 423.5,-0.5C 432.816,2.65054 438.983,8.98387 442,18.5C 443.434,33.4417 443.934,48.4417 443.5,63.5C 460.678,60.3419 473.178,66.3419 481,81.5C 482.627,105.784 482.961,130.117 482,154.5C 479.5,166.333 472.333,173.5 460.5,176C 398.451,186.786 336.451,197.786 274.5,209C 271.272,210.563 269.105,213.063 268,216.5C 267.5,226.161 267.334,235.828 267.5,245.5C 275.84,245.334 284.173,245.5 292.5,246C 293.333,246.833 294.167,247.667 295,248.5C 296.122,259.085 296.955,269.752 297.5,280.5C 300.817,281.066 303.317,282.733 305,285.5C 305.667,317.167 305.667,348.833 305,380.5C 302.045,384.277 298.212,385.443 293.5,384C 291.951,382.786 290.785,381.286 290,379.5C 289.5,351.835 289.333,324.169 289.5,296.5C 269.5,296.5 249.5,296.5 229.5,296.5C 229.333,354.501 229.5,412.501 230,470.5C 233.601,486.273 243.435,494.607 259.5,495.5C 275.129,494.711 284.962,486.711 289,471.5C 289.333,449.167 289.667,426.833 290,404.5C 294.561,397.045 299.561,396.712 305,403.5C 305.952,428.541 305.618,453.541 304,478.5C 298.145,495.524 286.645,506.524 269.5,511.5C 262.833,511.5 256.167,511.5 249.5,511.5C 229.883,505.711 218.049,492.711 214,472.5C 213.333,410.5 213.333,348.5 214,286.5C 215.23,282.962 217.73,280.962 221.5,280.5C 222.045,269.752 222.878,259.085 224,248.5C 224.833,247.667 225.667,246.833 226.5,246C 234.827,245.5 243.16,245.334 251.5,245.5C 251.088,233.771 251.588,222.104 253,210.5C 255.744,202.755 260.911,197.255 268.5,194C 332.497,182.334 396.497,170.667 460.5,159C 462.709,157.127 464.542,154.96 466,152.5C 466.667,131.167 466.667,109.833 466,88.5C 464.969,85.4605 463.135,82.9605 460.5,81C 454.928,79.6493 449.262,79.1493 443.5,79.5C 443.667,93.1707 443.5,106.837 443,120.5C 440.248,134.585 431.748,142.419 417.5,144C 390.451,144.965 363.451,144.631 336.5,143C 333.197,139.205 332.697,135.038 335,130.5C 335.75,129.874 336.584,129.374 337.5,129C 363.5,128.667 389.5,128.333 415.5,128C 421.591,127.541 425.424,124.375 427,118.5C 427.978,86.1059 427.645,53.7725 426,21.5C 423.588,17.7044 420.088,15.5377 415.5,15C 371.501,14.5 327.501,14.3333 283.5,14.5C 283.667,39.8355 283.5,65.1689 283,90.5C 276.402,108.718 263.569,115.884 244.5,112C 235.091,108.925 228.591,102.759 225,93.5C 223.771,83.5588 223.104,73.5588 223,63.5C 218.1,51.9857 210.267,49.4857 199.5,56C 198.333,57.8333 197.167,59.6667 196,61.5C 195.5,83.8308 195.333,106.164 195.5,128.5C 235.501,128.333 275.501,128.5 315.5,129C 321.167,135.333 320.167,140.333 312.5,144C 273.501,144.5 234.501,144.667 195.5,144.5C 195.667,157.171 195.5,169.838 195,182.5C 191.347,204.482 178.514,213.649 156.5,210C 144.679,205.85 137.513,197.683 135,185.5C 134.5,171.837 134.333,158.171 134.5,144.5C 117.83,144.667 101.163,144.5 84.5,144C 67.0014,141.336 58.3347,131.17 58.5,113.5C 50.16,113.666 41.8267,113.5 33.5,113C 32.0692,112.535 30.9025,111.701 30,110.5C 28.8509,97.5912 28.3509,84.5912 28.5,71.5C 28.3509,58.4088 28.8509,45.4088 30,32.5C 30.9025,31.2986 32.0692,30.4652 33.5,30C 41.8267,29.5003 50.16,29.3336 58.5,29.5C 57.7027,14.4066 64.3694,4.40659 78.5,-0.5 Z M 86.5,14.5 C 102.5,14.5 118.5,14.5 134.5,14.5C 134.333,29.1705 134.5,43.8371 135,58.5C 137.433,64.448 141.6,65.948 147.5,63C 148.333,62.1667 149.167,61.3333 150,60.5C 150.5,45.1703 150.667,29.837 150.5,14.5C 189.5,14.5 228.5,14.5 267.5,14.5C 267.667,38.8356 267.5,63.1689 267,87.5C 262.273,96.9648 255.106,99.4648 245.5,95C 242.533,92.8995 240.7,90.0662 240,86.5C 239.865,76.4506 239.198,66.4506 238,56.5C 231.315,40.739 219.482,34.239 202.5,37C 190.776,39.7232 183.276,46.8899 180,58.5C 179.667,99.5 179.333,140.5 179,181.5C 176.498,192.157 169.998,196.324 159.5,194C 155.183,191.685 152.35,188.185 151,183.5C 150.987,149.415 150.32,115.415 149,81.5C 144.667,77.5 140.333,77.5 136,81.5C 135.667,82.5 135.333,83.5 135,84.5C 134.5,99.1629 134.333,113.83 134.5,128.5C 118.163,128.667 101.83,128.5 85.5,128C 81.5085,127.588 78.3419,125.754 76,122.5C 74.3548,89.5607 74.0215,56.5607 75,23.5C 77.0077,17.975 80.841,14.975 86.5,14.5 Z M 44.5,45.5 C 49.1667,45.5 53.8333,45.5 58.5,45.5C 58.5,62.8333 58.5,80.1667 58.5,97.5C 53.8333,97.5 49.1667,97.5 44.5,97.5C 44.5,80.1667 44.5,62.8333 44.5,45.5 Z M 238.5,261.5 C 252.5,261.5 266.5,261.5 280.5,261.5C 280.5,267.833 280.5,274.167 280.5,280.5C 266.5,280.5 252.5,280.5 238.5,280.5C 238.5,274.167 238.5,267.833 238.5,261.5 Z"/></g>
</svg>
