<svg version="1.1" id="Layer_1" xmlns="http://www.w3.org/2000/svg" xmlns:xlink="http://www.w3.org/1999/xlink" x="0px" y="0px"
	 width="100%" viewBox="0 0 512 512" enable-background="new 0 0 512 512" xml:space="preserve">
<path fill="#000000" opacity="1.000000" stroke="none" 
	d="
M336.531342,1.000000 
	C360.111237,21.420755 380.937256,44.170284 402.923431,65.737579 
	C416.481842,79.037682 429.764587,92.618408 443.272461,105.970627 
	C447.399536,110.050140 449.447937,114.537720 449.441498,120.547615 
	C449.316162,237.686874 449.209686,354.826660 449.516235,471.965240 
	C449.556610,487.395264 437.714600,504.987488 423.373169,510.437561 
	C421.996613,510.960724 420.733368,511.782013 419.208740,512.732422 
	C311.645782,513.000000 204.291550,513.000000 96.212784,512.772827 
	C94.295647,511.999603 93.132797,511.372986 91.905907,510.919769 
	C76.906555,505.379242 64.479767,488.649811 64.509781,471.800812 
	C64.765564,328.198547 64.664070,184.595642 64.640472,40.992931 
	C64.638741,30.448990 68.884331,21.853260 75.760620,14.106438 
	C81.356781,7.801810 88.626221,4.394160 96.000000,1.000000 
	C176.020889,1.000000 256.041779,1.000000 336.531342,1.000000 
M87.350182,140.499878 
	C87.349976,249.812912 87.345993,359.125946 87.354546,468.438995 
	C87.355568,481.495331 96.018028,490.633636 108.464333,490.635803 
	C207.446152,490.653229 306.427979,490.655121 405.409790,490.633148 
	C417.369080,490.630493 426.632355,481.406647 426.635376,469.458771 
	C426.663574,357.979248 426.635986,246.499725 426.737518,135.020294 
	C426.741425,130.732117 425.622833,129.207153 421.128937,129.257553 
	C401.801666,129.474304 382.466583,129.114578 363.142426,129.441437 
	C354.268738,129.591537 346.341675,127.316299 339.293365,122.294922 
	C327.723022,114.051926 320.629364,103.152824 320.648102,88.415665 
	C320.672913,68.919281 320.661530,49.422836 320.648773,29.926430 
	C320.644501,23.402523 320.620789,23.372620 313.899231,23.371763 
	C245.578445,23.363064 177.257675,23.357145 108.936890,23.370602 
	C96.085289,23.373133 87.362183,32.133553 87.354927,45.017223 
	C87.337189,76.511429 87.350090,108.005646 87.350182,140.499878 
M347.668457,43.903461 
	C346.392517,43.053722 345.832245,41.054150 343.403320,41.427170 
	C343.403320,57.080791 343.018402,72.703163 343.544098,88.294838 
	C343.872345,98.030891 353.629089,106.543434 363.322632,106.615654 
	C377.465454,106.721016 391.609650,106.653046 405.753174,106.615944 
	C406.817322,106.613159 408.123474,107.066368 408.983307,105.465988 
	C388.746857,85.134193 368.465454,64.757210 347.668457,43.903461 
z"/>
<path fill="#000000" opacity="1.000000" stroke="none" 
	d="
M325.804810,300.334595 
	C332.827545,296.485474 340.886963,300.200195 342.942017,307.861298 
	C344.195801,312.535278 341.910583,316.154846 339.450104,319.334045 
	C330.018494,331.520538 320.296692,343.484070 310.589630,355.454956 
	C306.402954,360.618073 306.457703,361.661102 310.374451,367.084564 
	C320.465240,381.057159 330.419586,395.129059 340.338257,409.224731 
	C342.667145,412.534393 344.499481,416.137573 342.671600,420.384491 
	C340.963501,424.353119 338.683258,427.832550 333.901581,428.280396 
	C328.795593,428.758636 324.513550,427.333496 321.368073,422.837341 
	C312.523499,410.194855 303.526611,397.658691 294.556091,385.104706 
	C293.506042,383.635193 292.245453,382.316101 290.634552,380.392334 
	C285.737396,386.519043 281.021210,392.392975 276.333832,398.289825 
	C269.326782,407.104858 262.422333,416.003113 255.307373,424.729950 
	C252.104935,428.657928 244.387939,429.582428 240.117477,426.929962 
	C235.597855,424.122742 233.650146,418.284088 235.773819,412.967255 
	C238.473846,406.207367 243.898407,401.324127 248.267792,395.742981 
	C256.629730,385.062012 265.296509,374.619904 273.811127,364.058044 
	C275.740692,361.664520 276.204559,359.361694 274.151367,356.511505 
	C256.308716,331.742676 238.567993,306.900330 220.846970,282.044159 
	C219.448074,280.082001 217.847610,279.274445 215.421371,279.335907 
	C209.759842,279.479279 204.081848,279.563141 198.429657,279.283783 
	C194.462006,279.087708 193.237534,280.540527 193.281219,284.450134 
	C193.454346,299.944916 193.362701,315.442810 193.340988,330.939514 
	C193.330765,338.242035 189.295135,342.810455 182.536972,343.265076 
	C176.838211,343.648438 171.172852,338.073883 170.718994,331.512360 
	C170.558350,329.189972 170.664413,326.848511 170.664307,324.515747 
	C170.662186,278.525452 170.661072,232.535141 170.663071,186.544846 
	C170.663589,174.685150 174.666275,170.657333 186.466080,170.650192 
	C199.463333,170.642319 212.463684,170.467117 225.457214,170.687119 
	C252.073227,171.137756 274.692932,190.249344 278.460785,216.745834 
	C281.963226,241.375565 269.660339,262.554718 249.737793,273.094910 
	C248.439163,273.781952 247.202744,274.586609 245.416016,275.645538 
	C250.391052,282.811859 255.109406,289.763519 259.987122,296.601562 
	C269.513031,309.955902 279.259308,323.155396 288.621277,336.622742 
	C291.229889,340.375275 292.402710,340.473083 295.367401,336.862762 
	C305.343475,324.714172 314.123840,311.561523 325.804810,300.334595 
M255.642685,221.829529 
	C253.807343,209.068680 247.211746,200.012589 234.780502,195.909470 
	C222.181946,191.751068 209.098770,193.685623 196.200409,193.442505 
	C193.738327,193.396088 193.358109,195.248779 193.359131,197.265396 
	C193.368439,215.742493 193.385300,234.219650 193.333923,252.696609 
	C193.326523,255.358261 194.194534,256.789215 197.069122,256.651184 
	C206.846039,256.181671 216.606720,256.754944 226.433472,255.908401 
	C244.053421,254.390472 257.065826,239.671661 255.642685,221.829529 
z"/>
</svg>