<?xml version="1.0" encoding="UTF-8"?>
<!DOCTYPE svg PUBLIC "-//W3C//DTD SVG 1.1//EN" "http://www.w3.org/Graphics/SVG/1.1/DTD/svg11.dtd">
<svg xmlns="http://www.w3.org/2000/svg" version="1.1" width="512px" height="512px" style="shape-rendering:geometricPrecision; text-rendering:geometricPrecision; image-rendering:optimizeQuality; fill-rule:evenodd; clip-rule:evenodd" xmlns:xlink="http://www.w3.org/1999/xlink">
<g><path style="opacity:0.948" fill="#000000" d="M 252.5,7.5 C 255.649,7.21138 258.649,7.71138 261.5,9C 291.035,36.2036 320.868,63.0369 351,89.5C 351.333,74.1667 351.667,58.8333 352,43.5C 352.5,41.6667 353.667,40.5 355.5,40C 384.833,39.3333 414.167,39.3333 443.5,40C 445.333,40.5 446.5,41.6667 447,43.5C 447.167,88.1704 447.667,132.837 448.5,177.5C 466.868,194.039 485.035,210.706 503,227.5C 503.817,230.964 503.483,234.298 502,237.5C 493.47,246.364 484.637,254.864 475.5,263C 472.036,263.817 468.702,263.483 465.5,262C 459.667,256.833 453.833,251.667 448,246.5C 447.667,330.833 447.333,415.167 447,499.5C 446.5,501.333 445.333,502.5 443.5,503C 318.167,503.667 192.833,503.667 67.5,503C 65.6667,502.5 64.5,501.333 64,499.5C 63.6667,415.167 63.3333,330.833 63,246.5C 57.1667,251.667 51.3333,256.833 45.5,262C 42.2976,263.483 38.9643,263.817 35.5,263C 26.3631,254.864 17.5298,246.364 9,237.5C 7.51674,234.298 7.1834,230.964 8,227.5C 88.7482,153.248 170.248,79.9143 252.5,7.5 Z M 254.5,27.5 C 257.268,29.0872 259.935,30.9205 262.5,33C 336.132,98.9636 409.465,165.297 482.5,232C 478.667,235.833 474.833,239.667 471,243.5C 400.869,181.704 331.036,119.538 261.5,57C 257.5,55 253.5,55 249.5,57C 179.964,119.538 110.131,181.704 40,243.5C 36.1667,239.667 32.3333,235.833 28.5,232C 104.029,163.968 179.362,95.801 254.5,27.5 Z M 367.5,55.5 C 388.833,55.5 410.167,55.5 431.5,55.5C 431.667,90.8349 431.5,126.168 431,161.5C 410.316,142.648 389.482,123.981 368.5,105.5C 367.501,88.8467 367.167,72.18 367.5,55.5 Z M 254.5,75.5 C 314.036,126.526 372.87,178.526 431,231.5C 431.5,316.833 431.667,402.166 431.5,487.5C 328.166,487.667 224.833,487.5 121.5,487C 144.69,460.111 167.523,432.944 190,405.5C 190.985,403.634 191.485,401.634 191.5,399.5C 191.154,396.206 190.321,393.206 189,390.5C 200.167,379.333 211.333,368.167 222.5,357C 224.279,357.044 225.945,357.711 227.5,359C 230.167,359.667 232.833,359.667 235.5,359C 240.801,354.7 245.801,350.034 250.5,345C 260.827,336.911 272.161,334.578 284.5,338C 288,340.167 290.833,343 293,346.5C 294.704,355.474 296.038,364.474 297,373.5C 307.833,384.333 318.667,395.167 329.5,406C 333.5,408 337.5,408 341.5,406C 361.029,386.805 380.195,367.305 399,347.5C 399.817,344.036 399.483,340.702 398,337.5C 387.167,326.667 376.333,315.833 365.5,305C 357.555,303.883 349.555,302.883 341.5,302C 332.785,298.946 328.285,292.78 328,283.5C 327.942,274.732 327.275,266.065 326,257.5C 312.439,243.27 298.272,229.77 283.5,217C 246.047,191.968 204.713,180.968 159.5,184C 150.959,185.352 143.793,189.186 138,195.5C 132.341,207.992 135.174,217.825 146.5,225C 159.571,228.802 172.571,232.802 185.5,237C 196.435,241.938 205.601,249.105 213,258.5C 215.47,265.865 214.804,272.865 211,279.5C 202.333,288.167 193.667,296.833 185,305.5C 184.015,307.366 183.515,309.366 183.5,311.5C 183.846,314.794 184.679,317.794 186,320.5C 174.833,331.667 163.667,342.833 152.5,354C 149.794,352.679 146.794,351.846 143.5,351.5C 141.366,351.515 139.366,352.015 137.5,353C 118.643,368.024 99.6432,382.858 80.5,397.5C 79.3334,342.17 79.1667,286.836 80,231.5C 138.063,179.264 196.23,127.264 254.5,75.5 Z M 170.5,199.5 C 206.625,200.029 239.959,209.863 270.5,229C 284.605,241.103 298.105,253.936 311,267.5C 311.333,275.833 311.667,284.167 312,292.5C 315.599,306.599 324.432,315.599 338.5,319.5C 329.833,328.833 320.833,337.833 311.5,346.5C 303.63,325.056 288.296,316.223 265.5,320C 252.603,322.614 241.603,328.614 232.5,338C 231.833,338.667 231.167,338.667 230.5,338C 221.652,329.319 212.986,320.486 204.5,311.5C 210.485,305.014 216.652,298.681 223,292.5C 233.149,277.822 234.149,262.488 226,246.5C 218.335,237.169 209.169,229.669 198.5,224C 183.764,218.232 168.764,213.232 153.5,209C 152.167,207.333 152.167,205.667 153.5,204C 159.031,201.461 164.698,199.961 170.5,199.5 Z M 358.5,324.5 C 365.757,330.087 372.424,336.421 378.5,343.5C 364.5,358.167 350.167,372.5 335.5,386.5C 328.833,380.5 322.5,374.167 316.5,367.5C 330.521,353.146 344.521,338.813 358.5,324.5 Z M 198.5,332.5 C 202.737,335.228 206.571,338.561 210,342.5C 210.667,343.167 210.667,343.833 210,344.5C 198.833,355.667 187.667,366.833 176.5,378C 175.833,378.667 175.167,378.667 174.5,378C 171.333,374.833 168.167,371.667 165,368.5C 164.333,367.833 164.333,367.167 165,366.5C 176.369,355.298 187.535,343.965 198.5,332.5 Z M 141.5,371.5 C 151.913,380.409 161.913,389.909 171.5,400C 147.5,429 123.5,458 99.5,487C 92.8417,487.5 86.175,487.666 79.5,487.5C 79.167,464.824 79.5003,442.157 80.5,419.5C 100.876,403.446 121.21,387.446 141.5,371.5 Z"/></g>
</svg>
