<?xml version="1.0" encoding="UTF-8"?>
<!DOCTYPE svg PUBLIC "-//W3C//DTD SVG 1.1//EN" "http://www.w3.org/Graphics/SVG/1.1/DTD/svg11.dtd">
<svg xmlns="http://www.w3.org/2000/svg" version="1.1" width="512px" height="512px" style="shape-rendering:geometricPrecision; text-rendering:geometricPrecision; image-rendering:optimizeQuality; fill-rule:evenodd; clip-rule:evenodd" xmlns:xlink="http://www.w3.org/1999/xlink">
<g><path style="opacity:0.935" fill="#000000" d="M 511.5,396.5 C 511.5,399.167 511.5,401.833 511.5,404.5C 507.982,408.7 503.649,409.533 498.5,407C 492.302,385.469 478.969,370.135 458.5,361C 447,357.262 435.333,356.595 423.5,359C 425.5,363.667 427.5,368.333 429.5,373C 460.575,372.068 478.242,387.068 482.5,418C 479.875,446.125 464.542,461.292 436.5,463.5C 414.384,462.552 399.884,451.552 393,430.5C 390.873,422.09 391.039,413.756 393.5,405.5C 387.872,404.505 382.206,404.171 376.5,404.5C 372.15,436.973 384.483,460.473 413.5,475C 444.754,485.248 469.92,477.081 489,450.5C 492.252,444.411 494.918,438.078 497,431.5C 501.575,426.972 506.408,426.972 511.5,431.5C 511.5,434.5 511.5,437.5 511.5,440.5C 495.324,481.936 464.99,499.769 420.5,494C 388.667,486.167 368.833,466.333 361,434.5C 359.234,424.52 359.067,414.52 360.5,404.5C 351.161,404.334 341.827,404.5 332.5,405C 337.114,444.103 321.781,472.437 286.5,490C 252.55,501.897 223.05,495.063 198,469.5C 182.344,450.549 176.511,428.882 180.5,404.5C 171.143,404.168 161.81,404.502 152.5,405.5C 156.9,440.527 144.234,467.361 114.5,486C 77.7803,503.187 45.2803,497.353 17,468.5C 8.14832,457.136 2.31498,444.469 -0.5,430.5C -0.5,422.5 -0.5,414.5 -0.5,406.5C 11.5211,360.35 41.5211,338.516 89.5,341C 91.5534,335.288 93.22,329.455 94.5,323.5C 87.1591,323.666 79.8258,323.5 72.5,323C 63.8306,321.668 57.3306,317.168 53,309.5C 45.07,290.734 43.07,271.401 47,251.5C 51.3299,239.178 55.6632,226.844 60,214.5C 67.0187,190.687 70.6854,166.353 71,141.5C 71.3333,123.167 71.6667,104.833 72,86.5C 72.7175,82.3451 74.2175,78.5118 76.5,75C 68.56,65.7272 61.3933,55.8938 55,45.5C 53.6991,39.0417 54.6991,33.0417 58,27.5C 64.9732,18.2594 74.1398,14.426 85.5,16C 89.7924,17.3957 93.2924,19.8957 96,23.5C 101,30.1667 106,36.8333 111,43.5C 118.167,37.6667 125.333,31.8333 132.5,26C 135.167,24.6667 137.833,23.3333 140.5,22C 151.441,20.4274 162.441,20.0941 173.5,21C 178.812,25.7609 178.812,30.4276 173.5,35C 164.909,36.2441 156.242,36.9108 147.5,37C 144.554,37.8061 141.888,39.1395 139.5,41C 122.705,54.7924 106.205,68.9591 90,83.5C 89.1376,85.087 88.4709,86.7536 88,88.5C 87.1676,99.5151 87.3342,110.515 88.5,121.5C 106.833,131 125.167,140.5 143.5,150C 153.39,158.059 156.557,168.226 153,180.5C 141.366,200.963 129.533,221.296 117.5,241.5C 123.033,247.198 129.033,252.365 135.5,257C 136.833,257.667 138.167,257.667 139.5,257C 134.26,243.545 137.26,232.212 148.5,223C 159.301,216.364 169.967,209.531 180.5,202.5C 180.863,197.665 182.196,193.165 184.5,189C 196.896,180.274 209.563,171.94 222.5,164C 227.247,163.006 231.747,163.506 236,165.5C 241.485,162.423 246.818,159.09 252,155.5C 248.632,144.491 246.466,133.158 245.5,121.5C 239.491,121.334 233.491,121.501 227.5,122C 226.193,125.974 223.526,128.641 219.5,130C 203.167,130.667 186.833,130.667 170.5,130C 166.474,128.641 163.807,125.974 162.5,122C 135.565,121.07 125.398,107.57 132,81.5C 138.732,69.9031 148.899,64.7364 162.5,66C 163.807,62.026 166.474,59.3594 170.5,58C 186.833,57.3333 203.167,57.3333 219.5,58C 223.526,59.3594 226.193,62.026 227.5,66C 233.491,66.4995 239.491,66.6662 245.5,66.5C 245.5,56.5 245.5,46.5 245.5,36.5C 231.496,36.6666 217.496,36.4999 203.5,36C 197.408,33.7259 195.574,29.5592 198,23.5C 198.903,22.2986 200.069,21.4652 201.5,21C 217.833,20.3333 234.167,20.3333 250.5,21C 255.757,23.2563 259.257,27.0896 261,32.5C 261.058,65.86 261.725,99.1933 263,132.5C 275.124,173.962 301.291,202.796 341.5,219C 349.678,221.636 358.011,223.636 366.5,225C 385.535,226.746 404.535,228.746 423.5,231C 453.717,238.971 468.217,258.471 467,289.5C 464.131,299.04 458.297,306.207 449.5,311C 437.232,317.318 424.232,321.318 410.5,323C 413.142,329.931 415.976,336.765 419,343.5C 455.544,336.276 483.878,348.276 504,379.5C 507.012,385.072 509.512,390.739 511.5,396.5 Z M 77.5,31.5 C 79.7224,31.178 81.5557,31.8446 83,33.5C 87.9249,40.3474 93.0915,47.0141 98.5,53.5C 95.1724,56.6579 91.6724,59.6579 88,62.5C 82.3333,55.5 76.6667,48.5 71,41.5C 70.3333,40.1667 70.3333,38.8333 71,37.5C 73.3353,35.5998 75.502,33.5998 77.5,31.5 Z M 177.5,73.5 C 189.167,73.5 200.833,73.5 212.5,73.5C 212.5,87.1667 212.5,100.833 212.5,114.5C 200.833,114.5 189.167,114.5 177.5,114.5C 177.5,100.833 177.5,87.1667 177.5,73.5 Z M 154.5,82.5 C 156.833,82.5 159.167,82.5 161.5,82.5C 161.5,90.1667 161.5,97.8333 161.5,105.5C 147.614,105.711 143.114,99.3774 148,86.5C 150.095,84.8753 152.261,83.5419 154.5,82.5 Z M 228.5,82.5 C 234.167,82.5 239.833,82.5 245.5,82.5C 245.5,90.1667 245.5,97.8333 245.5,105.5C 239.833,105.5 234.167,105.5 228.5,105.5C 228.5,97.8333 228.5,90.1667 228.5,82.5 Z M 87.5,139.5 C 102.936,147.052 118.27,154.885 133.5,163C 139.104,167.358 139.937,172.525 136,178.5C 125.082,196.001 114.415,213.667 104,231.5C 96.592,225.214 89.092,219.047 81.5,213C 79.8757,211.883 78.8757,210.383 78.5,208.5C 84.315,185.869 87.315,162.869 87.5,139.5 Z M 258.5,170.5 C 259.496,170.414 260.329,170.748 261,171.5C 264.638,177.303 268.471,182.97 272.5,188.5C 267.833,191.5 263.167,194.5 258.5,197.5C 254.005,191.495 249.671,185.328 245.5,179C 250.24,176.64 254.574,173.807 258.5,170.5 Z M 225.5,180.5 C 233.825,191.268 241.825,202.435 249.5,214C 240.596,220.573 231.429,226.74 222,232.5C 213.561,221.801 205.728,210.634 198.5,199C 207.913,193.305 216.913,187.138 225.5,180.5 Z M 283.5,200.5 C 305.828,222.997 332.828,236.497 364.5,241C 383.533,242.746 402.533,244.746 421.5,247C 429.608,249.553 436.608,253.887 442.5,260C 431.956,264.625 420.956,267.625 409.5,269C 356.833,269.667 304.167,269.667 251.5,269C 245.5,265.667 239.5,262.333 233.5,259C 221.881,257.779 210.215,257.112 198.5,257C 203,253.833 207.5,250.667 212,247.5C 218.224,251.539 224.391,251.372 230.5,247C 240.5,240.333 250.5,233.667 260.5,227C 265.622,222.901 267.955,217.734 267.5,211.5C 272.899,207.811 278.233,204.144 283.5,200.5 Z M 189.5,215.5 C 193.934,221.513 198.268,227.679 202.5,234C 191.347,242.412 179.68,250.079 167.5,257C 158.496,257.841 153.496,253.674 152.5,244.5C 153.498,240.995 155.498,238.162 158.5,236C 169.242,229.64 179.575,222.807 189.5,215.5 Z M 72.5,227.5 C 89.2292,240.051 105.563,253.217 121.5,267C 124.718,269.777 128.385,271.777 132.5,273C 163.833,273.333 195.167,273.667 226.5,274C 233.588,278.071 240.922,281.738 248.5,285C 302.833,285.667 357.167,285.667 411.5,285C 424.977,283.055 437.977,279.721 450.5,275C 452.951,282.983 450.951,289.65 444.5,295C 435.042,301.042 424.709,304.709 413.5,306C 358.852,307.619 304.186,307.952 249.5,307C 246.768,306.587 244.101,305.92 241.5,305C 233.5,300.333 225.5,295.667 217.5,291C 200.044,282.403 191.711,287.903 192.5,307.5C 152.106,307.983 111.772,307.483 71.5,306C 67.9131,302.995 65.7464,299.162 65,294.5C 60.5145,281.31 59.8478,267.977 63,254.5C 66.1806,245.479 69.3472,236.479 72.5,227.5 Z M 208.5,305.5 C 218.113,310.642 227.779,315.808 237.5,321C 240.424,321.988 243.424,322.654 246.5,323C 279.167,323.333 311.833,323.667 344.5,324C 337.462,330.707 330.128,337.04 322.5,343C 266.167,343.667 209.833,343.667 153.5,343C 145.788,336.286 137.788,329.953 129.5,324C 151.833,323.667 174.167,323.333 196.5,323C 205.074,320.363 209.074,314.529 208.5,305.5 Z M 369.5,323.5 C 377.752,323.184 385.919,323.518 394,324.5C 401.642,345.76 409.475,366.927 417.5,388C 309.498,388.833 201.498,388.667 93.5,387.5C 98.8572,368.07 104.524,348.737 110.5,329.5C 121.978,338.477 133.311,347.644 144.5,357C 146.087,357.862 147.754,358.529 149.5,359C 208.5,359.667 267.5,359.667 326.5,359C 329.963,358.212 332.963,356.546 335.5,354C 347.028,343.968 358.361,333.801 369.5,323.5 Z M 75.5,356.5 C 78.7473,357.252 82.0806,357.752 85.5,358C 83.7731,362.735 82.2731,367.568 81,372.5C 46.4442,374.397 30.1109,392.73 32,427.5C 40.6139,455.402 59.4472,466.902 88.5,462C 109.506,455.153 120.506,440.653 121.5,418.5C 121.661,413.83 120.995,409.33 119.5,405C 125.157,404.501 130.824,404.334 136.5,404.5C 140.841,432.007 131.841,453.84 109.5,470C 84.0216,484.011 59.6883,482.345 36.5,465C 17.3651,446.918 11.1984,425.085 18,399.5C 28.5247,373.46 47.6914,359.127 75.5,356.5 Z M 69.5,389.5 C 71.8568,389.337 74.1902,389.503 76.5,390C 72.5389,400.203 70.0389,410.703 69,421.5C 72.8919,427.259 77.5586,427.926 83,423.5C 85.3012,417.294 87.1345,410.961 88.5,404.5C 93.2137,404.173 97.8804,404.507 102.5,405.5C 108.845,422.634 104.179,435.8 88.5,445C 68.9152,450.957 55.4152,444.457 48,425.5C 45.7269,407.694 52.8936,395.694 69.5,389.5 Z M 435.5,389.5 C 453.601,390.431 463.935,399.931 466.5,418C 463.686,439.073 451.686,448.74 430.5,447C 414.455,442.075 406.955,431.242 408,414.5C 408.558,411.066 409.391,407.733 410.5,404.5C 414.884,404.174 419.217,404.508 423.5,405.5C 425.441,411.657 427.774,417.657 430.5,423.5C 435.328,427.702 439.828,427.368 444,422.5C 444.667,419.833 444.667,417.167 444,414.5C 440.859,406.243 438.026,397.91 435.5,389.5 Z M 196.5,404.5 C 202.176,404.334 207.843,404.501 213.5,405C 207.534,435.079 219.2,454.412 248.5,463C 275.442,465.626 292.942,454.126 301,428.5C 302.364,420.547 302.197,412.547 300.5,404.5C 305.833,404.5 311.167,404.5 316.5,404.5C 321.302,435.727 309.969,458.893 282.5,474C 250.938,485.821 225.104,478.321 205,451.5C 196.187,436.932 193.353,421.265 196.5,404.5 Z M 230.5,404.5 C 236.5,404.5 242.5,404.5 248.5,404.5C 248.334,409.844 248.501,415.177 249,420.5C 253.58,428.067 258.58,428.401 264,421.5C 264.499,415.843 264.666,410.176 264.5,404.5C 270.537,404.171 276.537,404.504 282.5,405.5C 289.242,422.777 284.575,435.944 268.5,445C 252.742,450.414 240.242,446.247 231,432.5C 226.507,423.245 226.34,413.911 230.5,404.5 Z"/></g>
</svg>
