<?xml version="1.0" standalone="no"?>
<!DOCTYPE svg PUBLIC "-//W3C//DTD SVG 20010904//EN"
 "http://www.w3.org/TR/2001/REC-SVG-20010904/DTD/svg10.dtd">
<svg version="1.0" xmlns="http://www.w3.org/2000/svg"
 width="512.000000pt" height="512.000000pt" viewBox="0 0 512.000000 512.000000"
 preserveAspectRatio="xMidYMid meet">

<g transform="translate(0.000000,512.000000) scale(0.100000,-0.100000)"
fill="#000000" stroke="none">
<path d="M3583 5022 c-147 -52 -232 -179 -221 -325 8 -101 76 -210 156 -251
l29 -15 -26 -135 -25 -136 -35 -6 c-95 -17 -194 -94 -234 -182 -18 -38 -22
-65 -22 -137 l1 -91 -130 -77 -130 -78 -26 19 c-71 53 -112 67 -200 67 -100 0
-159 -23 -225 -89 -66 -67 -90 -126 -89 -226 0 -72 4 -93 26 -136 27 -51 66
-98 105 -125 l22 -15 -65 -224 c-35 -124 -69 -241 -74 -261 -9 -34 -13 -37
-58 -43 -106 -14 -209 -92 -254 -191 -31 -70 -31 -180 1 -252 29 -66 110 -144
176 -168 28 -10 51 -19 53 -20 3 -2 43 -578 39 -580 -1 -2 -18 -10 -37 -20
-64 -32 -106 -74 -141 -137 -30 -56 -34 -72 -34 -139 l0 -77 -362 -181 -362
-181 -28 26 c-15 14 -50 38 -78 52 -43 22 -62 26 -135 25 -47 -1 -96 -3 -109
-5 -21 -3 -51 32 -231 265 l-206 268 30 62 c27 53 31 72 30 142 0 67 -5 89
-27 133 -15 29 -24 58 -20 65 4 7 60 78 124 158 l118 147 38 -14 c102 -36 232
-4 319 78 72 68 98 130 99 233 0 67 -4 89 -28 136 -32 67 -99 132 -165 162
-73 33 -190 30 -263 -6 -66 -32 -132 -99 -162 -165 -33 -72 -31 -188 5 -266
16 -32 25 -63 21 -70 -4 -6 -60 -77 -125 -158 l-117 -146 -48 15 c-140 43
-305 -33 -374 -172 -35 -72 -35 -198 0 -270 32 -63 93 -124 156 -155 42 -20
64 -24 135 -23 47 1 96 3 109 5 21 3 52 -33 231 -265 l206 -268 -30 -62 c-27
-53 -31 -72 -31 -142 1 -95 25 -156 90 -221 66 -66 125 -89 225 -89 100 0 159
23 225 89 62 63 88 126 89 217 l1 77 364 181 364 182 31 -30 c112 -108 315
-101 431 14 61 62 90 135 90 230 -1 72 -4 87 -35 144 -38 70 -94 120 -168 147
-26 10 -48 18 -50 19 -3 2 -43 578 -39 581 1 1 21 11 44 23 56 28 107 80 140
144 24 45 28 64 28 137 0 73 -4 92 -27 136 -27 52 -66 99 -105 125 l-22 15 65
224 c35 124 69 241 74 261 10 35 13 37 62 43 63 9 159 58 194 99 14 16 37 53
52 81 23 44 26 63 26 141 l0 91 130 78 130 77 26 -19 c68 -51 113 -66 195 -66
66 -1 90 4 135 25 56 26 102 64 132 108 l17 24 297 -79 298 -80 11 -54 c22
-111 84 -193 180 -240 42 -20 64 -25 135 -24 100 0 160 24 225 89 65 65 89
125 89 225 1 100 -23 159 -89 225 -64 64 -125 89 -220 90 -113 0 -191 -39
-264 -130 l-21 -28 -297 79 -297 80 -12 54 c-7 30 -9 57 -4 60 4 3 159 106
344 229 315 210 337 223 354 208 68 -61 222 -81 314 -40 66 30 133 95 165 162
23 46 28 69 28 131 -1 126 -64 228 -178 287 -44 23 -65 27 -137 27 -70 1 -94
-4 -135 -24 -111 -55 -178 -157 -179 -275 -1 -38 2 -81 6 -95 6 -24 -12 -37
-336 -253 l-343 -228 -40 26 -39 26 24 132 c13 73 29 135 35 139 7 4 21 8 32
8 39 0 121 48 163 94 64 69 86 125 86 216 0 94 -27 159 -92 223 -87 86 -213
117 -319 79z m160 -156 c103 -43 128 -177 48 -257 -112 -113 -296 -12 -267
146 18 94 128 150 219 111z m1040 -80 c104 -43 128 -175 47 -256 -66 -66 -156
-67 -221 -1 -124 123 13 325 174 257z m-1200 -800 c103 -43 128 -177 48 -257
-112 -113 -296 -12 -267 146 18 94 128 150 219 111z m1200 -320 c103 -43 128
-177 48 -257 -112 -113 -296 -12 -267 146 18 94 128 150 219 111z m-2000 -160
c103 -43 128 -177 48 -257 -112 -113 -296 -12 -267 146 18 94 128 150 219 111z
m-1680 -1120 c104 -43 128 -175 47 -256 -66 -66 -156 -67 -221 -1 -124 123 13
325 174 257z m1360 0 c103 -43 128 -177 48 -257 -65 -65 -157 -65 -222 0 -124
123 13 325 174 257z m-2000 -800 c103 -43 128 -177 48 -257 -65 -65 -157 -65
-222 0 -124 123 13 325 174 257z m2080 -400 c103 -43 128 -177 48 -257 -65
-65 -157 -65 -222 0 -124 123 13 325 174 257z m-1280 -640 c103 -43 128 -177
48 -257 -65 -65 -157 -65 -222 0 -124 123 13 325 174 257z"/>
</g>
</svg>
