<?xml version="1.0" encoding="UTF-8"?>
<!DOCTYPE svg PUBLIC "-//W3C//DTD SVG 1.1//EN" "http://www.w3.org/Graphics/SVG/1.1/DTD/svg11.dtd">
<svg xmlns="http://www.w3.org/2000/svg" version="1.1" width="512px" height="512px" style="shape-rendering:geometricPrecision; text-rendering:geometricPrecision; image-rendering:optimizeQuality; fill-rule:evenodd; clip-rule:evenodd" xmlns:xlink="http://www.w3.org/1999/xlink">
<g><path style="opacity:0.984" fill="#000000" d="M 62.5,-0.5 C 71.8333,-0.5 81.1667,-0.5 90.5,-0.5C 107.25,2.79297 121.75,10.4596 134,22.5C 146.121,10.185 160.621,2.51834 177.5,-0.5C 186.833,-0.5 196.167,-0.5 205.5,-0.5C 222.535,2.26856 237.035,9.93522 249,22.5C 261.25,10.4596 275.75,2.79297 292.5,-0.5C 301.833,-0.5 311.167,-0.5 320.5,-0.5C 354.639,6.47149 375.473,27.1382 383,61.5C 383.092,138.842 383.758,216.175 385,293.5C 387.773,328.827 399.44,360.827 420,389.5C 432.208,406.048 445.542,421.715 460,436.5C 457.196,416.471 453.863,396.471 450,376.5C 447.002,355.832 455.836,346.665 476.5,349C 482.667,351.167 486.833,355.333 489,361.5C 496.207,402.359 503.707,443.026 511.5,483.5C 511.5,488.5 511.5,493.5 511.5,498.5C 510.024,500.769 508.524,503.102 507,505.5C 504.264,507.752 501.431,509.752 498.5,511.5C 493.167,511.5 487.833,511.5 482.5,511.5C 442.578,504.678 402.578,497.511 362.5,490C 351.248,484.657 347.081,475.824 350,463.5C 355.626,451.942 364.792,447.775 377.5,451C 392.784,453.992 408.117,456.326 423.5,458C 395.582,430.007 373.748,397.84 358,361.5C 350.008,340.205 345.341,318.205 344,295.5C 343.667,221.167 343.333,146.833 343,72.5C 336.853,45.0689 320.02,34.9022 292.5,42C 280.998,46.8358 273.832,55.3358 271,67.5C 269.677,172.465 269.011,277.465 269,382.5C 263.657,393.752 254.824,397.919 242.5,395C 236.333,392.833 232.167,388.667 230,382.5C 229.667,280.5 229.333,178.5 229,76.5C 222.961,43.9014 204.128,33.0681 172.5,44C 163.323,50.1811 157.49,58.6811 155,69.5C 153.682,173.808 153.015,278.141 153,382.5C 147.657,393.752 138.824,397.919 126.5,395C 120.333,392.833 116.167,388.667 114,382.5C 113.667,278.5 113.333,174.5 113,70.5C 106.693,46.4192 91.1927,36.5859 66.5,41C 55.288,43.8737 47.4547,50.707 43,61.5C 41.08,67.7664 39.4134,74.0997 38,80.5C 32.3073,90.4205 23.8073,93.9205 12.5,91C 6.31536,88.6469 1.98203,84.4802 -0.5,78.5C -0.5,72.8333 -0.5,67.1667 -0.5,61.5C 7.34646,27.3192 28.3465,6.65251 62.5,-0.5 Z"/></g>
</svg>
