<?xml version="1.0" encoding="UTF-8"?>
<!DOCTYPE svg PUBLIC "-//W3C//DTD SVG 1.1//EN" "http://www.w3.org/Graphics/SVG/1.1/DTD/svg11.dtd">
<svg xmlns="http://www.w3.org/2000/svg" version="1.1" width="512px" height="512px" style="shape-rendering:geometricPrecision; text-rendering:geometricPrecision; image-rendering:optimizeQuality; fill-rule:evenodd; clip-rule:evenodd" xmlns:xlink="http://www.w3.org/1999/xlink">
<g><path style="opacity:0.94" fill="#000000" d="M 119.5,-0.5 C 210.167,-0.5 300.833,-0.5 391.5,-0.5C 393.673,1.49195 395.006,3.99195 395.5,7C 393.182,30.4822 380.515,44.6489 357.5,49.5C 352.58,64.0976 349.58,79.0976 348.5,94.5C 348.833,96.8333 349.167,99.1667 349.5,101.5C 375.836,82.0657 404.502,77.5657 435.5,88C 458.675,100.201 472.175,119.368 476,145.5C 478.304,176.25 470.638,204.25 453,229.5C 448,235.833 443,242.167 438,248.5C 442.378,280.428 438.712,311.428 427,341.5C 413.941,373.629 397.274,403.629 377,431.5C 356.484,459.848 333.984,486.515 309.5,511.5C 273.5,511.5 237.5,511.5 201.5,511.5C 160.124,469.763 125.291,423.096 97,371.5C 84.0364,346.276 75.7031,319.609 72,291.5C 71.8333,286.333 71.6667,281.167 71.5,276C 71.5925,266.769 72.0925,257.602 73,248.5C 52.9162,226.999 40.2495,201.666 35,172.5C 31.0382,144.058 38.8715,119.558 58.5,99C 75.8435,84.8824 95.5101,79.5491 117.5,83C 133.639,85.7654 148.305,91.9321 161.5,101.5C 162.59,94.4914 162.424,87.4914 161,80.5C 159.212,69.9749 156.712,59.6416 153.5,49.5C 130.382,45.0454 117.716,31.0454 115.5,7.5C 115.892,4.29922 117.226,1.63255 119.5,-0.5 Z M 133.5,14.5 C 214.833,14.5 296.167,14.5 377.5,14.5C 374.352,23.8131 368.019,29.9798 358.5,33C 289.833,33.6667 221.167,33.6667 152.5,33C 142.576,30.3967 136.242,24.23 133.5,14.5 Z M 170.5,49.5 C 227.167,49.5 283.833,49.5 340.5,49.5C 332.377,75.0634 330.543,101.063 335,127.5C 336.374,134.29 338.541,140.79 341.5,147C 304.833,147.333 268.167,147.667 231.5,148C 227.139,150.226 225.639,153.726 227,158.5C 227.833,160.667 229.333,162.167 231.5,163C 271.5,163.333 311.5,163.667 351.5,164C 360.6,174.434 370.933,183.434 382.5,191C 420.8,225.082 432.633,266.915 418,316.5C 415.257,325.56 412.424,334.56 409.5,343.5C 306.833,343.5 204.167,343.5 101.5,343.5C 96.9712,330.743 93.1379,317.743 90,304.5C 80.6604,258.98 93.4937,221.146 128.5,191C 140.067,183.434 150.4,174.434 159.5,164C 175.167,163.667 190.833,163.333 206.5,163C 214.052,158.465 214.385,153.465 207.5,148C 194.82,147.833 182.154,147.333 169.5,146.5C 178.413,124.591 180.913,101.925 177,78.5C 175.302,68.7107 173.136,59.044 170.5,49.5 Z M 104.5,97.5 C 122.934,98.8837 139.601,105.05 154.5,116C 157.272,117.531 159.272,119.698 160.5,122.5C 159.582,127.671 158.082,132.671 156,137.5C 144.144,126.486 130.311,118.986 114.5,115C 83.3036,112.857 67.3036,127.523 66.5,159C 67.6292,179.915 74.6292,198.582 87.5,215C 84.2714,219.958 81.438,225.125 79,230.5C 64.298,213.091 54.9646,193.091 51,170.5C 47.2913,146.624 54.1246,126.457 71.5,110C 81.3048,102.421 92.3048,98.2544 104.5,97.5 Z M 405.5,97.5 C 435.877,100.706 454.044,117.372 460,147.5C 462.156,169.208 457.823,189.542 447,208.5C 442.391,216.107 437.391,223.441 432,230.5C 429.562,225.125 426.729,219.958 423.5,215C 440.171,194.321 446.671,170.821 443,144.5C 433.062,117.286 414.229,108.452 386.5,118C 374.96,122.884 364.46,129.384 355,137.5C 352.237,132.119 350.904,126.452 351,120.5C 366.964,107.43 385.131,99.763 405.5,97.5 Z M 99.5,130.5 C 108.705,129.801 117.372,131.635 125.5,136C 133.564,140.57 140.898,146.07 147.5,152.5C 138.913,162.92 128.913,171.753 117.5,179C 110.302,185.864 103.468,193.03 97,200.5C 86.451,185.852 81.7843,169.519 83,151.5C 84.7213,141.328 90.2213,134.328 99.5,130.5 Z M 399.5,130.5 C 419.115,129.614 428.782,139.114 428.5,159C 427.639,174.251 422.806,188.085 414,200.5C 402.342,186.17 388.842,174.003 373.5,164C 369.607,160.61 366.273,156.777 363.5,152.5C 373.76,142.225 385.76,134.891 399.5,130.5 Z M 109.5,360.5 C 206.666,359.334 303.999,359.168 401.5,360C 383.473,394.007 362.306,425.841 338,455.5C 326.539,469.296 314.706,482.796 302.5,496C 271.167,496.667 239.833,496.667 208.5,496C 169.489,455.112 136.489,409.945 109.5,360.5 Z"/></g>
</svg>
