<svg version="1.1" id="Layer_1" xmlns="http://www.w3.org/2000/svg" xmlns:xlink="http://www.w3.org/1999/xlink" x="0px" y="0px"
	 width="100%" viewBox="0 0 512 512" enable-background="new 0 0 512 512" xml:space="preserve">
<path fill="#000000" opacity="1.000000" stroke="none" 
	d="
M513.000000,148.000000 
	C513.000000,247.020889 513.000000,346.041779 512.910278,445.866211 
	C512.371643,447.561218 511.928314,448.455627 511.472961,449.343872 
	C505.431702,461.128235 496.342682,467.489624 482.549561,467.477814 
	C331.781464,467.348694 181.013245,467.384064 30.245123,467.475433 
	C24.887205,467.478699 20.127069,466.259338 15.480922,463.775726 
	C8.138353,459.850769 4.218505,453.233734 1.000000,446.000000 
	C1.000000,346.312439 1.000000,246.624878 1.279416,146.290649 
	C2.526874,144.103287 3.481189,142.553757 4.465229,141.023346 
	C10.103571,132.254395 17.711113,126.736320 28.515118,126.627838 
	C42.219406,126.490227 40.531960,128.119553 40.626667,114.188446 
	C40.724228,99.838058 53.760891,86.686234 68.024590,86.628403 
	C76.352745,86.594635 84.702187,87.004189 93.004761,86.542992 
	C107.168007,85.756248 122.099518,100.750755 121.499290,115.247795 
	C120.974106,127.932182 120.073685,126.350090 132.995911,126.723877 
	C137.848770,126.864258 140.468872,125.225410 142.596344,120.840248 
	C151.678146,102.120789 160.977692,83.503082 170.476028,64.990997 
	C176.618607,53.019196 185.761017,46.266140 200.220627,46.452698 
	C238.524399,46.946892 276.840515,46.830135 315.147980,46.508831 
	C328.563019,46.396309 337.263123,53.074619 342.992035,64.010262 
	C352.875092,82.875381 362.191986,102.040054 371.545837,121.177078 
	C373.471344,125.116425 375.836426,126.743454 380.370728,126.720093 
	C415.348602,126.539803 450.327942,126.655815 485.306610,126.576637 
	C489.250763,126.567703 492.810669,127.482285 496.355377,129.072617 
	C504.810822,132.866150 509.560394,139.838074 513.000000,148.000000 
M370.501099,387.408783 
	C365.836334,387.403320 361.164581,387.551849 356.509216,387.339996 
	C353.238617,387.191162 350.764038,388.284973 348.528107,390.595734 
	C341.679688,397.673309 333.857788,403.514099 325.472992,408.668427 
	C295.206177,427.274017 262.478607,431.584259 228.175430,424.632904 
	C204.003708,419.734619 183.154083,407.993652 165.477524,390.759918 
	C163.202332,388.541687 160.829590,387.358490 157.543365,387.363464 
	C114.060417,387.429230 70.577209,387.433685 27.094440,387.314056 
	C22.698803,387.301971 21.255831,388.934448 21.316532,393.209167 
	C21.496294,405.868347 21.351686,418.531830 21.387094,431.193451 
	C21.418287,442.348236 25.644600,446.610077 36.776005,446.611023 
	C183.385666,446.623749 329.995331,446.622955 476.604980,446.609375 
	C488.513550,446.608276 492.584076,442.563110 492.618469,430.808502 
	C492.653534,418.813293 492.639313,406.817871 492.625854,394.822540 
	C492.617645,387.490570 492.532257,387.400970 484.956543,387.400055 
	C447.137909,387.395508 409.319305,387.404633 370.501099,387.408783 
M37.504482,206.622238 
	C74.660355,206.622253 111.818565,206.398972 148.970352,206.788223 
	C157.642166,206.879089 165.042847,205.957443 170.438110,198.423569 
	C171.552368,196.867615 173.513107,195.920212 175.076431,194.683121 
	C207.677444,168.884857 244.772171,161.410583 284.940155,169.132431 
	C309.622467,173.877350 331.035278,185.776978 348.859253,203.720459 
	C350.881653,205.756424 353.043945,206.663300 355.933411,206.659332 
	C399.587646,206.599411 443.242096,206.576889 486.896179,206.684387 
	C491.273438,206.695175 492.754700,205.095642 492.694794,200.806122 
	C492.515686,187.978912 492.675720,175.147400 492.615753,162.317963 
	C492.566376,151.759354 488.282074,147.416275 477.766815,147.414825 
	C330.641693,147.394608 183.516571,147.397095 36.391464,147.418503 
	C25.861584,147.420029 21.461807,151.811234 21.394035,162.242477 
	C21.330168,172.072617 21.378002,181.903503 21.376888,191.734055 
	C21.375202,206.625610 21.375273,206.625610 37.504482,206.622238 
M492.634796,310.500183 
	C492.631805,284.856262 492.556976,259.211975 492.694000,233.568817 
	C492.717834,229.107193 491.303497,227.324966 486.672089,227.338760 
	C449.372253,227.449799 412.071960,227.376862 374.771790,227.396271 
	C369.263580,227.399139 368.836578,228.141357 371.553680,233.074432 
	C380.072357,248.540680 385.627441,265.094666 387.143311,282.585846 
	C389.513062,309.929657 385.284760,336.248077 371.768616,360.610107 
	C368.712189,366.119141 369.039062,366.611267 375.346558,366.613892 
	C412.313721,366.629333 449.280853,366.629822 486.248016,366.613983 
	C492.292725,366.611389 492.619629,366.257324 492.627625,359.957153 
	C492.648071,343.804871 492.634674,327.652527 492.634796,310.500183 
M144.361206,364.276703 
	C119.298584,318.956665 120.560860,273.606598 144.597290,228.250320 
	C142.769745,227.132401 141.067474,227.411346 139.462509,227.410156 
	C101.975258,227.382202 64.487801,227.435806 27.000925,227.310974 
	C22.503384,227.295990 21.313721,229.125778 21.322950,233.296234 
	C21.416994,275.781647 21.420477,318.267426 21.317554,360.752808 
	C21.307297,364.987610 22.598852,366.700500 27.037424,366.686798 
	C64.857597,366.569763 102.678291,366.628754 140.498764,366.580719 
	C141.959396,366.578857 144.041321,367.440887 144.361206,364.276703 
M295.350891,398.756989 
	C312.359497,392.047485 327.480408,382.289917 339.209045,368.312592 
	C360.733673,342.661163 369.718445,312.924500 364.488220,279.630707 
	C360.479431,254.111984 348.519714,232.348831 329.016571,215.499527 
	C307.230377,196.677856 281.773987,187.148849 252.508301,188.303833 
	C230.673187,189.165558 211.283829,196.440994 193.588562,208.734238 
	C177.497208,219.913193 166.077087,234.901733 157.719986,252.586624 
	C149.202438,270.611023 146.458649,289.654877 148.720886,308.977692 
	C152.186401,338.578094 165.870422,363.170685 189.339554,381.955902 
	C205.978455,395.274078 224.975250,403.389252 246.111938,405.413361 
	C262.607880,406.993073 279.007355,405.327484 295.350891,398.756989 
M288.500214,67.405457 
	C261.028290,67.403038 233.556290,67.433784 206.084457,67.377060 
	C198.314697,67.361015 192.683350,69.676788 189.127625,77.555382 
	C182.493835,92.254196 174.848907,106.495995 167.670700,120.950806 
	C166.963974,122.373932 165.707764,123.722778 166.568283,126.092583 
	C226.800232,126.092583 287.191620,126.092583 347.382751,126.092583 
	C348.174316,124.407997 347.539429,123.379303 347.025452,122.350067 
	C338.926605,106.131653 330.815979,89.919121 322.719025,73.699768 
	C321.277618,70.812492 318.925018,69.160942 315.840637,68.430061 
	C307.126709,66.365173 298.276093,67.853508 288.500214,67.405457 
M91.287811,108.176254 
	C84.900108,106.669685 78.378189,106.899651 72.037941,107.800880 
	C63.438076,109.023308 61.321571,114.379707 61.416103,122.991119 
	C61.443222,125.461479 62.860241,126.587692 65.221107,126.590935 
	C75.670135,126.605293 86.119209,126.595879 96.568260,126.592308 
	C98.602325,126.591614 100.025810,125.877007 100.552475,123.675697 
	C102.087112,117.261330 98.420326,110.546425 91.287811,108.176254 
z"/>
<path fill="#000000" opacity="1.000000" stroke="none" 
	d="
M442.319733,187.371155 
	C434.899384,186.716980 432.343323,183.420349 432.640533,175.481064 
	C432.848907,169.915543 436.345337,166.688644 442.399994,166.640961 
	C449.563293,166.584534 456.728180,166.573502 463.891052,166.656006 
	C470.092102,166.727417 473.347443,170.290298 473.371521,176.807373 
	C473.396942,183.688492 470.188629,187.288223 463.773712,187.359055 
	C456.777374,187.436310 449.779480,187.375244 442.319733,187.371155 
z"/>
<path fill="#000000" opacity="1.000000" stroke="none" 
	d="
M413.360718,178.722107 
	C411.894531,185.967651 407.896423,188.431244 400.073212,187.336365 
	C394.803864,186.598907 392.112152,182.046951 392.654938,174.791168 
	C393.044830,169.579315 396.791138,166.627213 403.014343,166.627930 
	C410.443420,166.628784 413.336975,169.888565 413.360718,178.722107 
z"/>
<path fill="#000000" opacity="1.000000" stroke="none" 
	d="
M166.633575,289.145325 
	C168.057938,269.270538 175.506668,252.390030 188.036057,237.673126 
	C201.071350,222.361984 217.471176,212.202377 237.120987,208.383499 
	C266.760803,202.623077 293.803558,208.478165 317.066895,228.718704 
	C334.245850,243.665497 344.427216,262.619843 347.037628,284.918976 
	C350.184021,311.797272 343.531006,336.249512 325.259949,357.073853 
	C310.358002,374.058258 291.701630,384.325104 269.578583,386.990204 
	C242.532791,390.248352 217.891647,383.755341 196.936172,365.282318 
	C182.075943,352.182556 172.877899,335.969849 168.225830,316.905670 
	C166.025543,307.888916 166.763672,298.741638 166.633575,289.145325 
M265.986725,228.495926 
	C259.348022,228.560257 252.698685,227.882248 246.075882,228.965027 
	C229.101883,231.740097 215.213699,240.046112 204.254196,253.046036 
	C190.754105,269.059540 185.960678,287.649994 189.161926,308.343475 
	C191.776733,325.246216 200.387039,338.773529 213.092941,349.696075 
	C228.433533,362.883606 246.641159,368.038330 266.460236,365.215698 
	C288.460999,362.082306 304.908295,349.955383 316.588013,331.050690 
	C329.995178,309.349976 328.586334,277.690247 313.074493,257.287384 
	C301.316467,241.821915 286.190430,231.880722 265.986725,228.495926 
z"/>
<path fill="#000000" opacity="1.000000" stroke="none" 
	d="
M278.987305,86.622185 
	C282.483490,86.628227 285.485718,86.555679 288.482025,86.657265 
	C294.216583,86.851685 297.362061,90.517334 297.372620,96.879913 
	C297.383392,103.371277 294.344391,107.303322 288.733063,107.330185 
	C267.569977,107.431534 246.405762,107.425369 225.242691,107.317116 
	C219.552353,107.288010 216.619614,103.487198 216.634338,96.885262 
	C216.648712,90.441200 219.715820,86.704750 225.498383,86.671463 
	C243.161987,86.569771 260.826508,86.626907 278.987305,86.622185 
z"/>
<path fill="#000000" opacity="1.000000" stroke="none" 
	d="
M231.266632,253.145050 
	C240.183243,247.376114 249.728287,245.947968 259.715576,246.703262 
	C263.875305,247.017838 267.111053,250.735245 267.358704,255.087189 
	C267.764557,262.220367 265.472748,266.333496 260.065491,267.294952 
	C253.048965,268.542603 246.095932,269.500366 240.011200,273.880676 
	C233.347885,278.677521 230.197998,285.330200 228.432739,292.934265 
	C227.948730,295.019226 227.839996,297.188995 227.408066,299.288788 
	C226.082870,305.731384 222.098724,308.172333 214.391998,307.353394 
	C209.522217,306.835938 206.788330,303.303436 206.615250,297.587006 
	C206.023209,278.036011 214.484756,263.495819 231.266632,253.145050 
z"/>
</svg>