<?xml version="1.0" encoding="UTF-8"?>
<!DOCTYPE svg PUBLIC "-//W3C//DTD SVG 1.1//EN" "http://www.w3.org/Graphics/SVG/1.1/DTD/svg11.dtd">
<svg xmlns="http://www.w3.org/2000/svg" version="1.1" width="512px" height="512px" style="shape-rendering:geometricPrecision; text-rendering:geometricPrecision; image-rendering:optimizeQuality; fill-rule:evenodd; clip-rule:evenodd" xmlns:xlink="http://www.w3.org/1999/xlink">
<g><path style="opacity:0.932" fill="#000000" d="M 120.5,47.5 C 135.367,45.0115 145.534,50.6782 151,64.5C 153.982,79.3761 148.482,89.5428 134.5,95C 119.624,97.9816 109.457,92.4816 104,78.5C 101.146,63.5328 106.646,53.1994 120.5,47.5 Z M 124.5,64.5 C 133.85,64.3654 136.517,68.532 132.5,77C 123.956,80.3224 120.123,77.4891 121,68.5C 121.69,66.6498 122.856,65.3164 124.5,64.5 Z"/></g>
<g><path style="opacity:0.923" fill="#000000" d="M 160.5,97.5 C 165.419,100.748 169.753,104.748 173.5,109.5C 164.987,118.517 158.487,128.851 154,140.5C 152.892,144.086 152.392,147.753 152.5,151.5C 146.833,151.5 141.167,151.5 135.5,151.5C 136.41,135.938 141.576,121.938 151,109.5C 154.381,105.625 157.547,101.625 160.5,97.5 Z"/></g>
<g><path style="opacity:0.932" fill="#000000" d="M 64.5,103.5 C 79.367,101.012 89.5337,106.678 95,120.5C 97.9816,135.376 92.4816,145.543 78.5,151C 63.6239,153.982 53.4572,148.482 48,134.5C 45.1465,119.533 50.6465,109.199 64.5,103.5 Z M 68.5,120.5 C 77.8504,120.365 80.517,124.532 76.5,133C 67.9562,136.322 64.1229,133.489 65,124.5C 65.6897,122.65 66.8564,121.316 68.5,120.5 Z"/></g>
<g><path style="opacity:0.938" fill="#000000" d="M 511.5,156.5 C 511.5,161.167 511.5,165.833 511.5,170.5C 508.832,177.341 504.166,182.508 497.5,186C 455.5,206.333 413.5,226.667 371.5,247C 366.167,247.667 360.833,247.667 355.5,247C 353.481,246.55 351.648,245.717 350,244.5C 361.282,285.531 356.282,324.531 335,361.5C 300.869,414.235 252.702,446.402 190.5,458C 143.474,466.551 99.1409,459.218 57.5,436C 30.2293,418.918 10.896,395.418 -0.5,365.5C -0.5,360.5 -0.5,355.5 -0.5,350.5C 3.19119,342.952 7.52452,335.785 12.5,329C 8.04595,315.156 6.21262,300.99 7,286.5C 8.11903,281.761 10.619,277.928 14.5,275C 19.4809,272.534 24.6476,270.7 30,269.5C 31.3012,247.564 31.9679,225.564 32,203.5C 37.7231,187.797 48.8898,181.297 65.5,184C 77.3075,187.423 84.1408,195.257 86,207.5C 85.0092,227.963 86.3425,248.297 90,268.5C 90.5468,271.702 91.5468,274.702 93,277.5C 103.94,272.019 115.107,267.019 126.5,262.5C 121.788,237.134 127.621,214.468 144,194.5C 144.718,193.549 145.551,193.383 146.5,194C 150.349,197.682 154.016,201.515 157.5,205.5C 144.926,219.896 140.259,236.563 143.5,255.5C 182.74,241.107 223.074,230.94 264.5,225C 280.806,223.505 297.139,223.172 313.5,224C 320.786,224.757 327.786,226.59 334.5,229.5C 335.308,229.192 335.975,228.692 336.5,228C 332.99,215.196 336.324,204.529 346.5,196C 390.5,176 434.5,156 478.5,136C 489.719,133.406 498.886,136.572 506,145.5C 507.879,149.259 509.713,152.925 511.5,156.5 Z M 482.5,152.5 C 490.009,151.835 494.009,155.335 494.5,163C 494.561,165.261 493.894,167.261 492.5,169C 459.289,185.439 425.956,201.606 392.5,217.5C 391.373,210.247 388.373,203.914 383.5,198.5C 416.44,182.861 449.44,167.528 482.5,152.5 Z M 54.5,200.5 C 62.1627,199.076 66.9961,202.076 69,209.5C 66.7338,242.971 71.7338,275.305 84,306.5C 94.3341,329.167 110.501,346.334 132.5,358C 115.107,362.788 97.4407,366.288 79.5,368.5C 56.5257,365.362 40.6924,353.028 32,331.5C 26.2462,318.066 23.5796,304.066 24,289.5C 33.6778,288.999 41.0112,284.666 46,276.5C 47.3012,254.564 47.9679,232.564 48,210.5C 48.4352,205.945 50.6018,202.611 54.5,200.5 Z M 359.5,208.5 C 370.318,207.817 375.151,212.817 374,223.5C 372.222,227.305 369.388,229.472 365.5,230C 369.917,222.423 367.917,217.256 359.5,214.5C 357.189,215.214 355.022,216.214 353,217.5C 353.732,213.582 355.899,210.582 359.5,208.5 Z M 292.5,239.5 C 303.372,239.633 314.039,241.133 324.5,244C 333.509,247.591 335.009,253.424 329,261.5C 326.036,265.466 322.703,269.133 319,272.5C 316.478,251.66 304.978,243.827 284.5,249C 280.421,251.075 276.921,253.908 274,257.5C 270.773,268.509 267.44,279.509 264,290.5C 259.453,301.372 252.953,310.872 244.5,319C 218.012,331.273 190.845,341.773 163,350.5C 131.021,343.427 109.188,324.594 97.5,294C 109.382,288.54 121.382,283.373 133.5,278.5C 137.463,283.31 141.296,288.31 145,293.5C 149.593,289.785 154.093,285.952 158.5,282C 155.974,278.974 153.64,275.807 151.5,272.5C 196.781,254.096 243.781,243.096 292.5,239.5 Z M 291.5,264.5 C 295.684,263.704 298.85,265.037 301,268.5C 301.785,274.649 301.118,280.649 299,286.5C 298.215,288.286 297.049,289.786 295.5,291C 289.915,294.375 284.415,297.875 279,301.5C 282.913,290.523 285.913,279.189 288,267.5C 289.145,266.364 290.312,265.364 291.5,264.5 Z M 29.5,385.5 C 68.8801,388.245 107.547,384.078 145.5,373C 194.793,360.015 241.793,341.349 286.5,317C 301.662,308.169 315.995,298.169 329.5,287C 332.704,284.131 335.537,280.965 338,277.5C 339.883,310.514 330.883,340.181 311,366.5C 267.884,419.965 211.718,445.798 142.5,444C 101.956,442.167 67.4557,427 39,398.5C 35.3351,394.492 32.1684,390.159 29.5,385.5 Z M 19.5,348.5 C 20.4959,348.414 21.3292,348.748 22,349.5C 26.0703,356.24 30.9036,362.407 36.5,368C 29.2249,368.242 22.7249,366.075 17,361.5C 16.3333,359.167 16.3333,356.833 17,354.5C 18.122,352.593 18.9553,350.593 19.5,348.5 Z"/></g>
<g><path style="opacity:1" fill="#000000" d="M 15.5,151.5 C 20.8333,151.5 26.1667,151.5 31.5,151.5C 31.5,156.833 31.5,162.167 31.5,167.5C 26.1667,167.5 20.8333,167.5 15.5,167.5C 15.5,162.167 15.5,156.833 15.5,151.5 Z"/></g>
<g><path style="opacity:1" fill="#000000" d="M 103.5,159.5 C 108.833,159.5 114.167,159.5 119.5,159.5C 119.5,164.833 119.5,170.167 119.5,175.5C 114.167,175.5 108.833,175.5 103.5,175.5C 103.5,170.167 103.5,164.833 103.5,159.5 Z"/></g>
<g><path style="opacity:1" fill="#000000" d="M 95.5,231.5 C 100.833,231.5 106.167,231.5 111.5,231.5C 111.5,236.833 111.5,242.167 111.5,247.5C 106.167,247.5 100.833,247.5 95.5,247.5C 95.5,242.167 95.5,236.833 95.5,231.5 Z"/></g>
<g><path style="opacity:1" fill="#000000" d="M 143.5,303.5 C 148.833,303.5 154.167,303.5 159.5,303.5C 159.5,308.833 159.5,314.167 159.5,319.5C 154.167,319.5 148.833,319.5 143.5,319.5C 143.5,314.167 143.5,308.833 143.5,303.5 Z"/></g>
<g><path style="opacity:0.912" fill="#000000" d="M 71.5,326.5 C 72.638,330.716 74.4713,334.716 77,338.5C 81.8653,343.7 87.0319,348.533 92.5,353C 89.5206,357.805 86.1873,362.305 82.5,366.5C 70.9807,359.481 62.4807,349.814 57,337.5C 55.9571,334.243 55.4571,330.91 55.5,327.5C 61.0262,327.821 66.3595,327.488 71.5,326.5 Z"/></g>
</svg>
