<?xml version="1.0" encoding="UTF-8"?>
<!DOCTYPE svg PUBLIC "-//W3C//DTD SVG 1.1//EN" "http://www.w3.org/Graphics/SVG/1.1/DTD/svg11.dtd">
<svg xmlns="http://www.w3.org/2000/svg" version="1.1" width="512px" height="512px" style="shape-rendering:geometricPrecision; text-rendering:geometricPrecision; image-rendering:optimizeQuality; fill-rule:evenodd; clip-rule:evenodd" xmlns:xlink="http://www.w3.org/1999/xlink">
<g><path style="opacity:0.917" fill="#000000" d="M 297.5,4.5 C 301.287,3.81442 304.454,4.81442 307,7.5C 314.363,37.1473 311.03,65.4806 297,92.5C 282.832,112.971 263.499,125.971 239,131.5C 235.76,136.305 232.76,141.305 230,146.5C 223.546,155.809 214.713,161.142 203.5,162.5C 204.017,181.361 211.35,196.861 225.5,209C 232.833,213 240.167,217 247.5,221C 253.186,227.351 259.519,233.017 266.5,238C 272.527,241.181 278.86,243.514 285.5,245C 297.483,246.087 309.483,247.087 321.5,248C 343.099,250.963 361.099,260.463 375.5,276.5C 392.726,276.227 402.893,284.56 406,301.5C 407.94,310.837 407.94,320.17 406,329.5C 403.369,333.629 399.869,334.462 395.5,332C 394.059,328.276 392.893,324.443 392,320.5C 391.57,328.188 390.903,335.854 390,343.5C 387.453,352.189 385.619,361.023 384.5,370C 384.567,377.004 386.4,383.504 390,389.5C 401.084,398.34 408.084,409.673 411,423.5C 411.333,440.5 411.667,457.5 412,474.5C 413.941,480.821 415.774,487.154 417.5,493.5C 416.999,498.49 414.666,502.323 410.5,505C 401.242,506.584 391.909,506.917 382.5,506C 380.094,504.378 378.261,502.211 377,499.5C 370.248,500.645 363.414,500.811 356.5,500C 351.931,497.459 350.431,493.625 352,488.5C 355,484.167 358,479.833 361,475.5C 363.495,441.967 349.661,418.134 319.5,404C 310.806,395.979 303.64,386.813 298,376.5C 292.416,365.833 287.249,355 282.5,344C 270.179,344.384 257.846,344.384 245.5,344C 223.482,342.778 204.149,335.112 187.5,321C 180.277,324.514 173.777,329.347 168,335.5C 167.815,345.427 170.148,354.76 175,363.5C 185.125,372.53 189.791,383.864 189,397.5C 188.55,399.519 187.717,401.352 186.5,403C 180.435,407.903 173.768,411.736 166.5,414.5C 162.843,414.226 160.01,412.56 158,409.5C 155.041,402.331 154.874,395.164 157.5,388C 153.099,379.263 148.266,370.763 143,362.5C 136.892,368.922 130.892,368.922 125,362.5C 123.529,358.419 121.862,354.419 120,350.5C 111.277,346.11 104.943,339.443 101,330.5C 95.0853,315.614 93.0853,300.281 95,284.5C 100.248,273.956 108.748,270.122 120.5,273C 123.982,273.912 127.482,274.745 131,275.5C 137.565,274.268 139.232,270.601 136,264.5C 134.724,253.273 135.724,242.273 139,231.5C 149.144,214.718 150.144,197.385 142,179.5C 135.271,174.553 127.771,171.387 119.5,170C 112.027,166.397 108.36,160.397 108.5,152C 108.619,147.692 109.452,143.525 111,139.5C 112.731,137.383 114.898,135.883 117.5,135C 127.299,132.4 136.966,129.4 146.5,126C 152.011,120.147 158.345,115.48 165.5,112C 172.847,109.65 179.847,110.483 186.5,114.5C 194.303,109.903 199.469,103.237 202,94.5C 202.922,84.1549 203.922,73.8216 205,63.5C 206.913,52.1691 212.08,42.6691 220.5,35C 224.398,31.4625 228.564,30.9625 233,33.5C 233.923,35.0344 234.423,36.701 234.5,38.5C 232.041,45.0457 229.874,51.7124 228,58.5C 227.641,64.883 228.141,71.2164 229.5,77.5C 228.807,85.6278 227.474,93.6278 225.5,101.5C 229.484,101.072 233.484,100.739 237.5,100.5C 243.503,101.339 249.503,101.839 255.5,102C 266.983,96.8699 271.483,88.0366 269,75.5C 265.667,67.5 262.333,59.5 259,51.5C 258.139,45.4149 258.473,39.4149 260,33.5C 262.983,30.1432 266.483,29.6432 270.5,32C 275.941,41.1044 281.774,49.9378 288,58.5C 290.591,52.8101 292.257,46.8101 293,40.5C 294.119,29.5323 294.785,18.5323 295,7.5C 296.045,6.62656 296.878,5.62656 297.5,4.5 Z M 282.5,89.5 C 282.575,83.4141 282.409,77.4141 282,71.5C 284.983,72.9165 288.15,73.7499 291.5,74C 288.866,79.4431 285.866,84.6098 282.5,89.5 Z M 160.5,365.5 C 150.867,353.557 146.367,339.89 147,324.5C 148.061,321.438 149.894,318.938 152.5,317C 172.428,310.416 183.428,296.749 185.5,276C 185.153,269.171 181.82,266.837 175.5,269C 174.299,269.903 173.465,271.069 173,272.5C 172.548,278.523 170.881,284.19 168,289.5C 167.282,290.451 166.449,290.617 165.5,290C 151.908,278.229 146.408,263.395 149,245.5C 153.238,234.356 156.904,223.023 160,211.5C 160.641,202.014 159.974,192.68 158,183.5C 167.494,184.669 175.828,182.003 183,175.5C 185.563,169.959 183.897,166.626 178,165.5C 172.584,168.033 166.917,170.033 161,171.5C 158.5,171 156,170.5 153.5,170C 147.707,167.27 142.04,164.27 136.5,161C 132.109,159.819 127.776,158.486 123.5,157C 121.653,154.421 121.153,151.588 122,148.5C 131.245,144.808 140.745,141.641 150.5,139C 155.42,136.084 159.753,132.418 163.5,128C 165.888,126.139 168.554,124.806 171.5,124C 176.508,124.829 181.508,125.996 186.5,127.5C 196.91,125.026 204.743,119.026 210,109.5C 211.313,117.245 215.813,120.079 223.5,118C 230.949,113.229 238.949,112.229 247.5,115C 233.872,119.605 219.872,122.271 205.5,123C 197.508,124.477 192.175,128.977 189.5,136.5C 190.659,142.091 193.992,143.924 199.5,142C 205.553,135.981 212.886,133.647 221.5,135C 215.91,145.244 207.243,150.577 195.5,151C 192.079,153.257 190.079,156.424 189.5,160.5C 190.471,183.266 199.137,202.433 215.5,218C 223.004,222.587 230.671,226.92 238.5,231C 242.833,234 246.5,237.667 249.5,242C 259.315,250.391 270.649,255.725 283.5,258C 293.124,259.158 302.791,259.824 312.5,260C 361.301,265.782 382.801,292.949 377,341.5C 375.018,348.76 373.352,356.093 372,363.5C 370.66,374.8 372.66,385.466 378,395.5C 383,401.167 388,406.833 393,412.5C 395.455,416.531 397.121,420.864 398,425.5C 398.333,442.167 398.667,458.833 399,475.5C 399.84,481.671 401.673,487.504 404.5,493C 400.848,493.499 397.182,493.665 393.5,493.5C 393.942,491.028 394.275,488.528 394.5,486C 392.82,478.929 391.653,471.762 391,464.5C 390.667,453.167 390.333,441.833 390,430.5C 388.96,423.756 386.294,417.756 382,412.5C 368.364,397.523 353.53,384.023 337.5,372C 330.867,364.11 327.367,354.943 327,344.5C 326.205,334.601 326.705,324.768 328.5,315C 327.685,308.96 324.352,306.96 318.5,309C 317.333,309.5 316.5,310.333 316,311.5C 314.292,320.412 313.292,329.412 313,338.5C 295.555,330.985 277.388,328.651 258.5,331.5C 236.81,332.212 217.143,326.379 199.5,314C 218.647,306.831 229.814,292.998 233,272.5C 233.64,268.517 234.14,264.517 234.5,260.5C 234.299,252.151 230.466,249.817 223,253.5C 221.753,262.639 219.753,271.639 217,280.5C 215.042,285.59 212.208,290.09 208.5,294C 199.237,298.653 189.904,303.32 180.5,308C 172.418,313.411 164.918,319.578 158,326.5C 155.524,329.948 154.357,333.781 154.5,338C 155.419,347.433 157.419,356.599 160.5,365.5 Z M 109.5,285.5 C 116.578,285.857 123.578,286.857 130.5,288.5C 134.796,288.051 138.963,287.051 143,285.5C 147.1,290.933 151.933,295.767 157.5,300C 152.282,301.563 146.949,301.896 141.5,301C 135.335,298.746 129.335,296.246 123.5,293.5C 120.349,293.811 118.182,295.477 117,298.5C 112.927,308.112 113.927,317.112 120,325.5C 124.3,330.801 128.966,335.801 134,340.5C 134.934,343.136 135.768,345.803 136.5,348.5C 136.444,349.737 135.944,350.737 135,351.5C 133.335,343.837 128.835,338.67 121.5,336C 117.509,333.011 114.676,329.178 113,324.5C 109.749,315.078 107.582,305.412 106.5,295.5C 106.702,291.898 107.702,288.565 109.5,285.5 Z M 392.5,303.5 C 391.178,303.67 390.011,303.337 389,302.5C 387.555,298.85 386.555,295.183 386,291.5C 390.005,294.511 392.172,298.511 392.5,303.5 Z M 127.5,310.5 C 130.923,311.363 134.256,312.53 137.5,314C 135.932,316.304 134.765,318.804 134,321.5C 130.802,318.437 128.636,314.771 127.5,310.5 Z M 298.5,348.5 C 299.601,347.402 300.934,347.235 302.5,348C 306.619,349.559 310.619,351.393 314.5,353.5C 316.444,361.164 319.277,368.497 323,375.5C 333.699,385.108 344.532,394.608 355.5,404C 361.784,410.739 367.95,417.572 374,424.5C 375.562,426.957 376.562,429.624 377,432.5C 377.333,443.167 377.667,453.833 378,464.5C 378.122,471.687 379.289,478.687 381.5,485.5C 377.636,487.171 373.636,487.671 369.5,487C 378.926,455.384 371.593,428.051 347.5,405C 340.826,399.659 333.493,395.325 325.5,392C 319.559,385.392 314.392,378.225 310,370.5C 306.392,362.948 302.559,355.614 298.5,348.5 Z M 166.5,374.5 C 173.431,379.368 176.264,386.035 175,394.5C 173.255,395.956 171.422,397.289 169.5,398.5C 169.167,397.833 168.833,397.167 168.5,396.5C 171.106,388.905 170.44,381.571 166.5,374.5 Z"/></g>
</svg>
