<?xml version="1.0" encoding="UTF-8"?>
<!DOCTYPE svg PUBLIC "-//W3C//DTD SVG 1.1//EN" "http://www.w3.org/Graphics/SVG/1.1/DTD/svg11.dtd">
<svg xmlns="http://www.w3.org/2000/svg" version="1.1" width="512px" height="512px" style="shape-rendering:geometricPrecision; text-rendering:geometricPrecision; image-rendering:optimizeQuality; fill-rule:evenodd; clip-rule:evenodd" xmlns:xlink="http://www.w3.org/1999/xlink">
<g><path style="opacity:0.982" fill="#000000" d="M 511.5,67.5 C 511.5,72.1667 511.5,76.8333 511.5,81.5C 509.13,86.7094 505.464,90.8761 500.5,94C 477.575,101.809 454.575,109.309 431.5,116.5C 430.167,123.5 428.833,130.5 427.5,137.5C 450.539,137.064 473.539,137.564 496.5,139C 504.016,141.351 509.016,146.184 511.5,153.5C 511.5,157.833 511.5,162.167 511.5,166.5C 508.288,173.54 502.954,178.374 495.5,181C 459.833,181.333 424.167,181.667 388.5,182C 365.589,193.372 342.756,204.872 320,216.5C 319.333,225.833 319.333,235.167 320,244.5C 330.806,250.473 338.639,259.139 343.5,270.5C 360.237,257.472 379.237,249.972 400.5,248C 412.833,247.333 425.167,247.333 437.5,248C 452.208,252.576 457.708,262.41 454,277.5C 449.082,285 444.416,292.667 440,300.5C 434.002,317.5 425.669,333.166 415,347.5C 399.735,364.884 380.568,375.051 357.5,378C 348.611,378.835 339.778,379.668 331,380.5C 319.755,402.097 314.755,425.097 316,449.5C 305.63,490.106 279.796,506.606 238.5,499C 214.12,491.281 199.62,474.781 195,449.5C 196.245,425.093 191.245,402.093 180,380.5C 166.062,379.839 152.228,378.006 138.5,375C 115.611,367.974 98.1109,354.14 86,333.5C 80.726,322.619 75.726,311.619 71,300.5C 66.5845,292.667 61.9178,285 57,277.5C 53.2918,262.41 58.7918,252.576 73.5,248C 98.3131,244.98 122.313,247.98 145.5,257C 153.335,260.747 160.668,265.247 167.5,270.5C 172.361,259.139 180.194,250.473 191,244.5C 191.667,235.167 191.667,225.833 191,216.5C 168.244,204.872 145.411,193.372 122.5,182C 86.8333,181.667 51.1667,181.333 15.5,181C 8.04583,178.374 2.71249,173.54 -0.5,166.5C -0.5,162.167 -0.5,157.833 -0.5,153.5C 1.98409,146.184 6.98409,141.351 14.5,139C 37.4612,137.564 60.4612,137.064 83.5,137.5C 82.1667,130.5 80.8333,123.5 79.5,116.5C 55.2002,109.233 31.2002,101.067 7.5,92C 3.96319,89.06 1.29652,85.56 -0.5,81.5C -0.5,76.8333 -0.5,72.1667 -0.5,67.5C 3.46334,58.3435 10.4633,53.3435 20.5,52.5C 36.7342,56.6888 52.7342,61.6888 68.5,67.5C 68.8333,67 69.1667,66.5 69.5,66C 66.7905,54.953 64.7905,43.7864 63.5,32.5C 63.9148,18.5836 71.0815,10.917 85,9.5C 95.6037,10.775 102.604,16.4417 106,26.5C 112.667,59.8333 119.333,93.1667 126,126.5C 130.133,131.634 134.633,136.468 139.5,141C 152.5,147.5 165.5,154 178.5,160.5C 178.833,160 179.167,159.5 179.5,159C 175.694,145.109 172.36,131.109 169.5,117C 172.735,99.4434 183.068,92.7768 200.5,97C 207.227,100.065 211.394,105.231 213,112.5C 220,140.5 227,168.5 234,196.5C 234.167,211.844 234.667,227.178 235.5,242.5C 248.833,247.833 262.167,247.833 275.5,242.5C 276.333,227.178 276.833,211.844 277,196.5C 284,168.5 291,140.5 298,112.5C 303.827,96.6728 314.66,91.8395 330.5,98C 337.245,102.484 340.912,108.817 341.5,117C 338.64,131.109 335.306,145.109 331.5,159C 331.833,159.5 332.167,160 332.5,160.5C 345.21,154.43 357.877,148.263 370.5,142C 375.7,137.135 380.533,131.968 385,126.5C 391.667,93.1667 398.333,59.8333 405,26.5C 409.647,13.097 418.814,7.93037 432.5,11C 442.554,14.5989 447.554,21.7656 447.5,32.5C 446.21,43.7864 444.21,54.953 441.5,66C 441.833,66.5 442.167,67 442.5,67.5C 458.266,61.6888 474.266,56.6888 490.5,52.5C 500.537,53.3435 507.537,58.3435 511.5,67.5 Z M 116.5,293.5 C 139.266,299.439 154.433,313.439 162,335.5C 137.777,331.448 122.61,317.448 116.5,293.5 Z M 391.5,293.5 C 392.675,293.281 393.675,293.614 394.5,294.5C 387.939,317.902 372.772,331.569 349,335.5C 356.322,314.678 370.489,300.678 391.5,293.5 Z"/></g>
</svg>
