<?xml version="1.0" encoding="UTF-8"?>
<!DOCTYPE svg PUBLIC "-//W3C//DTD SVG 1.1//EN" "http://www.w3.org/Graphics/SVG/1.1/DTD/svg11.dtd">
<svg xmlns="http://www.w3.org/2000/svg" version="1.1" width="512px" height="512px" style="shape-rendering:geometricPrecision; text-rendering:geometricPrecision; image-rendering:optimizeQuality; fill-rule:evenodd; clip-rule:evenodd" xmlns:xlink="http://www.w3.org/1999/xlink">
<g><path style="opacity:0.935" fill="#000000" d="M 58.5,-0.5 C 84.8333,-0.5 111.167,-0.5 137.5,-0.5C 144.819,1.79553 151.152,5.79553 156.5,11.5C 161.848,5.79553 168.181,1.79553 175.5,-0.5C 181.5,-0.5 187.5,-0.5 193.5,-0.5C 197.515,1.58887 201.681,3.58887 206,5.5C 210.541,3.30683 215.041,1.30683 219.5,-0.5C 225.167,-0.5 230.833,-0.5 236.5,-0.5C 243.819,1.79553 250.152,5.79553 255.5,11.5C 260.848,5.79553 267.181,1.79553 274.5,-0.5C 280.167,-0.5 285.833,-0.5 291.5,-0.5C 295.959,1.30683 300.459,3.30683 305,5.5C 309.319,3.58887 313.485,1.58887 317.5,-0.5C 323.5,-0.5 329.5,-0.5 335.5,-0.5C 342.819,1.79553 349.152,5.79553 354.5,11.5C 359.848,5.79553 366.181,1.79553 373.5,-0.5C 399.833,-0.5 426.167,-0.5 452.5,-0.5C 454.144,0.316435 455.31,1.64977 456,3.5C 456.667,29.1667 456.667,54.8333 456,80.5C 454.246,88.6772 450.413,95.6772 444.5,101.5C 457.056,114.191 459.889,128.858 453,145.5C 450.651,149.528 447.817,153.194 444.5,156.5C 458.14,171.498 460.14,187.998 450.5,206C 460.158,224.057 458.158,240.557 444.5,255.5C 458.158,270.443 460.158,286.943 450.5,305C 460.14,323.002 458.14,339.502 444.5,354.5C 457.055,367.204 459.889,381.871 453,398.5C 450.741,402.595 447.907,406.262 444.5,409.5C 450.413,415.323 454.246,422.323 456,430.5C 456.667,456.167 456.667,481.833 456,507.5C 455.31,509.35 454.144,510.684 452.5,511.5C 426.167,511.5 399.833,511.5 373.5,511.5C 366.181,509.204 359.848,505.204 354.5,499.5C 349.152,505.204 342.819,509.204 335.5,511.5C 329.5,511.5 323.5,511.5 317.5,511.5C 313.485,509.411 309.319,507.411 305,505.5C 300.469,507.688 295.969,509.688 291.5,511.5C 285.833,511.5 280.167,511.5 274.5,511.5C 267.181,509.204 260.848,505.204 255.5,499.5C 250.152,505.204 243.819,509.204 236.5,511.5C 230.833,511.5 225.167,511.5 219.5,511.5C 215.041,509.693 210.541,507.693 206,505.5C 201.681,507.411 197.515,509.411 193.5,511.5C 187.5,511.5 181.5,511.5 175.5,511.5C 168.181,509.204 161.848,505.204 156.5,499.5C 151.152,505.204 144.819,509.204 137.5,511.5C 111.167,511.5 84.8333,511.5 58.5,511.5C 56.8564,510.684 55.6897,509.35 55,507.5C 54.3333,481.5 54.3333,455.5 55,429.5C 57.0368,421.755 60.8702,415.088 66.5,409.5C 53.1262,395.451 50.9596,379.784 60,362.5C 61.9773,359.688 64.144,357.022 66.5,354.5C 52.8604,339.502 50.8604,323.002 60.5,305C 50.8419,286.943 52.8419,270.443 66.5,255.5C 52.8419,240.557 50.8419,224.057 60.5,206C 50.861,187.959 52.861,171.459 66.5,156.5C 54.5134,144.549 51.3467,130.549 57,114.5C 59.2004,109.465 62.367,105.132 66.5,101.5C 56.7678,91.803 52.9345,80.1364 55,66.5C 60.9541,60.8279 65.9541,61.4945 70,68.5C 69.9058,86.7516 78.7391,94.5849 96.5,92C 103.405,88.7612 107.738,83.4279 109.5,76C 107.597,70.2156 104.097,69.049 99,72.5C 98.3235,76.4005 96.8235,79.9005 94.5,83C 87.3549,85.6107 83.0216,83.1107 81.5,75.5C 84.4032,59.3064 93.9032,52.6397 110,55.5C 107.354,37.2698 115.188,27.7698 133.5,27C 139.088,29.6779 140.588,33.8445 138,39.5C 134.855,41.7365 131.355,43.2365 127.5,44C 124.377,48.6724 125.377,52.1724 130.5,54.5C 146.719,49.399 151.552,39.0656 145,23.5C 142.258,19.8841 138.758,17.3841 134.5,16C 113.169,15.5 91.8359,15.3334 70.5,15.5C 70.9057,23.9174 70.4057,32.2508 69,40.5C 63.967,44.7793 59.3003,44.4459 55,39.5C 54.3333,27.5 54.3333,15.5 55,3.5C 55.6897,1.64977 56.8564,0.316435 58.5,-0.5 Z M 178.5,15.5 C 182.182,15.3347 185.848,15.5014 189.5,16C 192.864,18.7291 193.197,21.7291 190.5,25C 187.5,26 184.5,27 181.5,28C 177.074,33.4414 177.741,38.1081 183.5,42C 192.823,43.5861 199.99,40.4194 205,32.5C 206.73,28.7387 208.23,24.9053 209.5,21C 213.934,19.617 218.268,17.9504 222.5,16C 233.233,13.7391 241.233,17.4057 246.5,27C 252.5,31.6667 258.5,31.6667 264.5,27C 269.749,17.3761 277.749,13.7094 288.5,16C 292.732,17.9504 297.066,19.617 301.5,21C 304.008,35.8572 312.675,42.8572 327.5,42C 333.259,38.1081 333.926,33.4414 329.5,28C 326.5,27 323.5,26 320.5,25C 317.803,21.7291 318.136,18.7291 321.5,16C 335.921,13.9192 344.254,20.0859 346.5,34.5C 345.283,44.8837 339.616,51.3837 329.5,54C 321.173,54.4997 312.84,54.6664 304.5,54.5C 306.613,38.4643 299.78,29.1309 284,26.5C 275.373,28.0621 273.206,32.7288 277.5,40.5C 281.197,41.7407 284.697,43.4074 288,45.5C 289.379,49.4755 288.213,52.3088 284.5,54C 265.167,54.6667 245.833,54.6667 226.5,54C 222.787,52.3088 221.621,49.4755 223,45.5C 225.344,43.2256 228.178,42.0589 231.5,42C 236.381,37.6248 236.715,32.9581 232.5,28C 220.395,25.3954 211.895,29.8954 207,41.5C 206.501,45.8206 206.334,50.1539 206.5,54.5C 198.16,54.6664 189.827,54.4997 181.5,54C 169.398,50.8859 163.898,43.0526 165,30.5C 167.29,23.3827 171.79,18.3827 178.5,15.5 Z M 376.5,15.5 C 397.833,15.5 419.167,15.5 440.5,15.5C 440.667,36.5026 440.5,57.5026 440,78.5C 435.354,90.2401 426.854,94.7401 414.5,92C 407.584,88.8702 403.251,83.5368 401.5,76C 403.403,70.2156 406.903,69.049 412,72.5C 412.848,75.5597 413.848,78.5597 415,81.5C 419.46,85.1578 423.793,84.8245 428,80.5C 430.273,69.542 426.439,61.3753 416.5,56C 411.339,54.3039 406.173,54.1372 401,55.5C 402.92,46.5851 400.753,38.7518 394.5,32C 388.237,26.8855 381.403,25.7188 374,28.5C 371.214,31.9671 370.88,35.6338 373,39.5C 376.145,41.7365 379.645,43.2365 383.5,44C 386.623,48.6724 385.623,52.1724 380.5,54.5C 366.323,50.8151 360.823,41.8151 364,27.5C 366.769,21.8947 370.936,17.8947 376.5,15.5 Z M 125.5,70.5 C 212.167,70.5 298.833,70.5 385.5,70.5C 385.017,97.922 385.517,125.255 387,152.5C 391.333,156.5 395.667,156.5 400,152.5C 401.28,143.267 401.947,133.934 402,124.5C 405.24,113.8 412.406,108.966 423.5,110C 414.193,116.253 411.526,124.586 415.5,135C 418.702,136.483 422.036,136.817 425.5,136C 427.979,132.02 430.312,128.02 432.5,124C 437.439,122.937 440.106,124.937 440.5,130C 439.088,140.081 433.422,146.414 423.5,149C 418.167,154 418.167,159 423.5,164C 437.451,168.247 442.451,177.247 438.5,191C 436.167,193 433.833,193 431.5,191C 430,187.57 428.5,184.07 427,180.5C 422.123,177.479 417.79,178.146 414,182.5C 412.618,197.629 419.451,206.629 434.5,209.5C 436.05,214.269 437.883,218.935 440,223.5C 441.104,229.226 440.104,234.56 437,239.5C 421.667,250.167 421.667,260.833 437,271.5C 440.104,276.44 441.104,281.774 440,287.5C 437.883,292.065 436.05,296.731 434.5,301.5C 419.451,304.371 412.618,313.371 414,328.5C 417.79,332.854 422.123,333.521 427,330.5C 428.5,326.93 430,323.43 431.5,320C 435.207,317.791 438.04,318.624 440,322.5C 441.621,335.417 436.121,343.584 423.5,347C 418.167,352 418.167,357 423.5,362C 435.235,365.052 440.735,372.552 440,384.5C 438.136,387.207 435.636,388.041 432.5,387C 430.312,382.98 427.979,378.98 425.5,375C 414.871,373.356 411.038,377.856 414,388.5C 416.05,393.545 419.216,397.712 423.5,401C 413.97,401.985 407.137,398.151 403,389.5C 401.525,361.23 401.025,332.897 401.5,304.5C 417.451,306.202 426.784,299.202 429.5,283.5C 427.428,275.278 422.595,273.278 415,277.5C 414.023,281.268 412.523,284.768 410.5,288C 407.044,289.123 404.21,288.29 402,285.5C 401.333,265.5 401.333,245.5 402,225.5C 404.21,222.71 407.044,221.877 410.5,223C 412.523,226.232 414.023,229.732 415,233.5C 422.482,237.568 427.316,235.568 429.5,227.5C 427.069,211.411 417.735,204.411 401.5,206.5C 401.948,196.727 401.448,187.061 400,177.5C 394.706,173.47 390.04,174.137 386,179.5C 385.5,266.499 385.333,353.499 385.5,440.5C 298.833,440.5 212.167,440.5 125.5,440.5C 125.5,317.167 125.5,193.833 125.5,70.5 Z M 87.5,110.5 C 98.9975,108.86 106.164,113.86 109,125.5C 109.5,152.498 109.667,179.498 109.5,206.5C 93.2647,204.411 83.9313,211.411 81.5,227.5C 83.572,235.722 88.4053,237.722 96,233.5C 96.7635,229.645 98.2635,226.145 100.5,223C 103.956,221.877 106.79,222.71 109,225.5C 109.667,245.5 109.667,265.5 109,285.5C 106.79,288.29 103.956,289.123 100.5,288C 98.2635,284.855 96.7635,281.355 96,277.5C 88.4053,273.278 83.572,275.278 81.5,283.5C 83.9313,299.589 93.2647,306.589 109.5,304.5C 109.667,331.502 109.5,358.502 109,385.5C 106.294,396.875 99.127,402.042 87.5,401C 96.5042,394.988 99.3375,386.821 96,376.5C 86.6567,371.98 81.4901,374.98 80.5,385.5C 74.8172,389.07 71.4839,387.57 70.5,381C 71.9116,370.919 77.5782,364.586 87.5,362C 92.8333,357 92.8333,352 87.5,347C 74.5691,343.304 69.0691,334.804 71,321.5C 73.4477,318.455 76.281,317.955 79.5,320C 80.9996,323.43 82.4996,326.93 84,330.5C 88.877,333.521 93.2103,332.854 97,328.5C 98.6738,319.854 96.1738,312.687 89.5,307C 85.336,304.712 81.0027,302.879 76.5,301.5C 75.2239,296.946 73.3906,292.613 71,288.5C 69.3497,277.467 73.3497,269.134 83,263.5C 86.3333,258.167 86.3333,252.833 83,247.5C 73.3497,241.866 69.3497,233.533 71,222.5C 73.3906,218.387 75.2239,214.054 76.5,209.5C 83.3079,207.847 89.1412,204.513 94,199.5C 97.1616,194.223 98.1616,188.557 97,182.5C 93.2103,178.146 88.877,177.479 84,180.5C 82.4996,184.07 80.9996,187.57 79.5,191C 76.281,193.045 73.4477,192.545 71,189.5C 69.0691,176.196 74.5691,167.696 87.5,164C 92.8333,159 92.8333,154 87.5,149C 75.765,145.948 70.265,138.448 71,126.5C 73.2207,123.488 76.054,122.821 79.5,124.5C 81.117,127.28 82.2837,130.28 83,133.5C 85.9087,136.394 89.4087,137.227 93.5,136C 95.3333,135.5 96.5,134.333 97,132.5C 98.9482,122.816 95.7816,115.482 87.5,110.5 Z M 86.5,417.5 C 98.6211,417.452 106.288,423.285 109.5,435C 107.597,440.784 104.097,441.951 99,438.5C 98.3235,434.599 96.8235,431.099 94.5,428C 87.3549,425.389 83.0216,427.889 81.5,435.5C 84.4032,451.694 93.9032,458.36 110,455.5C 107.202,470.357 113.035,479.857 127.5,484C 133.921,485.293 137.921,482.793 139.5,476.5C 139.167,473.99 138.167,471.823 136.5,470C 133.222,469.081 130.055,467.914 127,466.5C 124.489,461.876 125.656,458.542 130.5,456.5C 146.719,461.601 151.552,471.934 145,487.5C 142.258,491.116 138.758,493.616 134.5,495C 113.169,495.5 91.8359,495.667 70.5,495.5C 70.3334,474.497 70.5,453.497 71,432.5C 73.4462,424.552 78.6129,419.552 86.5,417.5 Z M 418.5,417.5 C 429.252,417.453 436.419,422.453 440,432.5C 440.5,453.497 440.667,474.497 440.5,495.5C 419.164,495.667 397.831,495.5 376.5,495C 361.631,487.385 358.798,476.552 368,462.5C 371.704,459.565 375.871,457.565 380.5,456.5C 385.344,458.542 386.511,461.876 384,466.5C 380.945,467.914 377.778,469.081 374.5,470C 370.583,474.167 370.583,478.333 374.5,482.5C 387.837,485.743 396.671,480.743 401,467.5C 401.518,463.425 401.518,459.425 401,455.5C 417.097,458.36 426.597,451.694 429.5,435.5C 427.978,427.889 423.645,425.389 416.5,428C 414.176,431.099 412.676,434.599 412,438.5C 406.903,441.951 403.403,440.784 401.5,435C 402.668,430.832 404.501,426.998 407,423.5C 410.575,420.798 414.408,418.798 418.5,417.5 Z M 181.5,456.5 C 189.833,456.5 198.167,456.5 206.5,456.5C 204.364,472.517 211.198,481.851 227,484.5C 234.428,483.731 237.095,479.731 235,472.5C 233.833,471.333 232.667,470.167 231.5,469C 224.66,469.17 221.827,466.003 223,459.5C 223.903,458.299 225.069,457.465 226.5,457C 245.833,456.333 265.167,456.333 284.5,457C 288.213,458.691 289.379,461.525 288,465.5C 284.697,467.593 281.197,469.259 277.5,470.5C 273.206,478.271 275.373,482.938 284,484.5C 299.78,481.869 306.613,472.536 304.5,456.5C 312.84,456.334 321.173,456.5 329.5,457C 345.067,462.299 349.567,472.466 343,487.5C 337.477,494.564 330.31,497.064 321.5,495C 318.136,492.271 317.803,489.271 320.5,486C 323.5,485 326.5,484 329.5,483C 333.5,478.667 333.5,474.333 329.5,470C 320.622,467.262 313.122,469.429 307,476.5C 304.635,480.809 302.801,485.309 301.5,490C 297.066,491.383 292.732,493.05 288.5,495C 277.767,497.261 269.767,493.594 264.5,484C 258.5,479.333 252.5,479.333 246.5,484C 241.233,493.594 233.233,497.261 222.5,495C 218.268,493.05 213.934,491.383 209.5,490C 206.992,475.143 198.325,468.143 183.5,469C 177.741,472.892 177.074,477.559 181.5,483C 184.5,484 187.5,485 190.5,486C 193.197,489.271 192.864,492.271 189.5,495C 175.079,497.081 166.746,490.914 164.5,476.5C 165.534,465.701 171.201,459.034 181.5,456.5 Z"/></g>
<g><path style="opacity:0.937" fill="#000000" d="M 144.5,81.5 C 218.501,81.3333 292.501,81.5 366.5,82C 369.455,82.3917 371.622,83.8917 373,86.5C 373.667,199.167 373.667,311.833 373,424.5C 371.622,427.108 369.455,428.608 366.5,429C 308.5,429.667 250.5,429.667 192.5,429C 188.334,428.015 186.334,425.348 186.5,421C 186.301,417.726 187.634,415.393 190.5,414C 246.166,413.5 301.832,413.333 357.5,413.5C 357.5,308.167 357.5,202.833 357.5,97.5C 289.5,97.5 221.5,97.5 153.5,97.5C 153.5,202.833 153.5,308.167 153.5,413.5C 161.197,411.34 165.863,414.007 167.5,421.5C 167.06,424.214 165.726,426.38 163.5,428C 155.369,430.241 147.369,429.908 139.5,427C 138.874,426.25 138.374,425.416 138,424.5C 137.333,311.833 137.333,199.167 138,86.5C 139.563,83.9771 141.73,82.3104 144.5,81.5 Z"/></g>
</svg>
