<?xml version="1.0" encoding="UTF-8"?>
<!DOCTYPE svg PUBLIC "-//W3C//DTD SVG 1.1//EN" "http://www.w3.org/Graphics/SVG/1.1/DTD/svg11.dtd">
<svg xmlns="http://www.w3.org/2000/svg" version="1.1" width="512px" height="512px" style="shape-rendering:geometricPrecision; text-rendering:geometricPrecision; image-rendering:optimizeQuality; fill-rule:evenodd; clip-rule:evenodd" xmlns:xlink="http://www.w3.org/1999/xlink">
<g><path style="opacity:0.935" fill="#000000" d="M 511.5,88.5 C 511.5,176.5 511.5,264.5 511.5,352.5C 507.681,366.485 498.681,375.318 484.5,379C 434.834,379.5 385.168,379.667 335.5,379.5C 336.509,388.658 332.509,392.492 323.5,391C 319.886,388.056 318.553,384.223 319.5,379.5C 296.833,379.5 274.167,379.5 251.5,379.5C 251.5,396.833 251.5,414.167 251.5,431.5C 274.167,431.5 296.833,431.5 319.5,431.5C 319.334,424.159 319.5,416.826 320,409.5C 323.013,404.465 327.18,403.298 332.5,406C 333.701,406.903 334.535,408.069 335,409.5C 335.5,416.826 335.666,424.159 335.5,431.5C 341.509,431.334 347.509,431.501 353.5,432C 362.667,434.5 368.5,440.333 371,449.5C 371.667,457.5 371.667,465.5 371,473.5C 370.167,474.5 369.333,475.5 368.5,476.5C 313.541,477.662 258.541,477.829 203.5,477C 201.951,475.786 200.785,474.286 200,472.5C 199.333,465.167 199.333,457.833 200,450.5C 202.055,440.778 207.888,434.611 217.5,432C 223.491,431.501 229.491,431.334 235.5,431.5C 235.5,414.167 235.5,396.833 235.5,379.5C 216.833,379.5 198.167,379.5 179.5,379.5C 179.667,405.835 179.5,432.169 179,458.5C 178.339,466.481 174.505,472.315 167.5,476C 116.225,477.653 64.8917,477.986 13.5,477C 6.64983,474.648 1.98316,470.148 -0.5,463.5C -0.5,324.833 -0.5,186.167 -0.5,47.5C 1.98316,40.8519 6.64983,36.3519 13.5,34C 63.8333,33.3333 114.167,33.3333 164.5,34C 173.267,37.0129 178.1,43.1795 179,52.5C 179.5,127.833 179.667,203.166 179.5,278.5C 266.501,278.333 353.501,278.5 440.5,279C 444.666,279.985 446.666,282.652 446.5,287C 446.699,290.274 445.366,292.607 442.5,294C 354.834,294.5 267.167,294.667 179.5,294.5C 179.5,317.5 179.5,340.5 179.5,363.5C 280.167,363.667 380.834,363.5 481.5,363C 488.333,360.833 492.833,356.333 495,349.5C 495.5,331.17 495.667,312.836 495.5,294.5C 485.161,294.666 474.828,294.5 464.5,294C 461.634,292.607 460.301,290.274 460.5,287C 460.334,282.652 462.334,279.985 466.5,279C 476.161,278.5 485.828,278.334 495.5,278.5C 495.667,216.166 495.5,153.832 495,91.5C 492.296,84.1272 487.13,79.6272 479.5,78C 385.167,77.6667 290.833,77.3333 196.5,77C 192.247,73.5796 191.413,69.4129 194,64.5C 194.903,63.2986 196.069,62.4652 197.5,62C 292.167,61.3333 386.833,61.3333 481.5,62C 496.715,65.0548 506.715,73.8882 511.5,88.5 Z M 17.5,49.5 C 21.5138,49.3345 25.5138,49.5012 29.5,50C 34.7916,56.9604 40.4583,63.6271 46.5,70C 48.9562,71.7105 51.6229,73.0438 54.5,74C 77.1667,74.6667 99.8333,74.6667 122.5,74C 124.949,73.2754 127.283,72.2754 129.5,71C 135.833,64 142.167,57 148.5,50C 152.5,49.3333 156.5,49.3333 160.5,50C 161,50.5 161.5,51 162,51.5C 162.667,118.833 162.667,186.167 162,253.5C 153.667,263.833 145.333,274.167 137,284.5C 136,286.5 135,288.5 134,290.5C 127.242,323.621 120.742,356.788 114.5,390C 114.517,393.383 115.35,396.55 117,399.5C 132,416.5 147,433.5 162,450.5C 163.023,454.317 162.523,457.817 160.5,461C 112.833,461.667 65.1667,461.667 17.5,461C 15.0062,457.353 14.8395,453.519 17,449.5C 32.3736,432.462 47.3736,415.129 62,397.5C 62.958,394.925 63.458,392.259 63.5,389.5C 60.8607,374.136 58.0274,358.803 55,343.5C 50.3392,335.973 45.3392,335.639 40,342.5C 41.3259,358.139 43.8259,373.639 47.5,389C 37.0135,401.489 26.5135,413.989 16,426.5C 15.3333,377.5 15.3333,328.5 16,279.5C 19.6201,284.789 23.6201,289.789 28,294.5C 29.6219,302.281 31.6219,309.947 34,317.5C 41.1219,322.013 45.9552,320.179 48.5,312C 47.0486,303.742 45.2153,295.576 43,287.5C 34,276.167 25,264.833 16,253.5C 15.3333,186.167 15.3333,118.833 16,51.5C 16.7172,50.9558 17.2172,50.2891 17.5,49.5 Z M 50.5,50.5 C 75.6633,49.3366 100.997,49.17 126.5,50C 124.5,53.3333 121.833,56 118.5,58C 98.5,58.6667 78.5,58.6667 58.5,58C 55.7232,55.608 53.0565,53.108 50.5,50.5 Z M 40.5,101.5 C 72.8333,101.5 105.167,101.5 137.5,101.5C 137.5,104.833 137.5,108.167 137.5,111.5C 105.167,111.5 72.8333,111.5 40.5,111.5C 40.5,108.167 40.5,104.833 40.5,101.5 Z M 40.5,156.5 C 72.8333,156.5 105.167,156.5 137.5,156.5C 137.5,159.833 137.5,163.167 137.5,166.5C 105.167,166.5 72.8333,166.5 40.5,166.5C 40.5,163.167 40.5,159.833 40.5,156.5 Z M 85.5,268.5 C 97.9475,270.728 101.281,277.395 95.5,288.5C 88.7114,294.18 82.5448,293.513 77,286.5C 73.6515,277.532 76.4848,271.532 85.5,268.5 Z M 161.5,279.5 C 162.665,328.332 162.832,377.332 162,426.5C 151.487,413.989 140.987,401.489 130.5,389C 136.794,358.53 142.961,328.03 149,297.5C 152.993,291.347 157.159,285.347 161.5,279.5 Z M 284.5,319.5 C 291.228,320.538 293.394,324.205 291,330.5C 285.347,334.614 281.18,333.281 278.5,326.5C 279.49,323.185 281.49,320.852 284.5,319.5 Z M 220.5,447.5 C 263.835,447.333 307.168,447.5 350.5,448C 352.667,448.833 354.167,450.333 355,452.5C 355.498,455.482 355.665,458.482 355.5,461.5C 308.833,461.5 262.167,461.5 215.5,461.5C 214.446,455.699 216.113,451.032 220.5,447.5 Z"/></g>
<g><path style="opacity:0.939" fill="#000000" d="M 35.5,85.5 C 71.1682,85.3333 106.835,85.5 142.5,86C 147.573,87.4056 151.073,90.5723 153,95.5C 153.667,102.833 153.667,110.167 153,117.5C 151.932,122.235 149.099,125.402 144.5,127C 107.5,127.667 70.5,127.667 33.5,127C 28.9014,125.402 26.0681,122.235 25,117.5C 24.3333,110.5 24.3333,103.5 25,96.5C 26.6844,90.9845 30.1844,87.3178 35.5,85.5 Z M 40.5,101.5 C 40.5,104.833 40.5,108.167 40.5,111.5C 72.8333,111.5 105.167,111.5 137.5,111.5C 137.5,108.167 137.5,104.833 137.5,101.5C 105.167,101.5 72.8333,101.5 40.5,101.5 Z"/></g>
<g><path style="opacity:0.941" fill="#000000" d="M 33.5,140.5 C 70.5015,140.333 107.502,140.5 144.5,141C 149.099,142.598 151.932,145.765 153,150.5C 153.667,157.833 153.667,165.167 153,172.5C 151.073,177.428 147.573,180.594 142.5,182C 106.833,182.667 71.1667,182.667 35.5,182C 30,180.5 26.5,177 25,171.5C 24.3333,164.5 24.3333,157.5 25,150.5C 26.2613,145.745 29.0947,142.412 33.5,140.5 Z M 40.5,156.5 C 40.5,159.833 40.5,163.167 40.5,166.5C 72.8333,166.5 105.167,166.5 137.5,166.5C 137.5,163.167 137.5,159.833 137.5,156.5C 105.167,156.5 72.8333,156.5 40.5,156.5 Z"/></g>
<g><path style="opacity:0.926" fill="#000000" d="M 82.5,252.5 C 106.212,252.918 116.712,264.918 114,288.5C 108.252,303.297 97.4184,309.797 81.5,308C 64.5918,302.701 57.4252,291.201 60,273.5C 63.8534,262.476 71.3534,255.476 82.5,252.5 Z M 85.5,268.5 C 76.4848,271.532 73.6515,277.532 77,286.5C 82.5448,293.513 88.7114,294.18 95.5,288.5C 101.281,277.395 97.9475,270.728 85.5,268.5 Z"/></g>
<g><path style="opacity:0.923" fill="#000000" d="M 282.5,303.5 C 302.423,304.586 310.59,314.92 307,334.5C 300.871,346.98 291.038,351.48 277.5,348C 265.025,341.88 260.525,332.047 264,318.5C 267.667,310.27 273.833,305.27 282.5,303.5 Z M 284.5,319.5 C 281.49,320.852 279.49,323.185 278.5,326.5C 281.18,333.281 285.347,334.614 291,330.5C 293.394,324.205 291.228,320.538 284.5,319.5 Z"/></g>
<g><path style="opacity:0.854" fill="#000000" d="M 408.5,320.5 C 417.778,319.376 421.278,323.376 419,332.5C 413.138,338.194 408.138,337.527 404,330.5C 403.296,326.092 404.796,322.759 408.5,320.5 Z"/></g>
<g><path style="opacity:0.859" fill="#000000" d="M 434.5,320.5 C 443.158,319.327 446.992,322.994 446,331.5C 442.127,337.129 437.461,337.796 432,333.5C 429.567,328.498 430.401,324.165 434.5,320.5 Z"/></g>
<g><path style="opacity:0.854" fill="#000000" d="M 461.5,320.5 C 465.257,320.071 468.757,320.737 472,322.5C 475.452,329.926 473.285,334.592 465.5,336.5C 456.677,333.052 455.343,327.718 461.5,320.5 Z"/></g>
<g><path style="opacity:0.903" fill="#000000" d="M 50.5,432.5 C 58.5069,432.334 66.5069,432.5 74.5,433C 79.1433,435.072 80.6433,438.572 79,443.5C 78.1667,445.667 76.6667,447.167 74.5,448C 66.5,448.667 58.5,448.667 50.5,448C 43.931,442.796 43.931,437.63 50.5,432.5 Z"/></g>
<g><path style="opacity:0.899" fill="#000000" d="M 97.5,432.5 C 105.507,432.334 113.507,432.5 121.5,433C 125.861,435.226 127.361,438.726 126,443.5C 125.167,445.667 123.667,447.167 121.5,448C 113.5,448.667 105.5,448.667 97.5,448C 92.4648,444.987 91.2981,440.82 94,435.5C 95.1451,434.364 96.3117,433.364 97.5,432.5 Z"/></g>
</svg>
