<?xml version="1.0" encoding="UTF-8"?>
<!DOCTYPE svg PUBLIC "-//W3C//DTD SVG 1.1//EN" "http://www.w3.org/Graphics/SVG/1.1/DTD/svg11.dtd">
<svg xmlns="http://www.w3.org/2000/svg" version="1.1" width="512px" height="512px" style="shape-rendering:geometricPrecision; text-rendering:geometricPrecision; image-rendering:optimizeQuality; fill-rule:evenodd; clip-rule:evenodd" xmlns:xlink="http://www.w3.org/1999/xlink">
<g><path style="opacity:0.936" fill="#000000" d="M 511.5,354.5 C 511.5,358.5 511.5,362.5 511.5,366.5C 508.56,371.528 505.226,376.361 501.5,381C 495.072,384.919 488.405,385.419 481.5,382.5C 480.667,410.494 480.167,438.494 480,466.5C 479.478,472.046 476.644,475.879 471.5,478C 419.833,478.667 368.167,478.667 316.5,478C 313,476.5 310.5,474 309,470.5C 308.667,440.833 308.333,411.167 308,381.5C 294.818,387.326 285.152,383.659 279,370.5C 275.482,363.005 275.816,355.672 280,348.5C 289.333,339.833 298.667,331.167 308,322.5C 308.045,306.433 308.712,290.433 310,274.5C 314.054,268.247 319.888,265.414 327.5,266C 326.354,263.856 324.854,262.023 323,260.5C 292.789,270.581 262.956,269.581 233.5,257.5C 204.404,285.095 175.738,313.261 147.5,342C 145.043,343.562 142.376,344.562 139.5,345C 131.814,346.225 124.147,347.559 116.5,349C 114.283,358.458 112.116,367.958 110,377.5C 108.5,379 107,380.5 105.5,382C 95.9983,384.695 86.3316,386.528 76.5,387.5C 75.4215,397.638 73.5882,407.638 71,417.5C 67.1667,422.667 62.6667,427.167 57.5,431C 42.8564,432.133 28.1897,432.966 13.5,433.5C 7.23482,432.887 2.56815,429.887 -0.5,424.5C -0.5,408.833 -0.5,393.167 -0.5,377.5C 0.409824,375.981 1.24316,374.315 2,372.5C 18.1667,356.333 34.3333,340.167 50.5,324C 55.1304,322.096 58.9637,323.262 62,327.5C 62.755,330.303 62.4217,332.97 61,335.5C 46,350.5 31,365.5 16,380.5C 15.3256,392.829 14.8256,405.162 14.5,417.5C 26.8402,417.233 39.1736,416.733 51.5,416C 53.3333,414.167 55.1667,412.333 57,410.5C 58.4509,401.128 60.1176,391.794 62,382.5C 63.1667,377.333 66.3333,374.167 71.5,373C 79.8346,371.433 88.1679,369.933 96.5,368.5C 97.6763,360.118 99.1763,351.784 101,343.5C 102.474,338.693 105.64,335.526 110.5,334C 119.833,332.333 129.167,330.667 138.5,329C 165.167,302.333 191.833,275.667 218.5,249C 204,239.833 192.167,228 183,213.5C 152.5,244 122,274.5 91.5,305C 81.4286,307.26 77.9286,303.427 81,293.5C 112,262.5 143,231.5 174,200.5C 170.967,190.04 168.3,179.373 166,168.5C 160.041,109.514 183.541,67.0136 236.5,41C 284.664,23.7004 327.664,32.0337 365.5,66C 394.805,97.4257 405.138,134.259 396.5,176.5C 410.252,203.508 417.085,232.175 417,262.5C 430.667,275.5 444.333,288.5 458,301.5C 460.621,307.926 458.621,312.259 452,314.5C 449.825,313.745 447.659,312.912 445.5,312C 428.922,295.418 411.756,279.585 394,264.5C 384.704,271.961 375.871,279.961 367.5,288.5C 369.001,289.752 370.668,290.752 372.5,291.5C 381.829,277.673 393.829,274.84 408.5,283C 418.281,292.399 420.114,303.232 414,315.5C 404.603,326.207 393.436,328.374 380.5,322C 375.928,318.179 372.595,313.512 370.5,308C 364.804,306.07 359.637,303.236 355,299.5C 350.282,306.452 344.948,307.118 339,301.5C 338.794,295.116 338.294,288.783 337.5,282.5C 332.95,281.2 328.45,281.2 324,282.5C 323.667,298.167 323.333,313.833 323,329.5C 313.304,339.53 303.304,349.197 293,358.5C 292.5,363.17 294.333,366.503 298.5,368.5C 303.286,364.887 307.953,361.054 312.5,357C 316.987,355.622 320.487,356.788 323,360.5C 323.5,394.832 323.667,429.165 323.5,463.5C 336.833,463.5 350.167,463.5 363.5,463.5C 363.333,438.164 363.5,412.831 364,387.5C 365.433,382.402 368.6,378.902 373.5,377C 381.26,375.883 389.093,375.383 397,375.5C 403.833,375.667 410.667,375.833 417.5,376C 422.799,377.398 426.632,380.565 429,385.5C 430.454,411.457 430.954,437.457 430.5,463.5C 441.833,463.5 453.167,463.5 464.5,463.5C 464.333,429.165 464.5,394.832 465,360.5C 465.5,358.667 466.667,357.5 468.5,357C 471.167,356.333 473.833,356.333 476.5,357C 480.2,361.035 484.2,364.702 488.5,368C 490.367,368.711 491.867,368.211 493,366.5C 494.358,364.141 495.358,361.807 496,359.5C 490,353.5 484,347.5 478,341.5C 476.92,331.588 481.087,328.421 490.5,332C 498.804,338.464 505.804,345.964 511.5,354.5 Z M 277.5,47.5 C 324.611,48.1546 357.777,69.8213 377,112.5C 392.165,158.681 381.665,197.848 345.5,230C 341.302,233.03 336.968,235.863 332.5,238.5C 327.55,229.83 324.05,220.497 322,210.5C 318.027,192.583 317.527,174.583 320.5,156.5C 344.321,152.846 357.321,139.013 359.5,115C 356.574,86.0747 340.574,72.0747 311.5,73C 283.99,79.8626 272.49,97.3626 277,125.5C 281.405,140.238 290.905,150.072 305.5,155C 301.207,176.614 302.041,198.114 308,219.5C 310.743,228.56 313.576,237.56 316.5,246.5C 271.955,259.258 234.122,248.592 203,214.5C 178.969,182.661 173.969,147.994 188,110.5C 205.956,72.6071 235.789,51.6071 277.5,47.5 Z M 311.5,88.5 C 335.782,88.3668 346.115,100.367 342.5,124.5C 328.591,123.37 318.091,128.704 311,140.5C 294.386,133.939 288.386,121.939 293,104.5C 297.222,96.7681 303.389,91.4348 311.5,88.5 Z M 388.5,199.5 C 391.325,204.452 393.491,209.786 395,215.5C 398.075,226.541 400.242,237.707 401.5,249C 395.634,247.775 389.968,248.441 384.5,251C 374.454,259.367 364.788,268.2 355.5,277.5C 348.988,270.323 343.322,262.49 338.5,254C 360.952,241.052 377.619,222.885 388.5,199.5 Z M 400.5,303.5 C 401.399,304.994 401.065,306.494 399.5,308C 396.512,310.144 393.512,310.477 390.5,309C 394.346,307.914 397.68,306.081 400.5,303.5 Z M 379.5,391.5 C 391.167,391.5 402.833,391.5 414.5,391.5C 414.5,415.5 414.5,439.5 414.5,463.5C 402.833,463.5 391.167,463.5 379.5,463.5C 379.5,439.5 379.5,415.5 379.5,391.5 Z"/></g>
</svg>
