<?xml version="1.0" encoding="UTF-8"?>
<!DOCTYPE svg PUBLIC "-//W3C//DTD SVG 1.1//EN" "http://www.w3.org/Graphics/SVG/1.1/DTD/svg11.dtd">
<svg xmlns="http://www.w3.org/2000/svg" version="1.1" width="512px" height="512px" style="shape-rendering:geometricPrecision; text-rendering:geometricPrecision; image-rendering:optimizeQuality; fill-rule:evenodd; clip-rule:evenodd" xmlns:xlink="http://www.w3.org/1999/xlink">
<g><path style="opacity:0.962" fill="#000000" d="M 77.5,-0.5 C 142.5,-0.5 207.5,-0.5 272.5,-0.5C 284.15,2.98488 291.65,10.6515 295,22.5C 295.667,42.1667 295.667,61.8333 295,81.5C 292.354,92.152 286.02,99.8187 276,104.5C 275.333,113.833 275.333,123.167 276,132.5C 292.667,154.5 309.333,176.5 326,198.5C 330.365,205.259 333.365,212.592 335,220.5C 335.333,251.833 335.667,283.167 336,314.5C 348.833,307 361.667,299.5 374.5,292C 396.968,280.38 420.301,278.38 444.5,286C 484.823,304.806 501.323,336.306 494,380.5C 489.062,398.885 479.228,414.052 464.5,426C 418.656,453.425 372.323,480.091 325.5,506C 319.172,508.327 312.838,510.16 306.5,511.5C 298.167,511.5 289.833,511.5 281.5,511.5C 257.57,506.415 238.903,493.582 225.5,473C 168.833,472.667 112.167,472.333 55.5,472C 32.6904,466.19 19.1904,451.69 15,428.5C 14.023,358.14 14.3563,287.807 16,217.5C 17.9141,210.339 20.9141,203.672 25,197.5C 41.2426,176.68 57.2426,155.68 73,134.5C 74.4512,124.271 74.9512,113.938 74.5,103.5C 65.1869,100.352 59.0202,94.0189 56,84.5C 54.3971,65.2103 54.0638,45.877 55,26.5C 56.9272,12.7483 64.4272,3.74826 77.5,-0.5 Z M 85.5,19.5 C 146.546,19.0151 207.546,19.5151 268.5,21C 271,22.1667 272.833,24 274,26.5C 274.667,43.8333 274.667,61.1667 274,78.5C 272.132,82.5206 268.965,84.6872 264.5,85C 203.455,85.9848 142.455,85.6515 81.5,84C 78.3374,82.5202 76.504,80.0202 76,76.5C 75.3333,60.5 75.3333,44.5 76,28.5C 77.1291,23.2008 80.2957,20.2008 85.5,19.5 Z M 95.5,105.5 C 148.5,105.5 201.5,105.5 254.5,105.5C 254.5,112.167 254.5,118.833 254.5,125.5C 223.165,125.333 191.832,125.5 160.5,126C 152.5,132.333 152.5,138.667 160.5,145C 193.5,145.333 226.5,145.667 259.5,146C 277.609,169.054 295.109,192.554 312,216.5C 312.834,219.172 313.668,221.839 314.5,224.5C 221.836,225.5 129.169,225.833 36.5,225.5C 36.6491,219.886 38.4824,214.886 42,210.5C 59.9102,187.012 77.5769,163.345 95,139.5C 95.4999,128.172 95.6665,116.838 95.5,105.5 Z M 35.5,245.5 C 128.5,245.5 221.5,245.5 314.5,245.5C 314.833,272.841 314.5,300.175 313.5,327.5C 290.171,340.496 267.171,353.996 244.5,368C 236.714,374.78 230.047,382.447 224.5,391C 161.501,391.5 98.5009,391.667 35.5,391.5C 35.5,342.833 35.5,294.167 35.5,245.5 Z M 405.5,302.5 C 436.085,299.701 457.918,312.034 471,339.5C 480.593,370.392 472.093,394.892 445.5,413C 429.561,422.553 413.394,431.72 397,440.5C 376.541,407.09 356.708,373.257 337.5,339C 352.306,329.76 367.306,320.76 382.5,312C 389.824,307.661 397.49,304.494 405.5,302.5 Z M 316.5,349.5 C 317.675,349.281 318.675,349.614 319.5,350.5C 339.086,384.004 358.419,417.67 377.5,451.5C 358.197,463.49 338.531,474.99 318.5,486C 288.744,496.411 264.244,489.245 245,464.5C 228.774,434.69 232.94,408.19 257.5,385C 277.23,373.141 296.897,361.307 316.5,349.5 Z M 35.5,412.5 C 95.837,412.167 156.17,412.5 216.5,413.5C 213.888,426.154 213.888,438.82 216.5,451.5C 163.832,451.667 111.166,451.5 58.5,451C 47.7623,447.929 40.5956,441.096 37,430.5C 35.7614,424.565 35.2614,418.565 35.5,412.5 Z"/></g>
<g><path style="opacity:0.89" fill="#000000" d="M 120.5,125.5 C 131.49,123.992 136.324,128.658 135,139.5C 131.723,145.109 126.89,146.942 120.5,145C 112.581,138.506 112.581,132.006 120.5,125.5 Z"/></g>
<g><path style="opacity:0.946" fill="#000000" d="M 170.5,272.5 C 176.898,271.053 181.731,273.053 185,278.5C 185.5,289.495 185.667,300.495 185.5,311.5C 196.896,311.091 208.23,311.591 219.5,313C 225.542,316.748 227.042,321.915 224,328.5C 222.786,330.049 221.286,331.215 219.5,332C 208.172,332.5 196.838,332.667 185.5,332.5C 185.667,343.838 185.5,355.172 185,366.5C 183.065,370.802 179.732,372.802 175,372.5C 169.57,372.452 166.237,369.785 165,364.5C 164.5,353.839 164.333,343.172 164.5,332.5C 153.162,332.667 141.828,332.5 130.5,332C 122.5,325.667 122.5,319.333 130.5,313C 141.77,311.591 153.104,311.091 164.5,311.5C 164.334,301.161 164.5,290.828 165,280.5C 165.625,276.891 167.458,274.224 170.5,272.5 Z"/></g>
</svg>
