<?xml version="1.0" encoding="UTF-8"?>
<!DOCTYPE svg PUBLIC "-//W3C//DTD SVG 1.1//EN" "http://www.w3.org/Graphics/SVG/1.1/DTD/svg11.dtd">
<svg xmlns="http://www.w3.org/2000/svg" version="1.1" width="512px" height="512px" style="shape-rendering:geometricPrecision; text-rendering:geometricPrecision; image-rendering:optimizeQuality; fill-rule:evenodd; clip-rule:evenodd" xmlns:xlink="http://www.w3.org/1999/xlink">
<g><path style="opacity:0.946" fill="#000000" d="M 346.5,24.5 C 402.581,21.4528 445.081,43.7862 474,91.5C 497.564,142.167 492.731,189.834 459.5,234.5C 465.96,239.842 467.127,246.176 463,253.5C 455.501,258.216 448.834,257.216 443,250.5C 415.397,273.477 383.563,283.644 347.5,281C 339.47,289.364 331.137,297.364 322.5,305C 309.128,314.254 294.962,315.754 280,309.5C 218.5,365 157,420.5 95.5,476C 78.1265,484.85 63.2931,481.683 51,466.5C 44.1975,472.301 37.6975,478.468 31.5,485C 21.7003,488.934 15.7003,485.768 13.5,475.5C 13.8988,473.803 14.3988,472.137 15,470.5C 21.0106,463.323 27.5106,456.656 34.5,450.5C 19.4545,435.932 17.6212,419.932 29,402.5C 85.6379,344.195 142.638,286.195 200,228.5C 199.314,223.002 198.481,217.502 197.5,212C 197.98,202.206 201.147,193.372 207,185.5C 215.03,177.136 223.363,169.136 232,161.5C 230.468,124.746 241.968,92.913 266.5,66C 259.425,61.1222 257.925,54.9556 262,47.5C 269.834,41.5711 276.834,42.5711 283,50.5C 301.877,36.1417 323.044,27.4751 346.5,24.5 Z M 351.5,46.5 C 401.65,45.4789 437.483,67.4789 459,112.5C 472.736,150.009 467.903,184.843 444.5,217C 443.833,217.667 443.167,217.667 442.5,217C 395,167.5 347.5,118 300,68.5C 299.493,67.0039 299.993,65.8373 301.5,65C 316.755,54.7515 333.421,48.5848 351.5,46.5 Z M 281.5,82.5 C 330.133,132.634 378.633,182.968 427,233.5C 427.617,234.449 427.451,235.282 426.5,236C 403.813,253.425 378.146,260.758 349.5,258C 318.333,225.5 287.167,193 256,160.5C 253.185,130.778 261.685,104.778 281.5,82.5 Z M 243.5,181.5 C 271.829,209.663 299.663,238.33 327,267.5C 327.667,268.167 327.667,268.833 327,269.5C 320.802,276.032 314.302,282.199 307.5,288C 299.956,292.712 292.622,292.378 285.5,287C 264.302,265.47 243.468,243.636 223,221.5C 219.499,214.336 219.832,207.336 224,200.5C 230.395,193.937 236.895,187.603 243.5,181.5 Z M 213.5,246.5 C 214.239,246.369 214.906,246.536 215.5,247C 230.667,262.833 245.833,278.667 261,294.5C 261.667,295.167 261.667,295.833 261,296.5C 201.167,350.333 141.333,404.167 81.5,458C 79.1667,458.667 76.8333,458.667 74.5,458C 65.3333,448.833 56.1667,439.667 47,430.5C 43.164,426.366 42.8306,422.033 46,417.5C 102.298,360.853 158.132,303.853 213.5,246.5 Z"/></g>
<g><path style="opacity:0.925" fill="#000000" d="M 209.5,283.5 C 221.666,283.185 226.166,288.852 223,300.5C 213.804,310.03 204.304,319.197 194.5,328C 184.73,332.415 178.73,329.415 176.5,319C 176.615,316.268 177.448,313.768 179,311.5C 189.063,301.932 199.229,292.599 209.5,283.5 Z"/></g>
<g><path style="opacity:0.91" fill="#000000" d="M 98.5,383.5 C 101.649,383.211 104.649,383.711 107.5,385C 111.553,387.93 115.053,391.43 118,395.5C 121.732,408.438 116.899,413.938 103.5,412C 99,408.833 95.1667,405 92,400.5C 89.1917,392.802 91.3584,387.135 98.5,383.5 Z"/></g>
<g><path style="opacity:0.913" fill="#000000" d="M 71.5,409.5 C 75.4629,409.089 79.1295,409.922 82.5,412C 85.7041,414.869 88.5374,418.035 91,421.5C 94.9003,433.93 90.4003,439.43 77.5,438C 73.0592,434.563 68.8926,430.73 65,426.5C 62.1917,418.802 64.3584,413.135 71.5,409.5 Z"/></g>
</svg>
