<?xml version="1.0" encoding="UTF-8"?>
<!DOCTYPE svg PUBLIC "-//W3C//DTD SVG 1.1//EN" "http://www.w3.org/Graphics/SVG/1.1/DTD/svg11.dtd">
<svg xmlns="http://www.w3.org/2000/svg" version="1.1" width="512px" height="512px" style="shape-rendering:geometricPrecision; text-rendering:geometricPrecision; image-rendering:optimizeQuality; fill-rule:evenodd; clip-rule:evenodd" xmlns:xlink="http://www.w3.org/1999/xlink">
<g><path style="opacity:0.992" fill="#000000" d="M 47.5,47.5 C 186.167,47.3333 324.834,47.5 463.5,48C 480,52.5 490.5,63 495,79.5C 495.667,196.833 495.667,314.167 495,431.5C 490.39,448.444 479.557,458.944 462.5,463C 324.5,463.667 186.5,463.667 48.5,463C 31.4433,458.944 20.61,448.444 16,431.5C 15.3333,314.167 15.3333,196.833 16,79.5C 20.6827,62.9848 31.1827,52.3181 47.5,47.5 Z M 57.5,79.5 C 67.8548,79.1681 78.1881,79.5014 88.5,80.5C 81.5,101.167 74.5,121.833 67.5,142.5C 60.8665,143.497 54.1998,143.83 47.5,143.5C 47.3334,125.497 47.5001,107.497 48,89.5C 48.679,83.6569 51.8457,80.3236 57.5,79.5 Z M 123.5,79.5 C 138.515,79.1673 153.515,79.5007 168.5,80.5C 161.5,101.167 154.5,121.833 147.5,142.5C 132.5,143.833 117.5,143.833 102.5,142.5C 109.705,121.55 116.705,100.55 123.5,79.5 Z M 203.5,79.5 C 218.515,79.1673 233.515,79.5007 248.5,80.5C 241.5,101.167 234.5,121.833 227.5,142.5C 212.5,143.833 197.5,143.833 182.5,142.5C 189.705,121.55 196.705,100.55 203.5,79.5 Z M 283.5,79.5 C 298.515,79.1673 313.515,79.5007 328.5,80.5C 321.5,101.167 314.5,121.833 307.5,142.5C 292.5,143.833 277.5,143.833 262.5,142.5C 269.705,121.55 276.705,100.55 283.5,79.5 Z M 363.5,79.5 C 378.515,79.1673 393.515,79.5007 408.5,80.5C 401.5,101.167 394.5,121.833 387.5,142.5C 372.5,143.833 357.5,143.833 342.5,142.5C 349.705,121.55 356.705,100.55 363.5,79.5 Z M 443.5,79.5 C 448.248,79.2748 452.915,79.7748 457.5,81C 459.667,81.8333 461.167,83.3333 462,85.5C 463.45,104.779 463.95,124.112 463.5,143.5C 449.817,143.833 436.15,143.499 422.5,142.5C 429.705,121.55 436.705,100.55 443.5,79.5 Z M 47.5,175.5 C 186.167,175.5 324.833,175.5 463.5,175.5C 463.667,257.501 463.5,339.501 463,421.5C 462.5,427.333 459.333,430.5 453.5,431C 321.5,431.667 189.5,431.667 57.5,431C 51.6667,430.5 48.5,427.333 48,421.5C 47.5,339.501 47.3333,257.501 47.5,175.5 Z M 219.5,269.5 C 238.316,280.074 256.649,291.407 274.5,303.5C 256.789,315.194 238.789,326.528 220.5,337.5C 219.5,314.843 219.167,292.176 219.5,269.5 Z"/></g>
<g><path style="opacity:0.975" fill="#000000" d="M 197.5,223.5 C 203.105,222.908 208.439,223.741 213.5,226C 247,246.918 280.666,267.584 314.5,288C 323.879,294.538 326.046,303.038 321,313.5C 319.127,315.709 316.96,317.542 314.5,319C 280.666,339.416 247,360.082 213.5,381C 206.833,384.333 200.167,384.333 193.5,381C 190.894,379.062 189.061,376.562 188,373.5C 187.333,326.833 187.333,280.167 188,233.5C 190.022,228.98 193.189,225.647 197.5,223.5 Z M 219.5,269.5 C 219.167,292.176 219.5,314.843 220.5,337.5C 238.789,326.528 256.789,315.194 274.5,303.5C 256.649,291.407 238.316,280.074 219.5,269.5 Z"/></g>
</svg>
