<?xml version="1.0" encoding="UTF-8"?>
<!DOCTYPE svg PUBLIC "-//W3C//DTD SVG 1.1//EN" "http://www.w3.org/Graphics/SVG/1.1/DTD/svg11.dtd">
<svg xmlns="http://www.w3.org/2000/svg" version="1.1" width="512px" height="512px" style="shape-rendering:geometricPrecision; text-rendering:geometricPrecision; image-rendering:optimizeQuality; fill-rule:evenodd; clip-rule:evenodd" xmlns:xlink="http://www.w3.org/1999/xlink">
<g><path style="opacity:0.957" fill="#000000" d="M 221.5,15.5 C 278.283,12.5257 334.283,17.6923 389.5,31C 411.399,36.5096 431.399,45.8429 449.5,59C 456.026,64.521 460.526,71.3543 463,79.5C 463.5,92.8292 463.667,106.163 463.5,119.5C 472.839,119.334 482.173,119.5 491.5,120C 502.573,178.736 493.406,234.569 464,287.5C 463.667,335.5 463.333,383.5 463,431.5C 460.526,439.646 456.026,446.479 449.5,452C 431.399,465.157 411.399,474.49 389.5,480C 322.242,496.03 254.242,500.03 185.5,492C 156.126,488.823 127.459,482.49 99.5,473C 81.1692,466.933 65.6692,456.766 53,442.5C 51.0593,438.952 49.3926,435.286 48,431.5C 47.6667,383.5 47.3333,335.5 47,287.5C 17.5936,234.569 8.42696,178.736 19.5,120C 28.8274,119.5 38.1607,119.334 47.5,119.5C 39.012,87.3698 49.012,63.5365 77.5,48C 109.216,33.0695 142.55,23.7362 177.5,20C 192.303,18.3378 206.97,16.8378 221.5,15.5 Z M 251.5,31.5 C 298.639,31.0892 344.972,36.9225 390.5,49C 408.625,54.1367 425.125,62.3033 440,73.5C 442.392,76.228 444.392,79.228 446,82.5C 446.667,85.8333 446.667,89.1667 446,92.5C 441.118,100.383 434.618,106.549 426.5,111C 407.424,120.581 387.424,127.581 366.5,132C 301.755,144.528 236.755,146.194 171.5,137C 141.029,133.134 112.029,124.467 84.5,111C 76.3823,106.549 69.8823,100.383 65,92.5C 63.2924,85.5318 64.9591,79.5318 70,74.5C 87.0597,61.2225 106.226,52.0559 127.5,47C 168.371,36.9607 209.705,31.794 251.5,31.5 Z M 252.5,63.5 C 285.002,63.7668 317.335,66.2668 349.5,71C 365.883,73.3447 381.55,78.0114 396.5,85C 397.357,85.6891 398.023,86.5224 398.5,87.5C 388.228,94.4292 376.895,98.9292 364.5,101C 299.363,112.681 234.03,114.014 168.5,105C 151.244,102.853 134.577,98.5194 118.5,92C 116.283,90.7316 114.283,89.2316 112.5,87.5C 115.285,84.6002 118.618,82.4336 122.5,81C 142.021,74.4957 162.021,70.1624 182.5,68C 205.934,65.5818 229.267,64.0818 252.5,63.5 Z M 63.5,117.5 C 73.285,124.727 83.9517,130.394 95.5,134.5C 95.3333,186.168 95.5,237.834 96,289.5C 104.654,317.921 123.82,330.421 153.5,327C 173.333,321.833 185.833,309.333 191,289.5C 191.069,268.13 191.736,246.797 193,225.5C 200.142,208.851 211.975,204.351 228.5,212C 235.001,216.832 238.501,223.332 239,231.5C 235.444,253.164 241.61,271.33 257.5,286C 270.857,295.411 285.523,298.078 301.5,294C 319.275,287.892 330.441,275.726 335,257.5C 335.333,248.833 335.667,240.167 336,231.5C 336.477,221.376 341.31,214.209 350.5,210C 356.384,208.353 362.384,207.353 368.5,207C 384.667,202.833 394.833,192.667 399,176.5C 399.5,164.505 399.667,152.505 399.5,140.5C 416.915,135.98 432.748,128.313 447,117.5C 447.667,172.5 447.667,227.5 447,282.5C 421.686,322.814 387.352,352.814 344,372.5C 343.052,370.43 341.552,368.93 339.5,368C 283.5,367.333 227.5,367.333 171.5,368C 169.448,368.93 167.948,370.43 167,372.5C 123.648,352.814 89.3145,322.814 64,282.5C 63.5,227.501 63.3333,172.501 63.5,117.5 Z M 31.5,135.5 C 36.8333,135.5 42.1667,135.5 47.5,135.5C 47.6667,172.835 47.5,210.168 47,247.5C 34.1391,211.285 28.9725,173.952 31.5,135.5 Z M 463.5,135.5 C 468.833,135.5 474.167,135.5 479.5,135.5C 481.952,173.944 476.785,211.277 464,247.5C 463.5,210.168 463.333,172.835 463.5,135.5 Z M 111.5,140.5 C 147.007,151.196 183.341,157.363 220.5,159C 260.66,160.855 300.66,159.189 340.5,154C 354.68,151.997 368.68,149.164 382.5,145.5C 383.665,152.811 383.831,160.144 383,167.5C 382.037,178.795 376.204,186.295 365.5,190C 345.48,189.416 330.98,197.916 322,215.5C 321.178,217.788 320.511,220.122 320,222.5C 320.037,234.605 319.037,246.605 317,258.5C 308.619,275.604 295.119,281.771 276.5,277C 266.063,272.897 259.563,265.397 257,254.5C 256.08,242.478 255.08,230.478 254,218.5C 245.179,197.388 229.346,188.555 206.5,192C 191.939,195.56 182.106,204.394 177,218.5C 175.714,238.782 175.047,259.116 175,279.5C 174.026,293.464 167.192,303.297 154.5,309C 133.775,313.892 119.942,306.392 113,286.5C 111.534,237.863 111.034,189.196 111.5,140.5 Z M 63.5,312.5 C 90.7698,347.816 125.103,373.983 166.5,391C 167.314,397.753 167.814,404.586 168,411.5C 168.374,412.416 168.874,413.25 169.5,414C 198.082,415.159 226.749,415.659 255.5,415.5C 284.251,415.659 312.918,415.159 341.5,414C 342.126,413.25 342.626,412.416 343,411.5C 343.186,404.586 343.686,397.753 344.5,391C 385.8,374.105 419.967,347.938 447,312.5C 447.97,351.205 447.636,389.872 446,428.5C 440.062,438.099 431.895,445.265 421.5,450C 401.055,459.446 379.722,466.112 357.5,470C 289.5,482.667 221.5,482.667 153.5,470C 128.498,465.777 104.832,457.777 82.5,446C 74.9567,441.824 69.1234,435.991 65,428.5C 63.5303,389.873 63.0303,351.207 63.5,312.5 Z M 183.5,383.5 C 231.5,383.5 279.5,383.5 327.5,383.5C 327.5,388.833 327.5,394.167 327.5,399.5C 279.5,399.5 231.5,399.5 183.5,399.5C 183.5,394.167 183.5,388.833 183.5,383.5 Z"/></g>
<g><path style="opacity:0.937" fill="#000000" d="M 218.5,47.5 C 268.547,45.0699 318.214,48.2365 367.5,57C 382.226,59.7942 395.893,65.1276 408.5,73C 416.394,80.5584 417.561,89.0584 412,98.5C 402.648,106.76 391.815,112.26 379.5,115C 356.154,120.716 332.487,124.383 308.5,126C 263.407,128.738 218.407,127.738 173.5,123C 150.081,120.896 127.747,114.896 106.5,105C 101.95,102.117 98.4499,98.2837 96,93.5C 93.7486,85.1906 95.9153,78.3573 102.5,73C 116.67,64.3853 132.004,58.7186 148.5,56C 171.831,51.9034 195.164,49.0701 218.5,47.5 Z M 252.5,63.5 C 229.267,64.0818 205.934,65.5818 182.5,68C 162.021,70.1624 142.021,74.4957 122.5,81C 118.618,82.4336 115.285,84.6002 112.5,87.5C 114.283,89.2316 116.283,90.7316 118.5,92C 134.577,98.5194 151.244,102.853 168.5,105C 234.03,114.014 299.363,112.681 364.5,101C 376.895,98.9292 388.228,94.4292 398.5,87.5C 398.023,86.5224 397.357,85.6891 396.5,85C 381.55,78.0114 365.883,73.3447 349.5,71C 317.335,66.2668 285.002,63.7668 252.5,63.5 Z"/></g>
</svg>
