<?xml version="1.0" encoding="UTF-8"?>
<!DOCTYPE svg PUBLIC "-//W3C//DTD SVG 1.1//EN" "http://www.w3.org/Graphics/SVG/1.1/DTD/svg11.dtd">
<svg xmlns="http://www.w3.org/2000/svg" version="1.1" width="512px" height="512px" style="shape-rendering:geometricPrecision; text-rendering:geometricPrecision; image-rendering:optimizeQuality; fill-rule:evenodd; clip-rule:evenodd" xmlns:xlink="http://www.w3.org/1999/xlink">
<g><path style="opacity:0.972" fill="#000000" d="M 511.5,83.5 C 511.5,204.833 511.5,326.167 511.5,447.5C 506.68,461.808 496.68,469.641 481.5,471C 330.833,471.667 180.167,471.667 29.5,471C 14.3197,469.641 4.31974,461.808 -0.5,447.5C -0.5,326.167 -0.5,204.833 -0.5,83.5C 2.915,72.9174 9.915,65.7507 20.5,62C 40.4458,60.5484 60.4458,60.0484 80.5,60.5C 80.2497,55.4195 80.7497,50.4195 82,45.5C 83.1667,43.6667 84.6667,42.1667 86.5,41C 101.957,39.8736 117.457,39.3736 133,39.5C 148.218,39.3654 163.385,39.8654 178.5,41C 181.187,42.8749 183.021,45.3749 184,48.5C 184.499,52.4862 184.666,56.4862 184.5,60.5C 190.833,60.5 197.167,60.5 203.5,60.5C 203.25,55.4195 203.75,50.4195 205,45.5C 206.167,43.6667 207.667,42.1667 209.5,41C 224.79,39.874 240.124,39.374 255.5,39.5C 270.876,39.374 286.21,39.874 301.5,41C 303.333,42.1667 304.833,43.6667 306,45.5C 307.25,50.4195 307.75,55.4195 307.5,60.5C 313.833,60.5 320.167,60.5 326.5,60.5C 326.334,56.4862 326.501,52.4862 327,48.5C 327.979,45.3749 329.813,42.8749 332.5,41C 347.615,39.8654 362.782,39.3654 378,39.5C 393.543,39.3736 409.043,39.8736 424.5,41C 426.333,42.1667 427.833,43.6667 429,45.5C 430.25,50.4195 430.75,55.4195 430.5,60.5C 450.554,60.0484 470.554,60.5484 490.5,62C 501.085,65.7507 508.085,72.9174 511.5,83.5 Z M 30.5,81.5 C 47.1667,81.5 63.8333,81.5 80.5,81.5C 80.3333,153.501 80.5,225.501 81,297.5C 81.8333,303 85,306.167 90.5,307C 100.828,307.5 111.161,307.666 121.5,307.5C 121.5,354.833 121.5,402.167 121.5,449.5C 90.1649,449.667 58.8316,449.5 27.5,449C 24.6667,447.5 22.5,445.333 21,442.5C 20.3333,324.833 20.3333,207.167 21,89.5C 22.5935,84.8085 25.7601,82.1418 30.5,81.5 Z M 184.5,81.5 C 190.833,81.5 197.167,81.5 203.5,81.5C 203.333,153.501 203.5,225.501 204,297.5C 204.833,303 208,306.167 213.5,307C 223.828,307.5 234.161,307.666 244.5,307.5C 244.5,354.833 244.5,402.167 244.5,449.5C 210.833,449.5 177.167,449.5 143.5,449.5C 143.5,402.167 143.5,354.833 143.5,307.5C 153.839,307.666 164.172,307.5 174.5,307C 179.876,306.624 183.042,303.79 184,298.5C 184.5,226.167 184.667,153.834 184.5,81.5 Z M 307.5,81.5 C 313.833,81.5 320.167,81.5 326.5,81.5C 326.333,153.834 326.5,226.167 327,298.5C 327.958,303.79 331.124,306.624 336.5,307C 346.828,307.5 357.161,307.666 367.5,307.5C 367.5,354.833 367.5,402.167 367.5,449.5C 333.833,449.5 300.167,449.5 266.5,449.5C 266.5,402.167 266.5,354.833 266.5,307.5C 276.839,307.666 287.172,307.5 297.5,307C 303,306.167 306.167,303 307,297.5C 307.5,225.501 307.667,153.501 307.5,81.5 Z M 430.5,81.5 C 447.17,81.3334 463.837,81.5001 480.5,82C 485.438,82.2723 488.604,84.7723 490,89.5C 490.667,207.167 490.667,324.833 490,442.5C 488.5,445.333 486.333,447.5 483.5,449C 452.168,449.5 420.835,449.667 389.5,449.5C 389.5,402.167 389.5,354.833 389.5,307.5C 399.839,307.666 410.172,307.5 420.5,307C 426,306.167 429.167,303 430,297.5C 430.5,225.501 430.667,153.501 430.5,81.5 Z"/></g>
</svg>
