<?xml version="1.0" encoding="UTF-8"?>
<!DOCTYPE svg PUBLIC "-//W3C//DTD SVG 1.1//EN" "http://www.w3.org/Graphics/SVG/1.1/DTD/svg11.dtd">
<svg xmlns="http://www.w3.org/2000/svg" version="1.1" width="512px" height="512px" style="shape-rendering:geometricPrecision; text-rendering:geometricPrecision; image-rendering:optimizeQuality; fill-rule:evenodd; clip-rule:evenodd" xmlns:xlink="http://www.w3.org/1999/xlink">
<g><path style="opacity:0.94" fill="#000000" d="M 295.5,-0.5 C 300.167,-0.5 304.833,-0.5 309.5,-0.5C 322.499,4.82471 327.666,14.4914 325,28.5C 296.078,120.668 289.912,214.335 306.5,309.5C 309.833,309.5 313.167,309.5 316.5,309.5C 316.776,236.397 334.276,167.73 369,103.5C 377.931,88.6268 387.098,73.9602 396.5,59.5C 396.119,57.2933 394.786,55.96 392.5,55.5C 371.934,66.9072 352.6,80.0738 334.5,95C 324.887,97.0533 320.721,93.2199 322,83.5C 326.813,78.356 331.98,73.5226 337.5,69C 351.962,58.545 366.962,48.8784 382.5,40C 392.954,35.457 402.12,37.2903 410,45.5C 414.176,51.5398 415.509,58.2065 414,65.5C 403.762,81.6337 393.762,97.9671 384,114.5C 381.053,119.711 378.72,125.045 377,130.5C 399.708,117.152 424.041,108.152 450,103.5C 465.937,105.446 472.937,114.446 471,130.5C 470.275,132.949 469.275,135.283 468,137.5C 425.04,177.398 394.707,225.398 377,281.5C 372,286.833 367,286.833 362,281.5C 361.296,279.722 360.796,277.888 360.5,276C 372.029,235.774 390.529,199.274 416,166.5C 427.773,152.057 440.273,138.224 453.5,125C 452.876,122.709 451.376,121.543 449,121.5C 417.411,129.465 388.411,142.799 362,161.5C 343.998,209.177 335.165,258.51 335.5,309.5C 351.17,309.333 366.837,309.5 382.5,310C 390.841,312.341 396.674,317.507 400,325.5C 401.115,332.926 401.615,340.426 401.5,348C 404.812,362.402 400.812,374.069 389.5,383C 384.199,385.868 378.533,387.035 372.5,386.5C 368.404,420.936 363.57,455.27 358,489.5C 353.066,500.609 344.9,507.942 333.5,511.5C 272.5,511.5 211.5,511.5 150.5,511.5C 139.1,507.942 130.934,500.609 126,489.5C 120.466,455.262 115.633,420.929 111.5,386.5C 98.5867,387.464 89.4201,382.131 84,370.5C 82.3865,356.569 82.0531,342.569 83,328.5C 88.9286,313.278 100.095,306.945 116.5,309.5C 111.438,251.376 87.2716,203.043 44,164.5C 38.4103,155.737 38.0769,146.737 43,137.5C 46.65,133.261 51.15,130.428 56.5,129C 62.5,128.833 68.5,128.667 74.5,128.5C 81.5756,128.39 88.5756,128.89 95.5,130C 101.138,136.116 100.471,141.449 93.5,146C 82.1667,146.333 70.8333,146.667 59.5,147C 57.6751,148.466 57.1751,150.299 58,152.5C 104.293,194.425 129.793,246.758 134.5,309.5C 141.5,309.5 148.5,309.5 155.5,309.5C 156.425,234.19 137.258,164.523 98,100.5C 95.5322,83.977 102.532,74.6437 119,72.5C 142.485,78.1012 163.985,87.9346 183.5,102C 187.333,104.5 190.5,107.667 193,111.5C 193.672,120.492 189.506,124.325 180.5,123C 162.194,108.512 141.861,97.6784 119.5,90.5C 117.167,90.8333 115.833,92.1667 115.5,94.5C 155.569,160.431 174.902,232.097 173.5,309.5C 180.833,309.5 188.167,309.5 195.5,309.5C 177.189,192.506 207.856,90.6729 287.5,4C 290.099,2.20496 292.766,0.704964 295.5,-0.5 Z M 299.5,17.5 C 304.422,16.238 307.089,18.0713 307.5,23C 278.453,116.917 271.786,212.417 287.5,309.5C 262.833,309.5 238.167,309.5 213.5,309.5C 195.976,198.115 224.642,100.782 299.5,17.5 Z M 105.5,327.5 C 196.501,327.333 287.501,327.5 378.5,328C 380.667,328.833 382.167,330.333 383,332.5C 383.667,342.833 383.667,353.167 383,363.5C 382.167,365.667 380.667,367.167 378.5,368C 287.5,368.667 196.5,368.667 105.5,368C 103.333,367.167 101.833,365.667 101,363.5C 100.333,353.167 100.333,342.833 101,332.5C 102.025,330.313 103.525,328.646 105.5,327.5 Z M 129.5,386.5 C 204.5,386.5 279.5,386.5 354.5,386.5C 350.475,416.843 346.308,447.177 342,477.5C 341.234,484.934 337.4,490.101 330.5,493C 271.5,493.667 212.5,493.667 153.5,493C 146.6,490.101 142.766,484.934 142,477.5C 137.75,447.168 133.584,416.834 129.5,386.5 Z"/></g>
</svg>
