<?xml version="1.0" encoding="UTF-8"?>
<!DOCTYPE svg PUBLIC "-//W3C//DTD SVG 1.1//EN" "http://www.w3.org/Graphics/SVG/1.1/DTD/svg11.dtd">
<svg xmlns="http://www.w3.org/2000/svg" version="1.1" width="512px" height="512px" style="shape-rendering:geometricPrecision; text-rendering:geometricPrecision; image-rendering:optimizeQuality; fill-rule:evenodd; clip-rule:evenodd" xmlns:xlink="http://www.w3.org/1999/xlink">
<g><path style="opacity:0.935" fill="#000000" d="M 271.5,-0.5 C 274.167,-0.5 276.833,-0.5 279.5,-0.5C 280.836,1.01027 282.003,2.67694 283,4.5C 283.5,15.1615 283.667,25.8281 283.5,36.5C 292.605,34.8826 298.938,38.2159 302.5,46.5C 303.64,64.1417 303.807,81.8083 303,99.5C 301.305,104.599 297.805,106.432 292.5,105C 290.714,104.215 289.214,103.049 288,101.5C 287.5,85.1701 287.333,68.8367 287.5,52.5C 279.5,52.5 271.5,52.5 263.5,52.5C 263.5,97.5 263.5,142.5 263.5,187.5C 271.5,187.5 279.5,187.5 287.5,187.5C 287.333,166.831 287.5,146.164 288,125.5C 292.38,120.657 297.046,120.323 302,124.5C 302.333,125.5 302.667,126.5 303,127.5C 303.957,149.884 303.624,172.217 302,194.5C 297.974,201.874 291.808,204.541 283.5,202.5C 283.667,216.837 283.5,231.171 283,245.5C 279.987,250.535 275.82,251.702 270.5,249C 269.299,248.097 268.465,246.931 268,245.5C 267.5,231.171 267.333,216.837 267.5,202.5C 258.114,204.558 251.614,201.225 248,192.5C 247.333,144.167 247.333,95.8333 248,47.5C 251.385,38.5525 257.885,34.8858 267.5,36.5C 267.333,25.495 267.5,14.495 268,3.5C 268.69,1.64977 269.856,0.316435 271.5,-0.5 Z"/></g>
<g><path style="opacity:0.94" fill="#000000" d="M 511.5,116.5 C 511.5,205.833 511.5,295.167 511.5,384.5C 509.319,406.656 497.652,421.489 476.5,429C 434.214,430.478 391.881,430.978 349.5,430.5C 349.333,443.171 349.5,455.838 350,468.5C 357.833,477.667 365.667,486.833 373.5,496C 377.5,496.333 381.5,496.667 385.5,497C 389.212,499.513 390.378,503.013 389,507.5C 388.31,509.35 387.144,510.684 385.5,511.5C 298.5,511.5 211.5,511.5 124.5,511.5C 119.214,506.665 119.214,501.831 124.5,497C 128.833,496.667 133.167,496.333 137.5,496C 145.333,486.833 153.167,477.667 161,468.5C 161.5,455.838 161.667,443.171 161.5,430.5C 119.119,430.978 76.7859,430.478 34.5,429C 13.2289,421.578 1.56226,406.745 -0.5,384.5C -0.5,295.167 -0.5,205.833 -0.5,116.5C 2.49403,91.3339 16.494,76.1673 41.5,71C 87.1655,70.5 132.832,70.3333 178.5,70.5C 178.886,60.2264 183.719,57.2264 193,61.5C 194.289,64.3508 194.789,67.3508 194.5,70.5C 205.838,70.3335 217.172,70.5001 228.5,71C 233.535,74.0133 234.702,78.1799 232,83.5C 231.097,84.7014 229.931,85.5348 228.5,86C 217.172,86.4999 205.838,86.6665 194.5,86.5C 194.5,91.1667 194.5,95.8333 194.5,100.5C 203.437,98.5553 209.937,101.555 214,109.5C 214.667,142.5 214.667,175.5 214,208.5C 209.937,216.445 203.437,219.445 194.5,217.5C 194.667,240.836 194.5,264.169 194,287.5C 190.623,291.749 186.457,292.582 181.5,290C 180.283,288.352 179.45,286.519 179,284.5C 178.5,262.169 178.333,239.836 178.5,217.5C 169.949,219.14 163.782,216.14 160,208.5C 159.333,175.5 159.333,142.5 160,109.5C 163.782,101.86 169.949,98.8597 178.5,100.5C 178.5,95.8333 178.5,91.1667 178.5,86.5C 133.165,86.3333 87.8321,86.5 42.5,87C 26.5463,90.9552 17.713,101.122 16,117.5C 15.5,203.166 15.3333,288.833 15.5,374.5C 175.5,374.5 335.5,374.5 495.5,374.5C 495.667,288.833 495.5,203.166 495,117.5C 493.287,101.122 484.454,90.9552 468.5,87C 436.168,86.5 403.835,86.3334 371.5,86.5C 371.5,96.8333 371.5,107.167 371.5,117.5C 380.779,115.636 387.279,118.969 391,127.5C 391.167,143.667 391.333,159.833 391.5,176C 391.646,193.23 391.146,210.397 390,227.5C 385.538,233.923 379.371,236.256 371.5,234.5C 371.667,255.503 371.5,276.503 371,297.5C 369.471,300.516 366.971,301.849 363.5,301.5C 359.823,301.664 357.323,299.997 356,296.5C 355.5,275.836 355.333,255.169 355.5,234.5C 347.422,236.04 341.256,233.374 337,226.5C 335.87,209.709 335.37,192.876 335.5,176C 335.363,159.449 335.863,142.949 337,126.5C 340.782,118.86 346.949,115.86 355.5,117.5C 355.5,107.167 355.5,96.8333 355.5,86.5C 344.495,86.6665 333.495,86.4998 322.5,86C 317.776,83.5647 316.276,79.7314 318,74.5C 319.214,72.9512 320.714,71.7845 322.5,71C 333.495,70.5002 344.495,70.3335 355.5,70.5C 355.333,59.8281 355.5,49.1615 356,38.5C 360.661,30.9728 365.661,30.6394 371,37.5C 371.5,48.495 371.667,59.495 371.5,70.5C 404.168,70.3334 436.835,70.5 469.5,71C 494.506,76.1673 508.506,91.3339 511.5,116.5 Z M 175.5,116.5 C 183.167,116.5 190.833,116.5 198.5,116.5C 198.5,144.833 198.5,173.167 198.5,201.5C 190.833,201.5 183.167,201.5 175.5,201.5C 175.5,173.167 175.5,144.833 175.5,116.5 Z M 351.5,133.5 C 359.5,133.5 367.5,133.5 375.5,133.5C 375.5,162.167 375.5,190.833 375.5,219.5C 367.5,219.5 359.5,219.5 351.5,219.5C 351.5,190.833 351.5,162.167 351.5,133.5 Z M 17.5,390.5 C 176.167,390.5 334.833,390.5 493.5,390.5C 490.009,402.824 482.009,410.657 469.5,414C 416.167,414.333 362.833,414.667 309.5,415C 304.094,416.98 302.261,420.814 304,426.5C 304.374,427.416 304.874,428.25 305.5,429C 314.726,430.445 324.06,430.945 333.5,430.5C 333.5,441.5 333.5,452.5 333.5,463.5C 326.159,463.334 318.826,463.5 311.5,464C 309.667,464.5 308.5,465.667 308,467.5C 306.276,472.731 307.776,476.565 312.5,479C 321.186,479.168 329.852,479.668 338.5,480.5C 342.597,485.687 346.93,490.687 351.5,495.5C 287.5,496.833 223.5,496.833 159.5,495.5C 164.07,490.687 168.403,485.687 172.5,480.5C 181.148,479.668 189.814,479.168 198.5,479C 203.224,476.565 204.724,472.731 203,467.5C 202.5,465.667 201.333,464.5 199.5,464C 192.174,463.5 184.841,463.334 177.5,463.5C 177.5,452.5 177.5,441.5 177.5,430.5C 212.835,430.667 248.168,430.5 283.5,430C 289.421,423.605 288.421,418.605 280.5,415C 200.5,414.667 120.5,414.333 40.5,414C 28.5502,410.218 20.8836,402.385 17.5,390.5 Z"/></g>
<g><path style="opacity:0.932" fill="#000000" d="M 95.5,121.5 C 99.1916,120.971 102.358,121.971 105,124.5C 106.397,129.708 106.897,135.041 106.5,140.5C 115.813,139.401 122.313,143.068 126,151.5C 126.167,167.5 126.333,183.5 126.5,199.5C 126.646,216.564 126.146,233.564 125,250.5C 120.744,257.374 114.578,260.04 106.5,258.5C 106.667,272.837 106.5,287.171 106,301.5C 100.561,308.288 95.5608,307.955 91,300.5C 90.5001,286.504 90.3334,272.504 90.5,258.5C 80.8846,260.114 74.3846,256.448 71,247.5C 70.3333,239.5 70.3333,231.5 71,223.5C 75.6295,215.916 80.6295,215.582 86,222.5C 86.4996,229.158 86.6663,235.825 86.5,242.5C 94.5,242.5 102.5,242.5 110.5,242.5C 110.5,213.833 110.5,185.167 110.5,156.5C 102.5,156.5 94.5,156.5 86.5,156.5C 86.6666,170.171 86.4999,183.837 86,197.5C 85.5,199.333 84.3333,200.5 82.5,201C 77.2686,202.724 73.4353,201.224 71,196.5C 70.3333,181.833 70.3333,167.167 71,152.5C 74.1924,143.313 80.6924,139.313 90.5,140.5C 90.3342,135.821 90.5008,131.155 91,126.5C 92.025,124.313 93.525,122.646 95.5,121.5 Z"/></g>
<g><path style="opacity:0.92" fill="#000000" d="M 438.5,159.5 C 440.527,159.338 442.527,159.505 444.5,160C 451.422,162.863 458.422,165.53 465.5,168C 472.011,169.882 474.178,174.049 472,180.5C 469,188.167 466,195.833 463,203.5C 457.967,207.779 453.3,207.446 449,202.5C 448.071,198.756 448.571,195.256 450.5,192C 439.033,197.067 427.7,202.733 416.5,209C 410.074,210.459 406.408,207.959 405.5,201.5C 405.556,198.889 406.556,196.722 408.5,195C 419.66,189.254 430.66,183.254 441.5,177C 438.734,175.533 436.234,173.7 434,171.5C 432.309,166.131 433.809,162.131 438.5,159.5 Z"/></g>
<g><path style="opacity:0.922" fill="#000000" d="M 323.5,240.5 C 332.778,239.376 336.278,243.376 334,252.5C 279.566,282.969 224.733,312.802 169.5,342C 165.579,342.959 162.412,341.792 160,338.5C 157,330.5 154,322.5 151,314.5C 119.85,327.996 88.6838,341.496 57.5,355C 48.0324,358.533 43.5324,355.366 44,345.5C 44.4652,344.069 45.2986,342.903 46.5,342C 81.5,327 116.5,312 151.5,297C 156.212,295.557 160.045,296.723 163,300.5C 165.423,308.109 168.423,315.442 172,322.5C 222.665,295.303 273.165,267.969 323.5,240.5 Z"/></g>
</svg>
