<?xml version="1.0" encoding="UTF-8"?>
<!DOCTYPE svg PUBLIC "-//W3C//DTD SVG 1.1//EN" "http://www.w3.org/Graphics/SVG/1.1/DTD/svg11.dtd">
<svg xmlns="http://www.w3.org/2000/svg" version="1.1" width="512px" height="512px" style="shape-rendering:geometricPrecision; text-rendering:geometricPrecision; image-rendering:optimizeQuality; fill-rule:evenodd; clip-rule:evenodd" xmlns:xlink="http://www.w3.org/1999/xlink">
<g><path style="opacity:0.996" fill="#000000" d="M 511.5,57.5 C 511.5,149.5 511.5,241.5 511.5,333.5C 508.016,344.483 500.682,351.65 489.5,355C 333.5,355.667 177.5,355.667 21.5,355C 10.3177,351.65 2.98437,344.483 -0.5,333.5C -0.5,241.5 -0.5,149.5 -0.5,57.5C 2.98437,46.5167 10.3177,39.3501 21.5,36C 177.5,35.3333 333.5,35.3333 489.5,36C 500.682,39.3501 508.016,46.5167 511.5,57.5 Z M 29.5,55.5 C 180.167,55.3333 330.834,55.5 481.5,56C 487.333,56.5 490.5,59.6667 491,65.5C 491.99,153.544 491.656,241.544 490,329.5C 487.949,332.553 485.115,334.386 481.5,335C 330.833,335.667 180.167,335.667 29.5,335C 23.6667,334.5 20.5,331.333 20,325.5C 19.3333,238.833 19.3333,152.167 20,65.5C 20.679,59.6569 23.8457,56.3236 29.5,55.5 Z"/></g>
<g><path style="opacity:0.979" fill="#000000" d="M 210.5,135.5 C 213.85,135.335 217.183,135.502 220.5,136C 248.504,153 276.171,170.5 303.5,188.5C 307.668,196.691 305.668,202.858 297.5,207C 271.665,222.75 245.999,238.75 220.5,255C 214.488,256.775 209.655,255.275 206,250.5C 205.333,213.833 205.333,177.167 206,140.5C 207.366,138.638 208.866,136.972 210.5,135.5 Z"/></g>
<g><path style="opacity:0.981" fill="#000000" d="M 511.5,430.5 C 511.5,433.833 511.5,437.167 511.5,440.5C 510.028,442.134 508.362,443.634 506.5,445C 385.834,445.5 265.167,445.667 144.5,445.5C 138.775,464.871 125.775,474.871 105.5,475.5C 85.2247,474.871 72.2247,464.871 66.5,445.5C 45.8306,445.667 25.164,445.5 4.5,445C 2.63834,443.634 0.971672,442.134 -0.5,440.5C -0.5,437.167 -0.5,433.833 -0.5,430.5C 0.971672,428.866 2.63834,427.366 4.5,426C 25.164,425.5 45.8306,425.333 66.5,425.5C 72.2247,406.129 85.2247,396.129 105.5,395.5C 125.775,396.129 138.775,406.129 144.5,425.5C 265.167,425.333 385.834,425.5 506.5,426C 508.362,427.366 510.028,428.866 511.5,430.5 Z M 99.5,416.5 C 117.648,415.148 125.815,423.481 124,441.5C 117.178,455.042 107.011,458.209 93.5,451C 85.6019,442.745 84.4352,433.579 90,423.5C 92.7901,420.535 95.9567,418.202 99.5,416.5 Z"/></g>
</svg>
